<?xml version="1.0" encoding="UTF-8"?> <svg xmlns="http://www.w3.org/2000/svg" viewBox="0 0 7.9819 5.1882"><rect y="3.4588" width="7.9819" height="1.7294" fill="#69c"></rect><rect width="7.9819" height="1.7294" fill="#69c"></rect><path d="M0,3.4588H7.9819V1.7294H0ZM3.6757,2.561l-.009-.001c-.0236-.0022-.0357-.0028-.0445-.0032l-.0209-.0017a.1464.1464,0,0,1-.0667-.0242A.129.129,0,0,0,3.4787,2.51a.186.186,0,0,0-.0357-.0012.218.218,0,0,1-.0582-.0046A.0747.0747,0,0,1,3.33,2.4747c-.0075-.013-.01-.0314-.0014-.0371.0064-.0043.0129.0007.0212.007a.1053.1053,0,0,0,.0286.0168.06.06,0,0,0,.0406-.0007A.1415.1415,0,0,1,3.47,2.455a.35.35,0,0,1,.0741.02l.0326.0114a.1794.1794,0,0,0,.03.0094.5.5,0,0,0,.0645.0077l.0373.0035c-.3575-.1587-.354-.1676-.3511-.1748s.0064-.0158.3545.111l-.0079-.0044c-.0209-.0111-.0319-.0162-.04-.02l-.0187-.01a.1477.1477,0,0,1-.0523-.0479A.1285.1285,0,0,0,3.55,2.32a.1856.1856,0,0,0-.0325-.0148.2163.2163,0,0,1-.0521-.0265c-.0217-.0146-.0368-.0284-.0394-.048-.002-.0148.0029-.0327.013-.0348.0074-.0015.0116.0056.0168.0146a.1023.1023,0,0,0,.02.0265.0609.0609,0,0,0,.0378.0149.1418.1418,0,0,1,.05.0144.35.35,0,0,1,.061.0465L3.65,2.336a.1908.1908,0,0,0,.0242.02.5149.5149,0,0,0,.0567.0318l.0331.0176c-.27-.2835-.2629-.29-.2575-.2959s.012-.0121.2851.2382l-.0057-.0071c-.015-.0182-.0232-.0272-.0292-.0337l-.0136-.016a.1486.1486,0,0,1-.03-.0642.1275.1275,0,0,0-.0245-.0545.1816.1816,0,0,0-.0244-.0262.2129.2129,0,0,1-.0379-.0444.0746.0746,0,0,1-.0181-.0594c.0039-.0145.0152-.0292.0253-.0272.0075.0015.0086.01.01.02a.1.1,0,0,0,.0084.0322.06.06,0,0,0,.0292.0281.1433.1433,0,0,1,.04.0323.3488.3488,0,0,1,.0385.0663l.015.0312a.1844.1844,0,0,0,.0146.0278.5031.5031,0,0,0,.04.0512l.0238.0288c-.1406-.3651-.1318-.3689-.1246-.3719s.0156-.0066.1721.3292l-.0025-.0087c-.0069-.0226-.011-.034-.014-.0424l-.0065-.02a.1472.1472,0,0,1-.0031-.0708.1294.1294,0,0,0-.0018-.06A.1884.1884,0,0,0,3.86,2.0551.211.211,0,0,1,3.8423,2a.0745.0745,0,0,1,.006-.0618c.0091-.0119.0252-.0212.0338-.0155.0064.0042.0042.0122.0016.0222a.1011.1011,0,0,0-.0046.0329.06.06,0,0,0,.0162.0372A.1437.1437,0,0,1,3.92,2.06a.3644.3644,0,0,1,.01.0761l.0018.0345a.2.2,0,0,0,.0029.0313.4979.4979,0,0,0,.0176.0626l.011.0358c.01-.3911.0194-.3912.0272-.3913s.017,0,.0331.37l.001-.009c.0022-.0235.0028-.0356.0032-.0445L4.03,2.2044a.1471.1471,0,0,1,.0242-.0666.13.13,0,0,0,.0212-.0559.1955.1955,0,0,0,.0013-.0357.2136.2136,0,0,1,.0045-.0583A.0745.0745,0,0,1,4.11,1.9332c.013-.0075.0314-.01.0372-.0014.0042.0063-.0008.0129-.0071.0211a.106.106,0,0,0-.0168.0287.06.06,0,0,0,.0007.0406.1413.1413,0,0,1,.0057.0512.3541.3541,0,0,1-.02.0741L4.0989,2.18a.1877.1877,0,0,0-.0094.03.5063.5063,0,0,0-.0077.0648l-.0035.0371c.1587-.3575.1676-.3541.1748-.3511s.0158.0064-.111.3545l.0044-.008c.0111-.0208.0162-.0318.02-.04l.01-.0187a.1477.1477,0,0,1,.0479-.0523.1294.1294,0,0,0,.041-.0435A.189.189,0,0,0,4.28,2.1207a.2163.2163,0,0,1,.0265-.0521c.0146-.0218.0284-.0368.048-.0394.0148-.002.0328.0028.0348.0129.0015.0075-.0056.0116-.0146.0169a.1.1,0,0,0-.0265.02.06.06,0,0,0-.0149.0377.1416.1416,0,0,1-.0144.05.3534.3534,0,0,1-.0465.061L4.249,2.253a.1922.1922,0,0,0-.02.0242.498.498,0,0,0-.0318.0566L4.18,2.367c.2835-.27.29-.2629.2959-.2575s.012.0119-.2383.2851l.0071-.0057c.0182-.0151.0272-.0232.0337-.0292l.016-.0136a.1474.1474,0,0,1,.0642-.03.1287.1287,0,0,0,.0546-.0246.1856.1856,0,0,0,.0261-.0243.2185.2185,0,0,1,.0444-.038.0742.0742,0,0,1,.0594-.018c.0145.0038.0292.0152.0272.0253-.0015.0075-.01.0085-.02.01a.1048.1048,0,0,0-.0321.0084A.06.06,0,0,0,4.49,2.284a.1448.1448,0,0,1-.0323.04.3545.3545,0,0,1-.0663.0385L4.36,2.3777a.1956.1956,0,0,0-.0278.0147.4872.4872,0,0,0-.051.04l-.029.024c.365-.1406.3689-.1318.3719-.1247s.0066.0157-.3292.1722l.0087-.0025c.0227-.0069.0341-.0111.0424-.0141l.02-.0065a.1472.1472,0,0,1,.0708-.0031.1294.1294,0,0,0,.06-.0018A.1884.1884,0,0,0,4.53,2.4635a.2188.2188,0,0,1,.0555-.0181.0745.0745,0,0,1,.0618.0061c.0119.0091.0212.0252.0155.0338-.0042.0063-.0122.0042-.0222.0015a.1041.1041,0,0,0-.0329-.0045.06.06,0,0,0-.0372.0162.1438.1438,0,0,1-.0452.0248.3509.3509,0,0,1-.0761.01l-.0345.0019a.1894.1894,0,0,0-.0313.0029.5089.5089,0,0,0-.0625.0175l-.0359.0111c.3911.01.3912.0194.3913.0271s0,.017-.37.0332l.009.0009c.0235.0023.0357.0029.0445.0033l.0209.0016a.1483.1483,0,0,1,.0666.0242.127.127,0,0,0,.0559.0212.1793.1793,0,0,0,.0357.0013.2175.2175,0,0,1,.0583.0045.0745.0745,0,0,1,.0547.0293c.0076.013.01.0314.0014.0371l-.005.0016a.0315.0315,0,0,1-.0161-.0086.1011.1011,0,0,0-.0287-.0168.0605.0605,0,0,0-.0406.0007.1439.1439,0,0,1-.0512.0056.3477.3477,0,0,1-.0741-.02L4.4049,2.702a.193.193,0,0,0-.03-.0093A.5175.5175,0,0,0,4.31,2.6849l-.0372-.0034c.3576.1587.3541.1676.3511.1748L4.6172,2.86A2.23,2.23,0,0,1,4.27,2.7453l.008.0043c.0208.0111.0318.0163.04.02l.0187.01a.1468.1468,0,0,1,.0523.0478.128.128,0,0,0,.0436.041.1862.1862,0,0,0,.0324.0149.2092.2092,0,0,1,.0521.0265c.0218.0146.0368.0284.0394.0479.002.0149-.0028.0328-.0129.0348l-.002,0c-.0062,0-.01-.0066-.0149-.0147a.0986.0986,0,0,0-.02-.0265.06.06,0,0,0-.0378-.0149.1424.1424,0,0,1-.05-.0144.35.35,0,0,1-.0609-.0465L4.332,2.8522a.1764.1764,0,0,0-.0242-.02A.498.498,0,0,0,4.2512,2.8L4.218,2.7827c.27.2835.2629.29.2575.2959L4.4721,3.08c-.01,0-.05-.0271-.2816-.24l.0056.0071c.0151.0182.0232.0272.0292.0337l.0136.016a.1474.1474,0,0,1,.03.0642.1284.1284,0,0,0,.0246.0545.1869.1869,0,0,0,.0243.0262.213.213,0,0,1,.038.0444.0742.0742,0,0,1,.018.0594C4.37,3.16,4.36,3.1733,4.35,3.1733l-.0019,0c-.0074-.0015-.0086-.01-.01-.02A.1032.1032,0,0,0,4.33,3.121a.0607.0607,0,0,0-.0292-.0282.1407.1407,0,0,1-.04-.0322.351.351,0,0,1-.0386-.0663l-.0149-.0312a.1914.1914,0,0,0-.0147-.0279.5036.5036,0,0,0-.04-.0508l-.0241-.0291c.1406.3651.1318.3688.1247.3719l-.0022.0006c-.0078,0-.0284-.0261-.17-.33l.0025.0087c.007.0226.0111.034.0141.0424l.0065.02a.1485.1485,0,0,1,.0031.0708.1294.1294,0,0,0,.0018.06.1914.1914,0,0,0,.0125.0335.216.216,0,0,1,.0181.0555.0745.0745,0,0,1-.0061.0618.0414.0414,0,0,1-.0275.0172L4.1,3.2659c-.0064-.0043-.0043-.0122-.0016-.0223a.1033.1033,0,0,0,.0045-.0329.06.06,0,0,0-.0162-.0372.1446.1446,0,0,1-.0248-.0452.35.35,0,0,1-.01-.0759L4.05,3.0178a.19.19,0,0,0-.0029-.0314.5056.5056,0,0,0-.0175-.0623L4.0181,2.888c-.01.3911-.0194.3913-.0271.3914h0c-.0076,0-.017-.0049-.0329-.37l-.0009.0091c-.0023.0235-.0029.0356-.0033.0444l-.0016.021a.1487.1487,0,0,1-.0242.0666.1265.1265,0,0,0-.0212.0559.1791.1791,0,0,0-.0013.0357A.217.217,0,0,1,3.9008,3.2a.0744.0744,0,0,1-.0293.0548.05.05,0,0,1-.0236.0068.0155.0155,0,0,1-.0135-.0054c-.0042-.0064.0007-.0129.007-.0212a.1.1,0,0,0,.0168-.0286.06.06,0,0,0-.0007-.0406.1439.1439,0,0,1-.0056-.0512.3466.3466,0,0,1,.02-.0742L3.883,3.008a.19.19,0,0,0,.0093-.03A.5.5,0,0,0,3.9,2.9134l.0036-.0373c-.1443.3248-.1648.3517-.1727.3517l-.0022-.0006c-.007-.0028-.0157-.0064.111-.3545l-.0043.0079c-.0111.0209-.0163.0319-.02.04l-.01.0187a.1486.1486,0,0,1-.0478.0523.1275.1275,0,0,0-.041.0435.19.19,0,0,0-.0149.0325.2151.2151,0,0,1-.0264.0521c-.0147.0217-.0285.0367-.048.0394l-.0068,0c-.0131,0-.0263-.0047-.028-.0133s.0055-.0117.0145-.0169a.1007.1007,0,0,0,.0265-.02.06.06,0,0,0,.0149-.0378.144.144,0,0,1,.0144-.05A.3462.3462,0,0,1,3.71,2.961l.0231-.0258a.1827.1827,0,0,0,.02-.0242.5072.5072,0,0,0,.0319-.0567l.0175-.0331C3.56,3.0518,3.52,3.08,3.51,3.08l-.0033-.0016c-.0054-.0054-.0121-.012.2382-.2851l-.0071.0057c-.0182.015-.0272.0232-.0337.0292l-.016.0136a.1474.1474,0,0,1-.0642.03.128.128,0,0,0-.0545.0245.186.186,0,0,0-.0261.0244.2185.2185,0,0,1-.0444.038.0923.0923,0,0,1-.0483.0194L3.4392,2.977c-.0145-.0039-.0293-.0152-.0273-.0253.0015-.0075.01-.0086.02-.01a.1006.1006,0,0,0,.0321-.0084.06.06,0,0,0,.0282-.0291.1427.1427,0,0,1,.0322-.04.358.358,0,0,1,.0663-.0385l.0312-.0149A.2017.2017,0,0,0,3.65,2.7958a.5077.5077,0,0,0,.051-.04L3.73,2.7317a2.32,2.32,0,0,1-.3654.128l-.0065-.0033c-.0029-.007-.0066-.0157.3292-.1722l-.0087.0025c-.0226.0069-.034.011-.0424.014l-.02.0065a.1488.1488,0,0,1-.0708.0032.1267.1267,0,0,0-.06.0018.18.18,0,0,0-.0334.0124.2107.2107,0,0,1-.0556.0181.1509.1509,0,0,1-.03.0035.0511.0511,0,0,1-.0322-.01c-.0119-.0091-.0212-.0252-.0154-.0338.0042-.0063.0121-.0042.0222-.0016a.1.1,0,0,0,.0329.0046A.06.06,0,0,0,3.4115,2.69a.1407.1407,0,0,1,.0452-.0248.3542.3542,0,0,1,.0759-.01l.0346-.0018A.201.201,0,0,0,3.5986,2.65a.5056.5056,0,0,0,.0623-.0175l.0014,0,.0346-.0107c-.391-.01-.3912-.0194-.3912-.0272S3.3056,2.5771,3.6757,2.561Z" fill="#fff"></path><path d="M4.0477,2.29c.0018-.0151.0024-.03.0031-.0455a.1726.1726,0,0,1,.008-.0457.2027.2027,0,0,1,.0191-.0418A.1964.1964,0,0,0,4.062,2.2a.1661.1661,0,0,0-.0047.0449c0,.0152.0008.0307,0,.0462s-.0022.03-.0041.0444l.013.0035.001-.0021.0059-.0628a.5.5,0,0,1,.0079-.0659.1869.1869,0,0,1,.01-.0312l.0113-.0322a.3521.3521,0,0,0,.0193-.0721.1366.1366,0,0,0-.0054-.0484.0683.0683,0,0,1,0-.0457.1121.1121,0,0,1,.018-.031L4.14,1.9366c-.0018-.0026-.0145-.0024-.0256.0041-.0143.0083-.02.0249-.0251.0489a.2061.2061,0,0,0-.0044.0563.189.189,0,0,1-.0014.0372.1365.1365,0,0,1-.0224.0592.14.14,0,0,0-.0229.0632l-.0016.02c0,.009-.001.0212-.0033.045-.002.02-.0044.04-.0071.06l.0142.0023C4.0436,2.3187,4.0462,2.3047,4.0477,2.29Z" fill="#f6b40e"></path><path d="M3.9845,2.3284l.0064-.171.0064.171.02.0012a3.8266,3.8266,0,0,0-.0265-.4062,3.8438,3.8438,0,0,0-.0193.4027l.0009.0028Z" fill="#f6b40e"></path><path d="M4.0755,2.342l.0113.004.0712-.1554-.0594.16.0182.0089a3.8773,3.8773,0,0,0,.1309-.3853,3.7939,3.7939,0,0,0-.1719.3647Z" fill="#f6b40e"></path><path d="M4.1369,2.3718c.0081-.012.0158-.024.0227-.0365s.0138-.0269.02-.0409a.17.17,0,0,1,.0249-.0391.1953.1953,0,0,1,.0336-.0313.1962.1962,0,0,0-.0311.0333.1677.1677,0,0,0-.0215.04c-.0054.0141-.011.0287-.0175.0427s-.0134.0266-.0208.0394l.0107.0083L4.16,2.3858,4.19,2.33a.52.52,0,0,1,.0323-.0575.2006.2006,0,0,1,.0209-.0251l.0228-.0255a.3494.3494,0,0,0,.0454-.0592.1339.1339,0,0,0,.0136-.0468.0678.0678,0,0,1,.017-.0424A.1113.1113,0,0,1,4.37,2.0515l.01-.0077c-.0006-.0031-.0124-.0077-.0252-.0061-.0164.0023-.0282.0153-.0419.0357a.209.209,0,0,0-.0256.05.1989.1989,0,0,1-.0155.0338.1375.1375,0,0,1-.0433.0462.14.14,0,0,0-.0455.05l-.0092.0181c-.0038.0081-.009.0192-.02.04-.01.0178-.0193.0354-.0294.0526Z" fill="#f6b40e"></path><path d="M3.923,2.337l.014-.0033c-.0027-.0142-.0058-.0281-.01-.0419s-.0093-.0287-.0146-.0432a.1726.1726,0,0,1-.01-.0453.2021.2021,0,0,1,.0016-.046.1985.1985,0,0,0,.0016.0456.1713.1713,0,0,0,.0128.0433c.0062.0138.0126.0281.0179.0426s.0093.0284.0131.0426L3.963,2.33V2.3273l-.0187-.0605a.5233.5233,0,0,1-.0178-.0636.1951.1951,0,0,1-.003-.0326l-.0018-.034a.3473.3473,0,0,0-.01-.074A.1318.1318,0,0,0,3.8884,2.02a.0681.0681,0,0,1-.0179-.042.1129.1129,0,0,1,.0048-.0356l.002-.0128c-.0026-.0017-.0143.0033-.0221.0135a.0666.0666,0,0,0-.0045.0549.2091.2091,0,0,0,.0175.0536.1961.1961,0,0,1,.013.0349.1366.1366,0,0,1,.002.0633.14.14,0,0,0,.0029.0672l.0063.0193c.003.0084.0072.02.0142.0427C3.9125,2.2983,3.918,2.3178,3.923,2.337Z" fill="#f6b40e"></path><path d="M3.7688,2.4482c-.012-.0081-.0241-.0159-.0367-.0228s-.0269-.0137-.0409-.02a.178.178,0,0,1-.0391-.025.1953.1953,0,0,1-.0313-.0336.196.196,0,0,0,.0333.0311.17.17,0,0,0,.04.0215c.0142.0054.0288.0109.0427.0175s.0268.0135.04.0209l.0082-.0107-.0017-.0018-.0559-.03a.5051.5051,0,0,1-.0576-.0324.2023.2023,0,0,1-.0252-.0209L3.6185,2.32a.3449.3449,0,0,0-.0593-.0454.1355.1355,0,0,0-.0468-.0136.068.068,0,0,1-.0424-.017.1137.1137,0,0,1-.0217-.0285l-.0076-.01c-.0032.0006-.0078.0124-.0061.0252.0022.0164.0153.0282.0357.042a.2113.2113,0,0,0,.05.0255.196.196,0,0,1,.0339.0155.138.138,0,0,1,.0461.0433.14.14,0,0,0,.05.0455l.0181.0092c.0081.0038.0192.009.04.02.0178.01.0356.0194.0528.03Z" fill="#f6b40e"></path><path d="M3.7906,2.42l.008-.0088-.1165-.1255.1256.1164.0151-.0134A3.8224,3.8224,0,0,0,3.5167,2.12a3.84,3.84,0,0,0,.2712.2983Z" fill="#f6b40e"></path><path d="M3.8725,2.3561l.0108-.0051-.06-.16.0713.1555L3.9142,2.34a3.8849,3.8849,0,0,0-.18-.3651,3.8112,3.8112,0,0,0,.1363.3794Z" fill="#f6b40e"></path><path d="M4.1656,2.3935l.0088.0081L4.3,2.2853l-.1163.1253.0134.0152A3.8349,3.8349,0,0,0,4.4652,2.12a3.8478,3.8478,0,0,0-.2983.2711Z" fill="#f6b40e"></path><path d="M3.83,2.3827l.0116-.0084c-.008-.0122-.0161-.0239-.0251-.0351s-.02-.023-.03-.0343a.1775.1775,0,0,1-.0265-.038.2.2,0,0,1-.0161-.0431.1968.1968,0,0,0,.0189.0415A.1626.1626,0,0,0,3.791,2.3c.011.01.0224.0211.0328.0326s.02.0227.0285.0344l.0117-.0068-.0009-.0022-.04-.0487a.5064.5064,0,0,1-.0409-.052.1911.1911,0,0,1-.0152-.029l-.0148-.0307a.347.347,0,0,0-.0374-.0646.1316.1316,0,0,0-.038-.0305.0682.0682,0,0,1-.0327-.0319.111.111,0,0,1-.0091-.0347l-.0031-.0126c-.003-.0006-.0119.0085-.0152.0209a.0666.0666,0,0,0,.0169.0525A.207.207,0,0,0,3.67,2.14a.198.198,0,0,1,.0253.0272.1376.1376,0,0,1,.026.0577.1409.1409,0,0,0,.0285.061l.0131.0154c.0061.0066.0143.0157.03.0341C3.8052,2.3508,3.8178,2.3668,3.83,2.3827Z" fill="#f6b40e"></path><path d="M4.0112,2.6866,4.0041,2.69a.022.022,0,0,1-.0138.0043l-.0115-.0038a.0172.0172,0,0,0-.01-.0032c-.0013,0-.0046,0-.0164.0074l-.0206.0146a.1122.1122,0,0,1,.0261.0125l.008.0059.0114.0067a.0387.0387,0,0,0,.0257,0l.0109-.0072.01-.0079A.0713.0713,0,0,1,4.0471,2.71Q4.0258,2.6834,4.0112,2.6866Zm.0124.0237a.0363.0363,0,0,0-.0189.0007l-.0076.0036-.0089.0031H3.9867l-.0086-.0042L3.9724,2.71a.028.028,0,0,0-.0217,0l-.0024-.0014L3.95,2.7054a.0316.0316,0,0,1,.0244,0L3.98,2.71l.0067.0035.0082-.0026.0083-.0039a.04.04,0,0,1,.0207-.0008l.0015.0026Z" fill="#f6b40e"></path><path d="M3.8941,2.5417a.0736.0736,0,0,0-.0364.0123.0631.0631,0,0,0,.0365.0124.0158.0158,0,0,1,0-.0247Z" fill="#f6b40e"></path><path d="M3.9418,2.5569a.064.064,0,0,0-.0329-.0147.0156.0156,0,0,1,.0052.0118.0153.0153,0,0,1-.0059.0124C3.9294,2.5654,3.941,2.5611,3.9418,2.5569Z" fill="#f6b40e"></path><path d="M4.2513,2.54c.0142-.0027.0281-.0057.0419-.01s.0287-.0093.0432-.0146a.1727.1727,0,0,1,.0453-.01.2011.2011,0,0,1,.0459.0017.1978.1978,0,0,0-.0455.0015.1675.1675,0,0,0-.0433.0129c-.0138.0062-.028.0126-.0426.0178s-.0284.0094-.0426.0132l.0017.0134h.0024l.0605-.0186A.5034.5034,0,0,1,4.3818,2.53a.185.185,0,0,1,.0326-.003l.0341-.0019a.3447.3447,0,0,0,.074-.01.1322.1322,0,0,0,.0426-.0235.0682.0682,0,0,1,.042-.018.1126.1126,0,0,1,.0356.0049l.0128.002c.0018-.0027-.0033-.0143-.0135-.0221a.0666.0666,0,0,0-.0549-.0045.2052.2052,0,0,0-.0536.0175.1961.1961,0,0,1-.0349.013.138.138,0,0,1-.0633.002.14.14,0,0,0-.0672.0029l-.0193.0063c-.0084.003-.02.0072-.0427.0141-.0194.0059-.0389.0114-.0581.0164Z" fill="#f6b40e"></path><path d="M4.1241,2.554a.0731.0731,0,0,0-.0364-.0123.015.015,0,0,1,.0059.0123.0156.0156,0,0,1-.0059.0124A.0623.0623,0,0,0,4.1241,2.554Z" fill="#f6b40e"></path><path d="M3.7293,2.5941a.2616.2616,0,1,0,.2924-.26l-.0308-.0018A.2619.2619,0,0,0,3.7293,2.5941Zm.107-.0363-.0027-.0013V2.55a.0886.0886,0,0,1,.0651-.03.0864.0864,0,0,1,.0606.0291V2.556H3.954a.075.075,0,0,0-.115.0005Zm.1093-.0014c0,.0131-.0322.0145-.046.0145a.0576.0576,0,0,1-.046-.0162l0-.0027A.07.07,0,0,1,3.9,2.537C3.9227,2.537,3.9456,2.5513,3.9456,2.5564ZM3.9,2.5873a.0835.0835,0,0,1-.0485-.016l-.0006-.003.0026-.0007a.08.08,0,0,0,.0476.0153.0817.0817,0,0,0,.051-.02l.0027.0005,0,.0031a.0861.0861,0,0,1-.0533.02Zm.1507.1263a.0676.0676,0,0,0-.0256.01l-.01.0075-.0121.008-.012.0023a.041.041,0,0,1,.0356.03l-.0012.0027-.0024-.0013a.0367.0367,0,0,0-.0346-.0273.0372.0372,0,0,0-.0341.0294l-.0018.0016H3.9527l-.0012-.0028a.041.041,0,0,1,.0368-.0324l-.0125-.0023-.0124-.0073-.0079-.0057a.1056.1056,0,0,0-.0289-.0132l-.0039-.0011.0032-.0028A.1983.1983,0,0,1,3.95,2.691c.0112-.0068.0154-.0079.0182-.0079a.0208.0208,0,0,1,.0122.0036l.01.0034a.0188.0188,0,0,0,.0118-.0039l.0083-.0038c.0117-.0028.0254.0062.0418.0276l.0023.0031ZM4.13,2.5713a.0841.0841,0,0,1-.0486.016H4.08a.0858.0858,0,0,1-.0532-.02l0-.0031.0027-.0005a.0817.0817,0,0,0,.051.02.08.08,0,0,0,.0475-.0153l.0027.0007Zm-.0938-.0149c0-.0051.0229-.0194.0461-.0194a.07.07,0,0,1,.0454.015l0,.0027a.0573.0573,0,0,1-.0459.0162C4.0684,2.5709,4.0362,2.57,4.0362,2.5564Zm.1094.0014-.0027-.0013a.0811.0811,0,0,0-.06-.0271.0792.0792,0,0,0-.0554.0266H4.0225V2.55a.0866.0866,0,0,1,.0606-.0291.0878.0878,0,0,1,.0652.03v.0062ZM3.999,2.5439A.0573.0573,0,0,1,4.01,2.5144a.06.06,0,0,1,.023-.0187.09.09,0,0,1,.0265-.0079.103.103,0,0,1,.0272,0,.0874.0874,0,0,1,.0263.0082.1079.1079,0,0,1,.0414.0366.1723.1723,0,0,0-.0455-.0237.0976.0976,0,0,0-.0236-.0046l-.0059,0-.0059,0-.0121.0012a.0956.0956,0,0,0-.0231.0059.0549.0549,0,0,0-.0195.0127.05.05,0,0,0-.0106.0169.0933.0933,0,0,0-.0013.036.101.101,0,0,0,.0067.023.1208.1208,0,0,0,.0122.0234l-.0007.0062L4.0226,2.63,4.02,2.6285a.14.14,0,0,1-.0132-.0252.1285.1285,0,0,1-.0072-.025.1069.1069,0,0,1,0-.03Zm0,.1067.0078-.0056.0079-.0028.0077.0028.0072.0082.0021.0006.0034-.0012L4.04,2.6457a.0173.0173,0,0,0-.0051-.0191l.0086.0077a.0206.0206,0,0,1,.0019.0133L4.039,2.66l-.0061.0035-.008-.0009L4.02,2.6575l-.003-.0028-.0022-.0005-.0018.0011-.01.0072-.0122.0029a.0373.0373,0,0,1-.0119-.0017l-.0111-.0064-.0033-.0031,0,0H3.9632l-.0021.0015-.004.0046L3.95,2.6634l-.0069-.0022-.0081-.0106a.0192.0192,0,0,1,0-.0136l.0078-.0085-.0048.01.0017.01.0064.0058.0032,0,.0018-.0014.0029-.0044L3.96,2.643l.0043-.0008.0046.0013.0051.0038.0076.0039.0087.0011Zm-.13-.1549a.0868.0868,0,0,1,.0262-.0082.103.103,0,0,1,.0272,0,.0892.0892,0,0,1,.0266.0079.0611.0611,0,0,1,.023.0187.0583.0583,0,0,1,.01.023.1069.1069,0,0,1,.0017.0409.1217.1217,0,0,1-.0072.025.14.14,0,0,1-.0132.0252L3.96,2.63l-.0024-.0009-.0007-.0062A.1212.1212,0,0,0,3.97,2.6a.1126.1126,0,0,0,.0067-.023.0938.0938,0,0,0,0-.0275l-.0008-.0036a.0506.0506,0,0,0-.0122-.0218.0552.0552,0,0,0-.02-.0127.0944.0944,0,0,0-.0231-.0059L3.9085,2.504l-.0059,0-.0059,0a.0976.0976,0,0,0-.0236.0046.1718.1718,0,0,0-.0454.0237A.1072.1072,0,0,1,3.8691,2.4957Z" fill="#f6b40e"></path><path d="M4.073,2.5422a.0631.0631,0,0,0-.0329.0147c.0007.0042.0124.0085.0335.0095a.0156.0156,0,0,1-.0059-.0124A.0153.0153,0,0,1,4.073,2.5422Z" fill="#f6b40e"></path><path d="M3.7389,2.51l.0041-.0112L3.5875,2.427l.16.0595.0088-.0182a3.8957,3.8957,0,0,0-.3854-.131,3.7783,3.7783,0,0,0,.3647.1719Z" fill="#f6b40e"></path><path d="M4.229,2.4756l.0051.0108.16-.0594-.1553.0712.0065.0192a3.8643,3.8643,0,0,0,.3651-.18,3.8112,3.8112,0,0,0-.3794.1363Z" fill="#f6b40e"></path><path d="M4.2109,2.4446c.012-.008.0237-.0161.0349-.0251s.023-.02.0344-.03a.1715.1715,0,0,1,.0379-.0266.2.2,0,0,1,.0431-.0161.202.202,0,0,0-.0415.0189.166.166,0,0,0-.035.0285c-.01.011-.0211.0223-.0326.0327s-.0226.02-.0343.0285l.0068.0117.0021-.0008.0489-.04a.502.502,0,0,1,.0519-.0407A.1873.1873,0,0,1,4.3564,2.37l.0308-.0147a.3542.3542,0,0,0,.0646-.0374.1329.1329,0,0,0,.03-.0381.0681.0681,0,0,1,.0319-.0326.111.111,0,0,1,.0347-.0091l.0126-.0031c.0007-.0031-.0084-.0119-.0209-.0152a.0666.0666,0,0,0-.0524.0168.2085.2085,0,0,0-.0429.0367.1864.1864,0,0,1-.0272.0253.1365.1365,0,0,1-.0578.0261.1407.1407,0,0,0-.0609.0284l-.0154.0132c-.0067.006-.0157.0143-.0341.03-.0155.0127-.0315.0253-.0474.0373Z" fill="#f6b40e"></path><path d="M4.2131,2.74c.012.0081.024.0159.0366.0228s.0269.0137.0409.02a.17.17,0,0,1,.0391.0249.2045.2045,0,0,1,.0314.0337.2.2,0,0,0-.0334-.0311.1677.1677,0,0,0-.04-.0215c-.0142-.0054-.0287-.011-.0426-.0175s-.0269-.0136-.04-.021l-.0082.0107.0018.0018.056.03a.52.52,0,0,1,.0575.0323.2009.2009,0,0,1,.0252.0209l.0254.0228a.3551.3551,0,0,0,.0592.0454.1333.1333,0,0,0,.0468.0135.0683.0683,0,0,1,.0424.0171.11.11,0,0,1,.0217.0285l.0077.01c.0031-.0007.0078-.0124.006-.0252-.0022-.0165-.0152-.0283-.0356-.042a.206.206,0,0,0-.05-.0255.1989.1989,0,0,1-.0338-.0155.1366.1366,0,0,1-.0462-.0434.14.14,0,0,0-.05-.0454l-.018-.0092c-.0082-.0038-.0192-.009-.04-.02-.0179-.01-.0356-.0195-.0528-.03Z" fill="#f6b40e"></path><path d="M4.1913,2.7686l-.008.0088L4.3,2.9029l-.1255-.1165L4.1591,2.8a3.8914,3.8914,0,0,0,.306.2685A3.8063,3.8063,0,0,0,4.194,2.77Z" fill="#f6b40e"></path><path d="M4.2429,2.6787l-.004.0112.1554.0713-.16-.0595L4.2251,2.72a3.8483,3.8483,0,0,0,.3854.1309,3.8257,3.8257,0,0,0-.3647-.1719Z" fill="#f6b40e"></path><path d="M4.152,2.8054,4.14,2.8139c.0079.0121.0161.0239.0251.0351s.02.023.03.0343a.1721.1721,0,0,1,.0266.038.2036.2036,0,0,1,.0161.0431.2049.2049,0,0,0-.0189-.0415.1692.1692,0,0,0-.0285-.0351c-.011-.01-.0223-.0211-.0327-.0325A.44.44,0,0,1,4.13,2.8209l-.0117.0068.0008.0022.0406.0489A.5269.5269,0,0,1,4.2,2.9306a.1968.1968,0,0,1,.0153.0289L4.23,2.99a.347.347,0,0,0,.0374.0646.1325.1325,0,0,0,.0381.03.0688.0688,0,0,1,.0326.032.11.11,0,0,1,.0091.0347l.0031.0126c.003.0007.012-.0085.0152-.021a.0667.0667,0,0,0-.0168-.0524.21.21,0,0,0-.0367-.0428.1992.1992,0,0,1-.0253-.0273.1367.1367,0,0,1-.0261-.0577.14.14,0,0,0-.0284-.061L4.2189,2.887c-.006-.0066-.0143-.0156-.0294-.0341C4.1766,2.8373,4.164,2.8214,4.152,2.8054Z" fill="#f6b40e"></path><path d="M4.2521,2.6439c.0142.0029.0282.0054.0425.007s.03.0024.0455.0031a.1726.1726,0,0,1,.0457.008.1976.1976,0,0,1,.0418.0191.2.2,0,0,0-.0427-.016A.17.17,0,0,0,4.34,2.66c-.0152,0-.0308.0009-.0461,0s-.03-.0022-.0445-.0042L4.2459,2.67l.0022.001.0628.0059a.4942.4942,0,0,1,.0657.0079.1955.1955,0,0,1,.0313.01l.0322.0114a.35.35,0,0,0,.0721.0192.1321.1321,0,0,0,.0484-.0054.0683.0683,0,0,1,.0457-.0005.1106.1106,0,0,1,.031.0181l.0111.0067c.0026-.0017.0024-.0144-.004-.0255-.0084-.0144-.025-.02-.049-.0252a.2052.2052,0,0,0-.0563-.0043.2062.2062,0,0,1-.0372-.0014.1377.1377,0,0,1-.0592-.0224.14.14,0,0,0-.0632-.023l-.02-.0016c-.0089,0-.0212-.001-.0449-.0032-.02-.002-.04-.0044-.06-.0071Z" fill="#f6b40e"></path><path d="M3.73,2.5443c-.0142-.0029-.0283-.0055-.0425-.007s-.03-.0024-.0455-.0031a.1726.1726,0,0,1-.0457-.008.2059.2059,0,0,1-.0419-.0191.2064.2064,0,0,0,.0428.016.17.17,0,0,0,.0449.0047c.0151-.0005.0307-.001.0461,0s.03.0022.0445.0041l.0035-.013-.0022-.001-.063-.0059a.4941.4941,0,0,1-.0656-.0079.1869.1869,0,0,1-.0312-.01l-.0323-.0113A.3573.3573,0,0,0,3.47,2.4636a.1366.1366,0,0,0-.0484.0054.0675.0675,0,0,1-.0456.0005.11.11,0,0,1-.0311-.018l-.011-.0068c-.0027.0018-.0025.0145.004.0256.0083.0144.0249.02.049.0252A.2128.2128,0,0,0,3.4427,2.5a.1888.1888,0,0,1,.0372.0014.1367.1367,0,0,1,.0592.0224.1419.1419,0,0,0,.0632.023l.02.0015c.0089.0005.0211.001.0449.0033.02.002.04.0043.06.0071Z" fill="#f6b40e"></path><path d="M4.2561,2.5758l.0006.0119.1709.0064-.1709.0064-.0012.02a3.8974,3.8974,0,0,0,.4061-.0265,3.8079,3.8079,0,0,0-.4027-.0193Z" fill="#f6b40e"></path><path d="M4.1093,2.8321l-.0108.0051.06.16-.0713-.1554-.0191.0066a3.8515,3.8515,0,0,0,.18.365,3.8337,3.8337,0,0,0-.1363-.3794Z" fill="#f6b40e"></path><path d="M4.0589,2.8511l-.014.0034c.0027.0142.0057.0281.01.0419s.0093.0287.0146.0432a.172.172,0,0,1,.01.0452.1964.1964,0,0,1-.0017.046.1986.1986,0,0,0-.0015-.0456.17.17,0,0,0-.0129-.0432c-.0062-.0139-.0126-.0281-.0178-.0426s-.0094-.0284-.0132-.0426l-.0134.0017v.0023l.0187.0608a.4865.4865,0,0,1,.0177.0634.1951.1951,0,0,1,.0031.0325l.0018.0341a.3563.3563,0,0,0,.01.074.1329.1329,0,0,0,.0235.0427.0676.0676,0,0,1,.0179.042.11.11,0,0,1-.0048.0356l-.002.0128c.0027.0017.0143-.0033.0221-.0136A.0663.0663,0,0,0,4.1311,3.19a.2075.2075,0,0,0-.0175-.0537.1948.1948,0,0,1-.013-.0348.1377.1377,0,0,1-.0019-.0633.1411.1411,0,0,0-.003-.0672L4.09,2.952c-.0031-.0084-.0072-.02-.0142-.0428C4.0694,2.89,4.0639,2.8705,4.0589,2.8511Z" fill="#f6b40e"></path><path d="M3.7529,2.7125l-.005-.0108-.16.0595L3.743,2.69l-.0066-.0191a3.8476,3.8476,0,0,0-.3651.18,3.8568,3.8568,0,0,0,.3794-.1363Z" fill="#f6b40e"></path><path d="M3.7711,2.7435c-.0121.008-.0238.0161-.0351.0251s-.0229.02-.0343.03a.1791.1791,0,0,1-.038.0266.2013.2013,0,0,1-.0431.016.1923.1923,0,0,0,.0415-.0189.1687.1687,0,0,0,.0351-.0284c.01-.011.0211-.0224.0325-.0327s.0227-.02.0344-.0286L3.7573,2.721l-.0022.0009-.0488.04a.5063.5063,0,0,1-.0519.0408.2054.2054,0,0,1-.0289.0152l-.0308.0148a.347.347,0,0,0-.0646.0374.131.131,0,0,0-.03.038.0679.0679,0,0,1-.032.0326A.1082.1082,0,0,1,3.433,2.95L3.42,2.9534c-.0006.0031.0085.0119.021.0152a.0664.0664,0,0,0,.0524-.0169.21.21,0,0,0,.0428-.0366A.1992.1992,0,0,1,3.5639,2.89a.1376.1376,0,0,1,.0577-.026.1407.1407,0,0,0,.061-.0285l.0154-.0131c.0066-.0061.0156-.0143.0341-.0295.0156-.0128.0315-.0254.0475-.0374Z" fill="#f6b40e"></path><path d="M3.845,2.8162c-.0081.012-.0159.0241-.0228.0367s-.0137.0269-.02.0409a.174.174,0,0,1-.0249.0391.2.2,0,0,1-.0337.0313.196.196,0,0,0,.0311-.0333.17.17,0,0,0,.0216-.04c.0053-.0142.0109-.0288.0175-.0427a.4391.4391,0,0,1,.0209-.04l-.0107-.0082-.0018.0017-.03.0559a.4885.4885,0,0,1-.0324.0576.1939.1939,0,0,1-.0209.0252l-.0228.0254a.3489.3489,0,0,0-.0454.0593.1328.1328,0,0,0-.0135.0468.0692.0692,0,0,1-.017.0424.114.114,0,0,1-.0286.0217l-.01.0077c.0006.0031.0125.0077.0252.006.0164-.0022.0283-.0153.042-.0356a.2059.2059,0,0,0,.0255-.05A.1955.1955,0,0,1,3.71,3.0307a.1376.1376,0,0,1,.0434-.0462.14.14,0,0,0,.0454-.05l.0092-.0181c.0038-.0081.009-.0192.02-.04.01-.0178.0195-.0356.03-.0528Z" fill="#f6b40e"></path><path d="M3.8164,2.7944l-.0087-.008-.1256.1165.1165-.1255-.0135-.0152a3.9006,3.9006,0,0,0-.2685.3061,3.8256,3.8256,0,0,0,.2984-.2712Z" fill="#f6b40e"></path><path d="M3.7257,2.6124l0-.0119-.171-.0064.171-.0064.0012-.02A3.8687,3.8687,0,0,0,3.32,2.594a3.8343,3.8343,0,0,0,.4027.0192Z" fill="#f6b40e"></path><path d="M3.7305,2.648c-.0142.0028-.0281.0058-.0419.01s-.0287.0093-.0432.0146a.1717.1717,0,0,1-.0453.01.2013.2013,0,0,1-.0459-.0016A.1987.1987,0,0,0,3.6,2.6792a.1673.1673,0,0,0,.0433-.0128c.0138-.0062.028-.0126.0425-.0178s.0284-.0094.0427-.0132L3.7265,2.622H3.7241L3.6649,2.64l-.0014,0A.4994.4994,0,0,1,3.6,2.6584a.194.194,0,0,1-.0325.003l-.0341.0019a.3427.3427,0,0,0-.074.01.1329.1329,0,0,0-.0427.0235.0687.0687,0,0,1-.042.0179A.1147.1147,0,0,1,3.3392,2.71l-.0128-.002c-.0018.0026.0032.0143.0135.0221a.0669.0669,0,0,0,.0549.0045.2119.2119,0,0,0,.0536-.0175.1932.1932,0,0,1,.0349-.013.1375.1375,0,0,1,.0632-.002.14.14,0,0,0,.0673-.0029l.0192-.0063c.0084-.003.02-.0072.0428-.0142.0192-.0058.0387-.0113.0581-.0164Z" fill="#f6b40e"></path><path d="M3.9973,2.86l-.0064.171L3.9845,2.86l-.02-.0012a3.9049,3.9049,0,0,0,.0265.4062A3.7753,3.7753,0,0,0,4.01,2.8621l-.0009-.0028Z" fill="#f6b40e"></path><path d="M3.9341,2.8977c-.0018.0151-.0024.03-.003.0456a.1768.1768,0,0,1-.0081.0456.2007.2007,0,0,1-.0191.0419.2021.2021,0,0,0,.016-.0427.17.17,0,0,0,.0047-.045c0-.0151-.0009-.0307,0-.0461s.0022-.03.0042-.0445L3.9155,2.849l-.0009.0022-.006.063a.476.476,0,0,1-.0079.0656.1988.1988,0,0,1-.01.0313L3.88,3.0433a.3438.3438,0,0,0-.0193.0721.1321.1321,0,0,0,.0054.0484.0681.0681,0,0,1,.0005.0456.1113.1113,0,0,1-.0181.0311l-.0067.0111c.0017.0026.0144.0024.0255-.0041.0144-.0083.02-.0249.0252-.049a.21.21,0,0,0,.0044-.0562.1958.1958,0,0,1,.0013-.0372A.1372.1372,0,0,1,3.92,3.0459a.1407.1407,0,0,0,.023-.0632l.0016-.02c0-.0089.001-.0211.0033-.0449.0019-.02.0043-.04.007-.06l-.0142-.0023C3.9382,2.8694,3.9357,2.8835,3.9341,2.8977Z" fill="#f6b40e"></path><path d="M3.9064,2.8461l-.0113-.004-.0713.1554.06-.16-.0182-.0089a3.872,3.872,0,0,0-.1309.3854,3.842,3.842,0,0,0,.1719-.3647Z" fill="#f6b40e"></path><path d="M3.6969,2.6213l-.0346.0107-.0014,0a.5056.5056,0,0,1-.0623.0175.201.201,0,0,1-.0314.0029l-.0346.0018a.3542.3542,0,0,0-.0759.01.1407.1407,0,0,0-.0452.0248.06.06,0,0,1-.0372.0162.1.1,0,0,1-.0329-.0046c-.01-.0026-.018-.0047-.0222.0016-.0058.0086.0035.0247.0154.0338a.0511.0511,0,0,0,.0322.01.1509.1509,0,0,0,.03-.0035.2107.2107,0,0,0,.0556-.0181.18.18,0,0,1,.0334-.0124.1267.1267,0,0,1,.06-.0018.1488.1488,0,0,0,.0708-.0032l.02-.0065c.0084-.003.02-.0071.0424-.014l.0087-.0025c-.3358.1565-.3321.1652-.3292.1722l.0065.0033a2.32,2.32,0,0,0,.3654-.128l-.0289.0239a.5077.5077,0,0,1-.051.04.2017.2017,0,0,1-.0279.0147l-.0312.0149a.358.358,0,0,0-.0663.0385.1427.1427,0,0,0-.0322.04.06.06,0,0,1-.0282.0291.1006.1006,0,0,1-.0321.0084c-.01.0014-.0185.0025-.02.01-.002.01.0128.0214.0273.0253l.0111.0014a.0923.0923,0,0,0,.0483-.0194.2185.2185,0,0,0,.0444-.038.186.186,0,0,1,.0261-.0244.128.128,0,0,1,.0545-.0245.1474.1474,0,0,0,.0642-.03l.016-.0136c.0065-.006.0155-.0142.0337-.0292l.0071-.0057c-.25.2731-.2436.28-.2382.2851L3.51,3.08c.01,0,.05-.0285.2926-.2591l-.0175.0331a.5072.5072,0,0,1-.0319.0567.1827.1827,0,0,1-.02.0242L3.71,2.961a.3462.3462,0,0,0-.0465.0609.144.144,0,0,0-.0144.05.06.06,0,0,1-.0149.0378.1007.1007,0,0,1-.0265.02c-.009.0052-.016.0094-.0145.0169s.0149.0133.028.0133l.0068,0c.02-.0027.0333-.0177.048-.0394a.2151.2151,0,0,0,.0264-.0521A.19.19,0,0,1,3.717,3.035a.1275.1275,0,0,1,.041-.0435.1486.1486,0,0,0,.0478-.0523l.01-.0187c.0038-.008.009-.019.02-.04L3.84,2.8727c-.1267.3481-.118.3517-.111.3545l.0022.0006c.0079,0,.0284-.0269.1727-.3517L3.9,2.9134a.5.5,0,0,1-.0077.0645.19.19,0,0,1-.0093.03l-.0115.0326a.3466.3466,0,0,0-.02.0742.1439.1439,0,0,0,.0056.0512.06.06,0,0,1,.0007.0406.1.1,0,0,1-.0168.0286c-.0063.0083-.0112.0148-.007.0212a.0155.0155,0,0,0,.0135.0054.05.05,0,0,0,.0236-.0068A.0744.0744,0,0,0,3.9008,3.2a.217.217,0,0,0,.0045-.0582.1791.1791,0,0,1,.0013-.0357A.1265.1265,0,0,1,3.9278,3.05a.1487.1487,0,0,0,.0242-.0666l.0016-.021c0-.0088.001-.0209.0033-.0444l.0009-.0091c.0159.3652.0253.37.0329.37h0c.0077,0,.0173,0,.0271-.3914l.0111.0361a.5056.5056,0,0,1,.0175.0623.19.19,0,0,1,.0029.0314l.0019.0346a.35.35,0,0,0,.01.0759.1446.1446,0,0,0,.0248.0452.06.06,0,0,1,.0162.0372.1033.1033,0,0,1-.0045.0329c-.0027.01-.0048.018.0016.0223l.0062.0017A.0414.0414,0,0,0,4.1335,3.25.0745.0745,0,0,0,4.14,3.1886a.216.216,0,0,0-.0181-.0555A.1914.1914,0,0,1,4.109,3.1a.1294.1294,0,0,1-.0018-.06.1485.1485,0,0,0-.0031-.0708l-.0065-.02c-.003-.0084-.0071-.02-.0141-.0424L4.081,2.898c.1416.3037.1622.33.17.33l.0022-.0006c.0071-.0031.0159-.0068-.1247-.3719l.0241.0291a.5036.5036,0,0,1,.04.0508.1914.1914,0,0,1,.0147.0279l.0149.0312a.351.351,0,0,0,.0386.0663.1407.1407,0,0,0,.04.0322A.0607.0607,0,0,1,4.33,3.121a.1032.1032,0,0,1,.0084.0322c.0013.01.0025.0184.01.02l.0019,0c.01,0,.02-.0138.0234-.0274a.0742.0742,0,0,0-.018-.0594.213.213,0,0,0-.038-.0444.1869.1869,0,0,1-.0243-.0262.1284.1284,0,0,1-.0246-.0545.1474.1474,0,0,0-.03-.0642l-.0136-.016c-.006-.0065-.0141-.0155-.0292-.0337L4.1905,2.84c.2321.2128.2717.24.2816.24l.0034-.0017c.0054-.0055.0121-.0124-.2575-.2959L4.2512,2.8a.498.498,0,0,1,.0566.0318.1764.1764,0,0,1,.0242.02l.0258.0231a.35.35,0,0,0,.0609.0465.1424.1424,0,0,0,.05.0144.06.06,0,0,1,.0378.0149.0986.0986,0,0,1,.02.0265c.0048.0081.0087.0148.0149.0147l.002,0c.01-.002.0149-.02.0129-.0348-.0026-.0195-.0176-.0333-.0394-.0479a.2092.2092,0,0,0-.0521-.0265.1862.1862,0,0,1-.0324-.0149.128.128,0,0,1-.0436-.041.1468.1468,0,0,0-.0523-.0478l-.0187-.01c-.008-.0038-.019-.009-.04-.02L4.27,2.7453a2.23,2.23,0,0,0,.3477.1145l.0068-.0035c.003-.0072.0065-.0161-.3511-.1748l.0372.0034a.5175.5175,0,0,1,.0647.0078.193.193,0,0,1,.03.0093l.0326.0115a.3477.3477,0,0,0,.0741.02.1439.1439,0,0,0,.0512-.0056.0605.0605,0,0,1,.0406-.0007.1011.1011,0,0,1,.0287.0168.0315.0315,0,0,0,.0161.0086l.005-.0016c.0086-.0057.0062-.0241-.0014-.0371a.0745.0745,0,0,0-.0547-.0293A.2175.2175,0,0,0,4.5388,2.68a.1793.1793,0,0,1-.0357-.0013.127.127,0,0,1-.0559-.0212.1483.1483,0,0,0-.0666-.0242L4.36,2.6314c-.0088,0-.021-.001-.0445-.0033l-.009-.0009c.37-.0162.37-.0255.37-.0332s0-.0173-.3913-.0271l.0359-.0111a.5089.5089,0,0,1,.0625-.0175.1894.1894,0,0,1,.0313-.0029l.0345-.0019a.3509.3509,0,0,0,.0761-.01A.1438.1438,0,0,0,4.57,2.4985a.06.06,0,0,1,.0372-.0162.1041.1041,0,0,1,.0329.0045c.01.0027.018.0048.0222-.0015.0057-.0086-.0036-.0247-.0155-.0338a.0745.0745,0,0,0-.0618-.0061.2188.2188,0,0,0-.0555.0181.1884.1884,0,0,1-.0335.0125.1294.1294,0,0,1-.06.0018.1472.1472,0,0,0-.0708.0031l-.02.0065c-.0083.003-.02.0072-.0424.0141l-.0087.0025c.3358-.1565.3322-.1652.3292-.1722s-.0069-.0159-.3719.1247l.029-.024a.4872.4872,0,0,1,.051-.04A.1956.1956,0,0,1,4.36,2.3777l.0312-.0149a.3545.3545,0,0,0,.0663-.0385.1448.1448,0,0,0,.0323-.04.06.06,0,0,1,.0282-.0292A.1048.1048,0,0,1,4.55,2.2464c.01-.0014.0184-.0024.02-.01.002-.01-.0127-.0215-.0272-.0253a.0742.0742,0,0,0-.0594.018.2185.2185,0,0,0-.0444.038.1856.1856,0,0,1-.0261.0243.1287.1287,0,0,1-.0546.0246.1474.1474,0,0,0-.0642.03L4.278,2.36c-.0065.006-.0155.0141-.0337.0292l-.0071.0057c.25-.2732.2437-.28.2383-.2851s-.0124-.0122-.2959.2575l.0175-.0332a.498.498,0,0,1,.0318-.0566.1922.1922,0,0,1,.02-.0242l.0231-.0257a.3534.3534,0,0,0,.0465-.061.1416.1416,0,0,0,.0144-.05.06.06,0,0,1,.0149-.0377.1.1,0,0,1,.0265-.02c.009-.0053.0161-.0094.0146-.0169-.002-.01-.02-.0149-.0348-.0129-.02.0026-.0334.0176-.048.0394a.2163.2163,0,0,0-.0265.0521.189.189,0,0,1-.0148.0325.1294.1294,0,0,1-.041.0435.1477.1477,0,0,0-.0479.0523l-.01.0187c-.0038.008-.0089.019-.02.04l-.0044.008c.1268-.3481.1181-.3517.111-.3545s-.0161-.0064-.1748.3511l.0035-.0371A.5063.5063,0,0,1,4.09,2.21a.1877.1877,0,0,1,.0094-.03L4.11,2.1475a.3541.3541,0,0,0,.02-.0741.1413.1413,0,0,0-.0057-.0512.06.06,0,0,1-.0007-.0406A.106.106,0,0,1,4.14,1.9529c.0063-.0082.0113-.0148.0071-.0211-.0058-.0085-.0242-.0061-.0372.0014a.0745.0745,0,0,0-.0292.0547.2136.2136,0,0,0-.0045.0583.1955.1955,0,0,1-.0013.0357.13.13,0,0,1-.0212.0559.1471.1471,0,0,0-.0242.0666l-.0017.0209c0,.0089-.001.021-.0032.0445l-.001.009c-.0161-.37-.0257-.37-.0331-.37s-.0174,0-.0272.3913l-.011-.0358a.4979.4979,0,0,1-.0176-.0626A.2.2,0,0,1,3.9322,2.17L3.93,2.1359A.3644.3644,0,0,0,3.92,2.06a.1437.1437,0,0,0-.0249-.0452.06.06,0,0,1-.0162-.0372.1011.1011,0,0,1,.0046-.0329c.0026-.01.0048-.018-.0016-.0222-.0086-.0057-.0247.0036-.0338.0155A.0745.0745,0,0,0,3.8423,2a.211.211,0,0,0,.0181.0555.1884.1884,0,0,1,.0125.0335.1294.1294,0,0,1,.0018.06.1472.1472,0,0,0,.0031.0708l.0065.02c.003.0084.0071.02.014.0424l.0025.0087c-.1565-.3358-.1651-.3322-.1721-.3292s-.016.0068.1246.3719L3.83,2.3041a.5031.5031,0,0,1-.04-.0512.1844.1844,0,0,1-.0146-.0278L3.76,2.1939a.3488.3488,0,0,0-.0385-.0663.1433.1433,0,0,0-.04-.0323.06.06,0,0,1-.0292-.0281.1.1,0,0,1-.0084-.0322c-.0014-.01-.0025-.0184-.01-.02-.01-.002-.0214.0127-.0253.0272a.0746.0746,0,0,0,.0181.0594.2129.2129,0,0,0,.0379.0444.1816.1816,0,0,1,.0244.0262.1275.1275,0,0,1,.0245.0545.1486.1486,0,0,0,.03.0642l.0136.016c.006.0065.0142.0155.0292.0337l.0057.0071c-.2731-.25-.28-.2437-.2851-.2382s-.0121.0124.2575.2959l-.0331-.0176a.5149.5149,0,0,1-.0567-.0318.1908.1908,0,0,1-.0242-.02l-.0257-.0231a.35.35,0,0,0-.061-.0465.1418.1418,0,0,0-.05-.0144.0609.0609,0,0,1-.0378-.0149.1023.1023,0,0,1-.02-.0265c-.0052-.009-.0094-.0161-.0168-.0146-.01.0021-.015.02-.013.0348.0026.02.0177.0334.0394.048a.2163.2163,0,0,0,.0521.0265A.1856.1856,0,0,1,3.55,2.32a.1285.1285,0,0,1,.0435.041.1477.1477,0,0,0,.0523.0479l.0187.01c.008.0038.019.0089.04.02l.0079.0044c-.3481-.1268-.3517-.1181-.3545-.111s-.0064.0161.3511.1748l-.0373-.0035a.5.5,0,0,1-.0645-.0077.1794.1794,0,0,1-.03-.0094l-.0326-.0114a.35.35,0,0,0-.0741-.02.1415.1415,0,0,0-.0513.0057.06.06,0,0,1-.0406.0007A.1053.1053,0,0,1,3.35,2.4446c-.0083-.0063-.0148-.0113-.0212-.007-.0085.0057-.0061.0241.0014.0371a.0747.0747,0,0,0,.0548.0292.218.218,0,0,0,.0582.0046.186.186,0,0,1,.0357.0012.129.129,0,0,1,.0559.0212.1464.1464,0,0,0,.0667.0242l.0209.0017c.0088,0,.0209.001.0445.0032l.009.001c-.37.0161-.37.0255-.37.0331S3.3059,2.6114,3.6969,2.6213Zm-.0211.0571c-.0228.007-.0344.0112-.0428.0142l-.0192.0063a.14.14,0,0,1-.0673.0029.1375.1375,0,0,0-.0632.002.1932.1932,0,0,0-.0349.013.2119.2119,0,0,1-.0536.0175A.0669.0669,0,0,1,3.34,2.73c-.01-.0078-.0153-.0195-.0135-.0221l.0128.002a.1147.1147,0,0,0,.0355.0048.0687.0687,0,0,0,.042-.0179.1329.1329,0,0,1,.0427-.0235.3427.3427,0,0,1,.074-.01l.0341-.0019A.194.194,0,0,0,3.6,2.6584a.4994.4994,0,0,0,.0635-.0178l.0014,0,.0592-.0183h.0024l.0018.0134c-.0143.0038-.0287.008-.0427.0132s-.0287.0116-.0425.0178A.1673.1673,0,0,1,3.6,2.6792a.1987.1987,0,0,1-.0456.0016A.2013.2013,0,0,0,3.6,2.6824a.1717.1717,0,0,0,.0453-.01c.0145-.0053.0286-.01.0432-.0146s.0277-.007.0419-.01l.0034.014C3.7145,2.6671,3.695,2.6726,3.6758,2.6784Zm-.3045.1723a3.8476,3.8476,0,0,1,.3651-.18L3.743,2.69l-.1555.0713.16-.0595.005.0108-.0022.0019A3.8568,3.8568,0,0,1,3.3713,2.8507Zm.3608-.0581c-.0185.0152-.0275.0234-.0341.0295l-.0154.0131a.1407.1407,0,0,1-.061.0285.1376.1376,0,0,0-.0577.026.1992.1992,0,0,0-.0273.0254.21.21,0,0,1-.0428.0366.0664.0664,0,0,1-.0524.0169c-.0125-.0033-.0216-.0121-.021-.0152L3.433,2.95a.1082.1082,0,0,0,.0347-.0092A.0679.0679,0,0,0,3.5,2.9085a.131.131,0,0,1,.03-.038.347.347,0,0,1,.0646-.0374l.0308-.0148a.2054.2054,0,0,0,.0289-.0152.5063.5063,0,0,0,.0519-.0408l.0488-.04.0022-.0009.0068.0117c-.0117.009-.0235.0184-.0344.0286s-.0221.0217-.0325.0327a.1687.1687,0,0,1-.0351.0284.1923.1923,0,0,1-.0415.0189.2013.2013,0,0,0,.0431-.016.1791.1791,0,0,0,.038-.0266c.0114-.0105.0224-.0207.0343-.03s.023-.0171.0351-.0251l.0085.0117C3.7636,2.7672,3.7477,2.78,3.7321,2.7926Zm-.2155.2757a3.9006,3.9006,0,0,1,.2685-.3061l.0135.0152-.1165.1255.1256-.1165.0087.008-.0014.0027A3.8256,3.8256,0,0,1,3.5166,3.0683Zm.3111-.1917c-.0112.021-.0164.0321-.02.04l-.0092.0181a.14.14,0,0,1-.0454.05.1376.1376,0,0,0-.0434.0462.1955.1955,0,0,0-.0155.0338.2059.2059,0,0,1-.0255.05c-.0137.02-.0256.0334-.042.0356-.0127.0017-.0246-.0029-.0252-.006l.01-.0077A.114.114,0,0,0,3.64,3.115a.0692.0692,0,0,0,.017-.0424.1328.1328,0,0,1,.0135-.0468.3489.3489,0,0,1,.0454-.0593l.0228-.0254A.1939.1939,0,0,0,3.76,2.9159a.4885.4885,0,0,0,.0324-.0576l.03-.0559.0018-.0017.0107.0082a.4391.4391,0,0,0-.0209.04c-.0066.0139-.0122.0285-.0175.0427a.17.17,0,0,1-.0216.04.196.196,0,0,1-.0311.0333.2.2,0,0,0,.0337-.0313.174.174,0,0,0,.0249-.0391c.0065-.014.0128-.0277.02-.0409s.0147-.0247.0228-.0367l.0123.0076C3.8472,2.841,3.8372,2.8588,3.8277,2.8766Zm-.0935.3371a3.872,3.872,0,0,1,.1309-.3854l.0182.0089-.06.16.0713-.1554.0113.004,0,.0029A3.842,3.842,0,0,1,3.7342,3.2137Zm.2141-.2962c-.0023.0238-.0029.036-.0033.0449l-.0016.02a.1407.1407,0,0,1-.023.0632.1372.1372,0,0,0-.0224.0592.1958.1958,0,0,0-.0013.0372.21.21,0,0,1-.0044.0562c-.0049.0241-.0108.0407-.0252.049-.0111.0065-.0238.0067-.0255.0041l.0067-.0111a.1113.1113,0,0,0,.0181-.0311.0681.0681,0,0,0-.0005-.0456.1321.1321,0,0,1-.0054-.0484A.3438.3438,0,0,1,3.88,3.0433l.0113-.0322a.1988.1988,0,0,0,.01-.0313.476.476,0,0,0,.0079-.0656l.006-.063.0009-.0022.0131.0035c-.002.0146-.0036.03-.0042.0445s0,.031,0,.0461a.17.17,0,0,1-.0047.045.2021.2021,0,0,1-.016.0427.2007.2007,0,0,0,.0191-.0419.1768.1768,0,0,0,.0081-.0456c.0006-.0154.0012-.03.003-.0456s.0041-.0283.007-.0425l.0142.0023C3.9526,2.8773,3.95,2.8975,3.9483,2.9175Zm.0425.3473a3.9049,3.9049,0,0,1-.0265-.4062l.02.0012.0064.171.0064-.171.0119,0,.0009.0028A3.7753,3.7753,0,0,1,3.9908,3.2648ZM4.09,2.952l.0062.0193a.1411.1411,0,0,1,.003.0672.1377.1377,0,0,0,.0019.0633.1948.1948,0,0,0,.013.0348.2075.2075,0,0,1,.0175.0537.0663.0663,0,0,1-.0045.0548c-.0078.01-.0194.0153-.0221.0136l.002-.0128A.11.11,0,0,0,4.1113,3.21a.0676.0676,0,0,0-.0179-.042A.1329.1329,0,0,1,4.07,3.1256a.3563.3563,0,0,1-.01-.074l-.0018-.0341a.1951.1951,0,0,0-.0031-.0325.4865.4865,0,0,0-.0177-.0634l-.0187-.0608V2.8585l.0134-.0017c.0038.0142.008.0286.0132.0426s.0116.0287.0178.0426a.17.17,0,0,1,.0129.0432.1986.1986,0,0,1,.0015.0456.1964.1964,0,0,0,.0017-.046.172.172,0,0,0-.01-.0452c-.0053-.0145-.01-.0286-.0146-.0432s-.007-.0277-.01-.0419l.014-.0034c.005.0194.01.0389.0164.0581C4.0823,2.932,4.0864,2.9436,4.09,2.952Zm.158.2617a3.8515,3.8515,0,0,1-.18-.365l.0191-.0066.0713.1554-.06-.16.0108-.0051.0019.0022A3.8337,3.8337,0,0,1,4.2475,3.2137ZM4.2189,2.887l.0132.0154a.14.14,0,0,1,.0284.061.1367.1367,0,0,0,.0261.0577.1992.1992,0,0,0,.0253.0273.21.21,0,0,1,.0367.0428.0667.0667,0,0,1,.0168.0524c-.0032.0125-.0122.0217-.0152.021L4.3471,3.152a.11.11,0,0,0-.0091-.0347.0688.0688,0,0,0-.0326-.032.1325.1325,0,0,1-.0381-.03A.347.347,0,0,1,4.23,2.99L4.2152,2.96A.1968.1968,0,0,0,4.2,2.9306a.5269.5269,0,0,0-.0406-.0518L4.1187,2.83l-.0008-.0022L4.13,2.8209a.44.44,0,0,0,.0285.0344c.01.0114.0217.0221.0327.0325a.1692.1692,0,0,1,.0285.0351.2049.2049,0,0,1,.0189.0415.2036.2036,0,0,0-.0161-.0431.1721.1721,0,0,0-.0266-.038c-.01-.0113-.0206-.0224-.03-.0343s-.0172-.023-.0251-.0351l.0116-.0085c.012.016.0246.0319.0375.0475C4.2046,2.8714,4.2129,2.88,4.2189,2.887Zm.2462.1814A3.8914,3.8914,0,0,1,4.1591,2.8l.0151-.0135L4.3,2.9029l-.1164-.1255.008-.0088L4.194,2.77A3.8063,3.8063,0,0,1,4.4651,3.0684Zm-.1917-.3111c.0211.0112.0321.0164.04.02l.018.0092a.14.14,0,0,1,.05.0454.1366.1366,0,0,0,.0462.0434.1989.1989,0,0,0,.0338.0155.206.206,0,0,1,.05.0255c.02.0137.0334.0255.0356.042.0018.0128-.0029.0245-.006.0252l-.0077-.01a.11.11,0,0,0-.0217-.0285.0683.0683,0,0,0-.0424-.0171.1333.1333,0,0,1-.0468-.0135.3551.3551,0,0,1-.0592-.0454L4.338,2.8459a.2009.2009,0,0,0-.0252-.0209.52.52,0,0,0-.0575-.0323l-.056-.03-.0018-.0018.0082-.0107c.0128.0074.026.0147.04.021s.0284.0121.0426.0175a.1677.1677,0,0,1,.04.0215.2.2,0,0,1,.0334.0311A.2045.2045,0,0,0,4.33,2.8079a.17.17,0,0,0-.0391-.0249c-.014-.0065-.0276-.0128-.0409-.02s-.0246-.0147-.0366-.0228l.0075-.0123C4.2378,2.7378,4.2555,2.7478,4.2734,2.7573Zm.3371.0935A3.8483,3.8483,0,0,1,4.2251,2.72l.0089-.0182.16.0595L4.2389,2.69l.004-.0112.0029,0A3.8257,3.8257,0,0,1,4.6105,2.8508Zm-.2961-.214c.0237.0022.036.0028.0449.0032l.02.0016a.14.14,0,0,1,.0632.023.1377.1377,0,0,0,.0592.0224.2062.2062,0,0,0,.0372.0014.2052.2052,0,0,1,.0563.0043c.024.0049.0406.0108.049.0252.0064.0111.0066.0238.004.0255l-.0111-.0067a.1106.1106,0,0,0-.031-.0181.0683.0683,0,0,0-.0457.0005.1321.1321,0,0,1-.0484.0054A.35.35,0,0,1,4.44,2.7053l-.0322-.0114a.1955.1955,0,0,0-.0313-.01.4942.4942,0,0,0-.0657-.0079l-.0628-.0059L4.2459,2.67l.0035-.0131c.0146.002.03.0036.0445.0042s.0309,0,.0461,0a.17.17,0,0,1,.0449.0047.2.2,0,0,1,.0427.016.1976.1976,0,0,0-.0418-.0191A.1726.1726,0,0,0,4.34,2.654c-.0154-.0007-.03-.0013-.0455-.0031s-.0283-.0041-.0425-.007L4.2544,2.63C4.2741,2.6324,4.2942,2.6348,4.3144,2.6368Zm.3472-.0426a3.8974,3.8974,0,0,1-.4061.0265l.0012-.02.1709-.0064-.1709-.0064-.0006-.0119.0028-.0009A3.8079,3.8079,0,0,1,4.6616,2.5942ZM4.3061,2.51c.0228-.0069.0343-.0111.0427-.0141l.0193-.0063a.14.14,0,0,1,.0672-.0029.138.138,0,0,0,.0633-.002.1961.1961,0,0,0,.0349-.013.2052.2052,0,0,1,.0536-.0175.0666.0666,0,0,1,.0549.0045c.01.0078.0153.0194.0135.0221l-.0128-.002a.1126.1126,0,0,0-.0356-.0049.0682.0682,0,0,0-.042.018.1322.1322,0,0,1-.0426.0235.3447.3447,0,0,1-.074.01l-.0341.0019a.185.185,0,0,0-.0326.003.5034.5034,0,0,0-.0636.0178l-.0605.0186H4.2553l-.0017-.0134c.0142-.0038.0287-.008.0426-.0132s.0288-.0116.0426-.0178a.1675.1675,0,0,1,.0433-.0129.1978.1978,0,0,1,.0455-.0015.2011.2011,0,0,0-.0459-.0017.1727.1727,0,0,0-.0453.01c-.0145.0053-.0286.01-.0432.0146s-.0277.007-.0419.01l-.0033-.014C4.2672,2.5211,4.2867,2.5156,4.3061,2.51Zm.3045-.1722a3.8643,3.8643,0,0,1-.3651.18L4.239,2.4982l.1553-.0712-.16.0594L4.229,2.4756l.0022-.0018A3.8112,3.8112,0,0,1,4.6106,2.3375ZM4.25,2.3956c.0184-.0152.0274-.0235.0341-.03l.0154-.0132A.1407.1407,0,0,1,4.36,2.3245a.1365.1365,0,0,0,.0578-.0261.1864.1864,0,0,0,.0272-.0253.2085.2085,0,0,1,.0429-.0367A.0666.0666,0,0,1,4.5405,2.22c.0125.0033.0216.0121.0209.0152l-.0126.0031a.111.111,0,0,0-.0347.0091.0681.0681,0,0,0-.0319.0326.1329.1329,0,0,1-.03.0381.3542.3542,0,0,1-.0646.0374L4.3564,2.37a.1873.1873,0,0,0-.0289.0153.502.502,0,0,0-.0519.0407l-.0489.04-.0021.0008-.0068-.0117c.0117-.009.0234-.0184.0343-.0285s.0221-.0217.0326-.0327a.166.166,0,0,1,.035-.0285.202.202,0,0,1,.0415-.0189.2.2,0,0,0-.0431.0161A.1715.1715,0,0,0,4.28,2.39c-.0114.01-.0225.0206-.0344.03s-.0229.0171-.0349.0251l-.0085-.0117C4.2183,2.4209,4.2343,2.4083,4.25,2.3956ZM4.4652,2.12a3.8349,3.8349,0,0,1-.2684.3059l-.0134-.0152L4.3,2.2853l-.1253.1163-.0088-.0081.0013-.0025A3.8478,3.8478,0,0,1,4.4652,2.12Zm-.3111.1917c.0112-.021.0164-.0321.02-.04l.0092-.0181a.14.14,0,0,1,.0455-.05.1375.1375,0,0,0,.0433-.0462.1989.1989,0,0,0,.0155-.0338.209.209,0,0,1,.0256-.05c.0137-.02.0255-.0334.0419-.0357.0128-.0016.0246.003.0252.0061l-.01.0077a.1113.1113,0,0,0-.0285.0217.0678.0678,0,0,0-.017.0424.1339.1339,0,0,1-.0136.0468.3494.3494,0,0,1-.0454.0592l-.0228.0255a.2006.2006,0,0,0-.0209.0251A.52.52,0,0,0,4.19,2.33l-.03.0561-.0017.0016-.0107-.0083c.0074-.0128.0146-.0259.0208-.0394s.0121-.0286.0175-.0427a.1677.1677,0,0,1,.0215-.04.1962.1962,0,0,1,.0311-.0333.1953.1953,0,0,0-.0336.0313.17.17,0,0,0-.0249.0391c-.0065.014-.0129.0276-.02.0409s-.0146.0245-.0227.0365l-.0122-.0076C4.1348,2.347,4.1446,2.3294,4.1541,2.3116Zm.0936-.3371a3.8773,3.8773,0,0,1-.1309.3853l-.0182-.0089.0594-.16-.0712.1554-.0113-.004,0-.0028A3.7939,3.7939,0,0,1,4.2477,1.9745Zm-.2141.2962c.0023-.0238.0028-.036.0033-.045l.0016-.02a.14.14,0,0,1,.0229-.0632.1365.1365,0,0,0,.0224-.0592.189.189,0,0,0,.0014-.0372A.2061.2061,0,0,1,4.09,1.99c.0048-.024.0108-.0406.0251-.0489.0111-.0065.0238-.0067.0256-.0041l-.0068.0111a.1121.1121,0,0,0-.018.031.0683.0683,0,0,0,0,.0457.1366.1366,0,0,1,.0054.0484.3521.3521,0,0,1-.0193.0721l-.0113.0322a.1869.1869,0,0,0-.01.0312.5.5,0,0,0-.0079.0659l-.0059.0628-.001.0021-.013-.0035c.0019-.0146.0036-.03.0041-.0444s0-.031,0-.0462A.1661.1661,0,0,1,4.062,2.2a.1964.1964,0,0,1,.0159-.0427.2027.2027,0,0,0-.0191.0418.1726.1726,0,0,0-.008.0457c-.0007.0154-.0013.03-.0031.0455s-.0041.0283-.007.0425l-.0142-.0023C4.0292,2.3109,4.0316,2.2908,4.0336,2.2707ZM3.991,1.9234a3.8266,3.8266,0,0,1,.0265.4062l-.02-.0012-.0064-.171-.0064.171-.0119.0005-.0009-.0028A3.8438,3.8438,0,0,1,3.991,1.9234Zm0,.4091.0308.0018a.2618.2618,0,1,1-.0308-.0018Zm-.0985-.0963-.0063-.0193A.14.14,0,0,1,3.8832,2.15a.1366.1366,0,0,0-.002-.0633.1961.1961,0,0,0-.013-.0349.2091.2091,0,0,1-.0175-.0536.0666.0666,0,0,1,.0045-.0549c.0078-.01.0195-.0152.0221-.0135l-.002.0128a.1129.1129,0,0,0-.0048.0356.0681.0681,0,0,0,.0179.042.1318.1318,0,0,1,.0235.0427.3473.3473,0,0,1,.01.074l.0018.034a.1951.1951,0,0,0,.003.0326.5233.5233,0,0,0,.0178.0636l.0187.0605V2.33L3.95,2.3314c-.0038-.0142-.008-.0287-.0131-.0426s-.0117-.0288-.0179-.0426a.1713.1713,0,0,1-.0128-.0433.1985.1985,0,0,1-.0016-.0456.2021.2021,0,0,0-.0016.046.1726.1726,0,0,0,.01.0453c.0053.0145.01.0286.0146.0432s.0071.0277.01.0419l-.014.0033c-.005-.0192-.01-.0387-.0164-.0581C3.9,2.2561,3.8954,2.2446,3.8924,2.2362Zm-.158-.2618a3.8849,3.8849,0,0,1,.18.3651l-.0191.0066-.0713-.1555.06.16-.0108.0051-.0018-.0023A3.8112,3.8112,0,0,1,3.7344,1.9744Zm.0285.3267L3.75,2.2857a.1409.1409,0,0,1-.0285-.061.1376.1376,0,0,0-.026-.0577A.198.198,0,0,0,3.67,2.14a.207.207,0,0,1-.0367-.0428.0666.0666,0,0,1-.0169-.0525c.0033-.0124.0122-.0215.0152-.0209l.0031.0126a.111.111,0,0,0,.0091.0347.0682.0682,0,0,0,.0327.0319.1316.1316,0,0,1,.038.0305.347.347,0,0,1,.0374.0646l.0148.0307a.1911.1911,0,0,0,.0152.029.5064.5064,0,0,0,.0409.052l.04.0487.0009.0022-.0117.0068c-.009-.0117-.0184-.0235-.0285-.0344S3.802,2.3107,3.791,2.3a.1626.1626,0,0,1-.0284-.035.1968.1968,0,0,1-.0189-.0415.2.2,0,0,0,.0161.0431.1775.1775,0,0,0,.0265.038c.01.0113.0207.0224.03.0343s.0171.0229.0251.0351L3.83,2.3827c-.0121-.0159-.0247-.0319-.0375-.0475C3.7772,2.3168,3.769,2.3077,3.7629,2.3011ZM3.5167,2.12a3.8224,3.8224,0,0,1,.3061.2685l-.0151.0134-.1256-.1164.1165.1255-.008.0088-.0027-.0015A3.84,3.84,0,0,1,3.5167,2.12Zm.1917.3111c-.021-.0112-.0321-.0164-.04-.02L3.65,2.4015a.14.14,0,0,1-.05-.0455.138.138,0,0,0-.0461-.0433.196.196,0,0,0-.0339-.0155.2113.2113,0,0,1-.05-.0255c-.02-.0138-.0335-.0256-.0357-.042-.0017-.0128.0029-.0246.0061-.0252l.0076.01a.1137.1137,0,0,0,.0217.0285.068.068,0,0,0,.0424.017.1355.1355,0,0,1,.0468.0136.3449.3449,0,0,1,.0593.0454l.0254.0228a.2023.2023,0,0,0,.0252.0209.5051.5051,0,0,0,.0576.0324l.0559.03.0017.0018-.0082.0107c-.0128-.0074-.026-.0147-.04-.0209s-.0285-.0121-.0427-.0175a.17.17,0,0,1-.04-.0215.196.196,0,0,1-.0333-.0311.1953.1953,0,0,0,.0313.0336.178.178,0,0,0,.0391.025c.014.0065.0277.0128.0409.02s.0247.0147.0367.0228L3.7612,2.46C3.744,2.45,3.7262,2.44,3.7084,2.4309Zm-.3371-.0936a3.8957,3.8957,0,0,1,.3854.131l-.0088.0182-.16-.0595.1555.0713L3.7389,2.51l-.0029,0A3.7783,3.7783,0,0,1,3.3713,2.3373Zm.2962.2141c-.0238-.0023-.036-.0028-.0449-.0033l-.02-.0015a.1419.1419,0,0,1-.0632-.023A.1367.1367,0,0,0,3.48,2.5012.1888.1888,0,0,0,3.4427,2.5a.2128.2128,0,0,1-.0562-.0043c-.0241-.0049-.0407-.0108-.049-.0252-.0065-.0111-.0067-.0238-.004-.0256l.011.0068a.11.11,0,0,0,.0311.018.0675.0675,0,0,0,.0456-.0005A.1366.1366,0,0,1,3.47,2.4636a.3573.3573,0,0,1,.0721.0193l.0323.0113a.1869.1869,0,0,0,.0312.01.4941.4941,0,0,0,.0656.0079l.063.0059.0022.001-.0035.013c-.0146-.0019-.03-.0036-.0445-.0041s-.031,0-.0461,0a.17.17,0,0,1-.0449-.0047.2064.2064,0,0,1-.0428-.016.2059.2059,0,0,0,.0419.0191.1726.1726,0,0,0,.0457.008c.0154.0007.03.0013.0455.0031s.0283.0041.0425.007l-.0023.0142C3.7077,2.5557,3.6876,2.5534,3.6675,2.5514Zm.0589.0161-.0012.02-.171.0064.171.0064,0,.0119-.0028.0008A3.8343,3.8343,0,0,1,3.32,2.594,3.8687,3.8687,0,0,1,3.7264,2.5675Z" fill="#8f4110"></path><path d="M3.8967,2.504l.0059,0,.0059,0,.0121.0012a.0944.0944,0,0,1,.0231.0059.0552.0552,0,0,1,.02.0127.0506.0506,0,0,1,.0122.0218l.0008.0036a.0938.0938,0,0,1,0,.0275A.1126.1126,0,0,1,3.97,2.6a.1212.1212,0,0,1-.0123.0234l.0007.0062L3.96,2.63l.003-.0017a.14.14,0,0,0,.0132-.0252.1217.1217,0,0,0,.0072-.025.1069.1069,0,0,0-.0017-.0409.0583.0583,0,0,0-.01-.023.0611.0611,0,0,0-.023-.0187.0892.0892,0,0,0-.0266-.0079.103.103,0,0,0-.0272,0,.0868.0868,0,0,0-.0262.0082.1072.1072,0,0,0-.0414.0366.1718.1718,0,0,1,.0454-.0237A.0976.0976,0,0,1,3.8967,2.504Z" fill="#8f4110"></path><path d="M4.0063,2.6033a.14.14,0,0,0,.0132.0252l.0031.0017.0023-.0009.0007-.0062A.1208.1208,0,0,1,4.0134,2.6a.101.101,0,0,1-.0067-.023.0933.0933,0,0,1,.0013-.036.05.05,0,0,1,.0106-.0169.0549.0549,0,0,1,.0195-.0127.0956.0956,0,0,1,.0231-.0059l.0121-.0012.0059,0,.0059,0a.0976.0976,0,0,1,.0236.0046.1723.1723,0,0,1,.0455.0237.1079.1079,0,0,0-.0414-.0366.0874.0874,0,0,0-.0263-.0082.103.103,0,0,0-.0272,0,.09.09,0,0,0-.0265.0079.06.06,0,0,0-.023.0187.0573.0573,0,0,0-.0108.0295l0,.0045a.1069.1069,0,0,0,0,.03A.1285.1285,0,0,0,4.0063,2.6033Z" fill="#8f4110"></path><path d="M4.0105,2.6824l-.0083.0038A.0188.0188,0,0,1,3.99,2.69l-.01-.0034a.0208.0208,0,0,0-.0122-.0036c-.0028,0-.007.0011-.0182.0079a.1983.1983,0,0,0-.0242.0176l-.0032.0028.0039.0011a.1056.1056,0,0,1,.0289.0132l.0079.0057.0124.0073.0125.0023a.041.041,0,0,0-.0368.0324l.0012.0028h0l.002-.0016a.0372.0372,0,0,1,.0341-.0294.0367.0367,0,0,1,.0346.0273l.0024.0013.0012-.0027a.041.041,0,0,0-.0356-.03l.012-.0023.0121-.008.01-.0075a.0676.0676,0,0,1,.0256-.01l.0035-.0005L4.0523,2.71C4.0359,2.6886,4.0222,2.68,4.0105,2.6824Zm.0131.037-.01.0079-.0109.0072a.0387.0387,0,0,1-.0257,0l-.0114-.0067-.008-.0059a.1122.1122,0,0,0-.0261-.0125l.0206-.0146c.0118-.0072.0151-.0073.0164-.0074a.0172.0172,0,0,1,.01.0032l.0115.0038A.022.022,0,0,0,4.0041,2.69l.0071-.0035q.0146-.0033.0359.0233A.0713.0713,0,0,0,4.0236,2.7194Z" fill="#8f4110"></path><path d="M4.0036,2.7068l-.0083.0039-.0082.0026L3.98,2.71l-.0065-.0044a.0316.0316,0,0,0-.0244,0l-.0012.0027.0024.0014a.028.028,0,0,1,.0217,0l.0057.0039.0086.0042h.0015l.0089-.0031.0076-.0036A.0363.0363,0,0,1,4.0236,2.71l.0022-.0017L4.0243,2.706A.04.04,0,0,0,4.0036,2.7068Z" fill="#8f4110"></path><path d="M3.9742,2.6473l-.0051-.0038-.0046-.0013L3.96,2.643l-.0063.0052-.0029.0044-.0018.0014-.0032,0L3.94,2.6477l-.0017-.01.0048-.01-.0078.0085a.0192.0192,0,0,0,0,.0136l.0081.0106.0069.0022L3.9571,2.66l.004-.0046.0021-.0015h.0006l.0006,0,.0033.0031.0111.0064a.0373.0373,0,0,0,.0119.0017l.0122-.0029.01-.0072.0018-.0011.0022.0005.003.0028.0053.0047.008.0009L4.039,2.66l.0066-.012a.0206.0206,0,0,0-.0019-.0133l-.0086-.0077a.0173.0173,0,0,1,.0051.0191l-.0055.0069-.0034.0012-.0021-.0006L4.022,2.645l-.0077-.0028-.0079.0028-.0078.0056-.0081.0017-.0087-.0011Z" fill="#8f4110"></path><path d="M3.954,2.556h.0054V2.55a.0864.0864,0,0,0-.0606-.0291.0886.0886,0,0,0-.0651.03v.0062l.0027.0013.0027-.0013a.075.075,0,0,1,.115-.0005Z" fill="#8f4110"></path><path d="M3.8541,2.552l0,.0027a.0576.0576,0,0,0,.046.0162c.0138,0,.046-.0014.046-.0145,0-.0051-.0229-.0194-.046-.0194A.07.07,0,0,0,3.8541,2.552Zm.0036.002a.0736.0736,0,0,1,.0364-.0123.0158.0158,0,0,0,0,.0247A.0631.0631,0,0,1,3.8577,2.554Zm.0512-.0118a.064.064,0,0,1,.0329.0147c-.0008.0042-.0124.0085-.0336.0095a.0153.0153,0,0,0,.0059-.0124A.0156.0156,0,0,0,3.9089,2.5422Z" fill="#8f4110"></path><path d="M3.9552,2.5638l-.0027-.0005a.0817.0817,0,0,1-.051.02.08.08,0,0,1-.0476-.0153l-.0026.0007.0006.003a.0835.0835,0,0,0,.0485.016h.0011a.0861.0861,0,0,0,.0533-.02Z" fill="#8f4110"></path><path d="M4.0831,2.5207a.0866.0866,0,0,0-.0606.0291V2.556h.0054a.0792.0792,0,0,1,.0554-.0266.0811.0811,0,0,1,.06.0271l.0027.0013.0027-.0013V2.55A.0878.0878,0,0,0,4.0831,2.5207Z" fill="#8f4110"></path><path d="M4.1282,2.5547l0-.0027a.07.07,0,0,0-.0454-.015c-.0232,0-.0461.0143-.0461.0194,0,.0131.0322.0145.0461.0145A.0573.0573,0,0,0,4.1282,2.5547Zm-.04-.013a.0731.0731,0,0,1,.0364.0123.0623.0623,0,0,1-.0364.0124.0156.0156,0,0,0,.0059-.0124A.015.015,0,0,0,4.0877,2.5417ZM4.04,2.5569a.0631.0631,0,0,1,.0329-.0147.0153.0153,0,0,0-.0053.0118.0156.0156,0,0,0,.0059.0124C4.0525,2.5654,4.0408,2.5611,4.04,2.5569Z" fill="#8f4110"></path><path d="M4.08,2.5829a.0817.0817,0,0,1-.051-.02l-.0027.0005,0,.0031a.0858.0858,0,0,0,.0532.02h.0011a.0841.0841,0,0,0,.0486-.016l.0006-.003-.0027-.0007A.08.08,0,0,1,4.08,2.5829Z" fill="#8f4110"></path></svg> 