<?xml version="1.0" encoding="UTF-8"?> <svg xmlns="http://www.w3.org/2000/svg" viewBox="0 0 7.9818 5.1882"><path d="M3.9778,1.7219C3.999,1.74,4.02,1.76,4.04,1.78l.0052.0053.0267.0053a1.1614,1.1614,0,0,0-.7748-.3619v.0161a1.1377,1.1377,0,0,1,.6673.2659h.0137Z" fill="#f8ff09"></path><path d="M4.3836,2.4516A1.1607,1.1607,0,0,0,4.21,1.967L4.2,1.9637,4.1867,1.96a1.1431,1.1431,0,0,1,.18.4846Z" fill="#f8ff09"></path><path d="M4.1633,3.2887l-.0108-.0112a1.1639,1.1639,0,0,1-.1128.1311l-.002.002,0,.0014-.0024.0006a1.14,1.14,0,0,1-.7388.3313V3.76A1.164,1.164,0,0,0,4.1633,3.2887Z" fill="#f8ff09"></path><path d="M4.3921,2.6113l-.0159-.0076a1.1828,1.1828,0,0,1-.01.14l-.001.0071a1.1429,1.1429,0,0,1-.0846.3037l.0113.0126A1.1619,1.1619,0,0,0,4.3921,2.6113Z" fill="#f8ff09"></path><path d="M2.4289,1.7816l.0288-.0056V1.7541Z" fill="#056506"></path><path d="M3.838,3.4067c.0766-.0134.1539-.029.23-.0462l0,.0014q.0354-.0389.0672-.0811a1.27,1.27,0,0,1-.4379.0776H3.6951a.7753.7753,0,0,1-.1551.0909C3.64,3.4383,3.74,3.424,3.838,3.4067Z" fill="#f8ff09"></path><path d="M2.4148,1.7958,2.3941,1.8l-.0269.0062L2.352,1.81l-.0048.0012c-.0406.01-.0812.0217-.1212.0346l-.0193.0063-.0055.0018.0039,0,.0134.0016.0149.0021c.0323-.011.0652-.0208.0983-.0292l.02-.0048.0116-.0027.0142-.0031.02-.0041q.03-.006.0608-.0106V1.7873Z" fill="#f8ff09"></path><path d="M2.331,1.8913,2.32,1.888l-.0007,0-.0161-.0043L2.29,1.8805a.7073.7073,0,0,0-.0793-.014L2.1976,1.865l-.02-.0017-.0137-.0009H2.1627L2.1415,1.88l.01,0,.0138.0007.02.0015.0134.0014a.6794.6794,0,0,1,.0788.0136L2.29,1.9l.016.0043.0038.0011.0082.0025a.6761.6761,0,0,1,.14.0594V1.9428A.7253.7253,0,0,0,2.331,1.8913Z" fill="#f8ff09"></path><path d="M2.3839,1.8284l-.0185.004-.0007,0-.0258.0062-.02.005q-.0315.0084-.0624.0184l.0407.0086L2.31,1.874l.0125.0032.0038.0012.0121.0036a.7239.7239,0,0,1,.1192.0483V1.8151C2.433,1.8188,2.4083,1.8233,2.3839,1.8284Z" fill="#f8ff09"></path><path d="M4.0991,3.2113c.0176.0157.0348.032.0515.0487l.0085.0084L4.17,3.28l.0083.0086q.0253.0269.0491.055l.0078.0092.0112.0138.0075.0094.0032.004.0057-.0156.0008-.0021-.0071-.0093-.011-.0141-.0077-.01c-.0155-.0191-.0317-.0378-.0484-.056L4.181,3.264,4.17,3.2527l-.0083-.0086-.0134-.0134a1.2312,1.2312,0,0,0-.2213-.1722L3.92,3.0764A1.3361,1.3361,0,0,1,4.0991,3.2113Z" fill="#f8ff09"></path><path d="M3.7891,3.4493c.08-.0125.1609-.0282.24-.0466l.0274-.0283c-.0716.016-.1444.0306-.2166.0433-.1111.0195-.2242.0352-.3367.0468-.02.0076-.04.0145-.061.02A3.3194,3.3194,0,0,0,3.7891,3.4493Z" fill="#f8ff09"></path><path d="M4.1563,3.2228l.012.012.0083.0086.0109.0113.0082.0089c.0169.0182.0331.0369.0488.0561l.0076.01.0111.0141a1.2909,1.2909,0,0,0,.0857-.136l-.0113-.015-.008-.01c-.0161-.02-.0327-.0407-.05-.06l-.0085-.01L4.26,3.1,4.2518,3.09q-.0343-.0372-.071-.0721a1.5105,1.5105,0,0,0-.2052-.1636.6886.6886,0,0,1-.0442.1935A1.2331,1.2331,0,0,1,4.1563,3.2228Z" fill="#f8ff09"></path><path d="M3.2968,3.7327a1.1333,1.1333,0,0,0,.7171-.3151c-.0737.0167-.1486.0311-.2231.0427a3.3715,3.3715,0,0,1-.4.0381.7962.7962,0,0,1-.0936.0149Z" fill="#fa0b12"></path><path d="M2.0723,2.0865l-.0178-.0022a1.2724,1.2724,0,0,0-.1026.4215l.0186-.01A1.2577,1.2577,0,0,1,2.0723,2.0865Z" fill="#f8ff09"></path><path d="M4.182,2.7912c-.0564.0113-.1137.0216-.1708.031a1.4036,1.4036,0,0,1,.2416.2017l.02.0211a1.1353,1.1353,0,0,0,.0815-.2914C4.2971,2.7671,4.2393,2.78,4.182,2.7912Z" fill="#fa0b12"></path><path d="M1.968,2.6508l-.0174.01a1.2732,1.2732,0,0,0,.1347.5089L2.1,3.16A1.2578,1.2578,0,0,1,1.968,2.6508Z" fill="#f8ff09"></path><path d="M4.18,2.78c.0585-.0117.1176-.0246.1758-.0385l.002-.0167c-.0582.0138-.1172.0267-.1757.0384-.0675.0135-.1361.0257-.2042.0364l0,.0164C4.0451,2.8057,4.1131,2.7936,4.18,2.78Z" fill="#f8ff09"></path><path d="M2.3358,1.701a1.25,1.25,0,0,1,.81-.3673v-.018a1.2773,1.2773,0,0,0-.9557.5305l.0282-.0094A1.29,1.29,0,0,1,2.3358,1.701Z" fill="#f8ff09"></path><path d="M2.3887,3.4046l.0015.0015a1.1609,1.1609,0,0,0,.7554.3531v-.016a1.14,1.14,0,0,1-.7273-.3307l-.004-.0039-.0106-.0108-.0275-.0292-.0126-.0142q-.0332-.0377-.0627-.0778l-.0117-.0161-.0138-.02-.014.0068A1.1821,1.1821,0,0,0,2.3887,3.4046Z" fill="#f8ff09"></path><path d="M4.1885,3.01q.0352.0334.0684.0694l.0086.0094.0111.0124.0084.0095q.0259.03.05.0605l.0081.01.0114.0151.0079.01.0039.0053.008-.0231-.0015-.002-.0077-.0108L4.3539,3.161,4.3459,3.15c-.0161-.0212-.0328-.042-.05-.0622l-.0084-.01-.0112-.0127-.0086-.01-.0229-.0245a1.3933,1.3933,0,0,0-.25-.2068l-.0178.0029-.0007.0142A1.5265,1.5265,0,0,1,4.1885,3.01Z" fill="#f8ff09"></path><path d="M2.5839,3.3122A1.4,1.4,0,0,1,2.2962,3.25l.0128.0178a1.2592,1.2592,0,0,0,.41.0731L2.6944,3.32C2.6575,3.3186,2.62,3.3162,2.5839,3.3122Z" fill="#f8ff09"></path><path d="M2.3138,2.6663c-.0752-.0155-.1508-.0339-.2248-.0548l0,.02c.0584.0143.1176.028.1762.0408.0635.0138.128.0269.1921.039V2.6925C2.41,2.6848,2.3613,2.6761,2.3138,2.6663Z" fill="#f8ff09"></path><path d="M3.2719,3.7339v.16h.0138v-.38l-.0138.0011Z" fill="#f8ff09"></path><path d="M3.1456,3.8434V3.77a1.1669,1.1669,0,0,1-.7505-.3425,1.19,1.19,0,0,1-.1442-.1751c-.0214.0111-.0424.0229-.0629.0356A1.2493,1.2493,0,0,0,3.1456,3.8434Z" fill="#f8ff09"></path><path d="M2.2632,2.6836c-.0576-.0126-.1159-.0261-.1733-.04q.0014.0324.0045.0642c.073.0205.1475.0386.2216.0539.0468.01.0944.0183.1417.0258V2.723C2.3929,2.7108,2.3275,2.6976,2.2632,2.6836Z" fill="#f8ff09"></path><path d="M2.4577,2.7986c-.0481-.0077-.0964-.0164-.1439-.0262-.073-.015-.1462-.0328-.2181-.0529L2.098,2.74c.0555.0135.1117.0266.1676.0387.0636.0139.1282.0269.1923.039l0-.0184Z" fill="#f8ff09"></path><path d="M4.22,3.3522q-.0236-.028-.0489-.0548a1.194,1.194,0,0,1-.1126.1305,1.1669,1.1669,0,0,1-.7621.3432v.073A1.2475,1.2475,0,0,0,4.22,3.3522Z" fill="#f8ff09"></path><path d="M2.2377,1.8306c.037-.0115.0743-.022.1116-.0312L2.36,1.7967,2.3951,1.76a1.1664,1.1664,0,0,1,.7505-.3425v-.073A1.2477,1.2477,0,0,0,2.2377,1.8306Z" fill="#f8ff09"></path><path d="M2.2388,2.5016a1.3868,1.3868,0,0,0-.1493.0531L2.0782,2.56l-.0162.0072-.0112.0051q-.0369.0168-.0728.036l-.011.0059-.0178.01L1.9383,2.63l-.01.0057-.0008.0262.0116-.0069L1.95,2.6483l.0176-.01.0108-.0061c.0237-.013.0478-.0253.0721-.0368L2.0617,2.59l.0161-.0074.0111-.0049a1.3334,1.3334,0,0,1,.3688-.1014v-.02A1.3776,1.3776,0,0,0,2.2388,2.5016Z" fill="#f8ff09"></path><path d="M2.2413,2.5337a1.3221,1.3221,0,0,0-.1525.0564V2.6c.0748.0211.1512.04.2272.0554.0468.01.0944.0182.1417.0258V2.4877A1.3288,1.3288,0,0,0,2.2413,2.5337Z" fill="#056506"></path><path d="M2.3323,3.1759q-.0339.0129-.0665.0287L2.2551,3.21l-.0136.007-.01.0056c-.0212.0113-.0418.0236-.0619.0367l-.01.0066-.0141.01-.01.0069-.0136.01.013.018.013-.0089.01-.0066.0145-.0093.01-.0064c.02-.0127.0414-.0245.0628-.0356l.01-.0054.0139-.0068L2.28,3.2261c.0187-.0088.0376-.0169.0568-.0245a.9582.9582,0,0,1,.2143-.0566l-.0113-.02A.86.86,0,0,0,2.3323,3.1759Z" fill="#f8ff09"></path><path d="M2.557,3.1554a.9478.9478,0,0,0-.2164.0566c-.0182.0071-.0362.0149-.054.0232a1.5462,1.5462,0,0,0,.2985.066c.0319.0034.0643.0057.0966.0069l-.001-.0009A.7028.7028,0,0,1,2.557,3.1554Z" fill="#056506"></path><path d="M2.1817,3.11l.0136-.007a1.1425,1.1425,0,0,1-.1073-.3539l-.0016-.0118-.0023-.021-.0012-.0119c-.002-.0211-.0034-.0424-.0043-.0637l0-.0064-.0006-.0259V2.5951l-.016.0073A1.1624,1.1624,0,0,0,2.1817,3.11Z" fill="#f8ff09"></path><path d="M2.2842,3.0755q-.0375.0144-.0734.0321L2.2,3.1129,2.1866,3.12l-.01.0056q-.0317.0176-.0618.0375l-.01.0067L2.09,3.18l-.01.007-.0071.0052.013.018.0047-.0031.01-.0067.0143-.01.01-.0064q.03-.0194.0622-.0363l.01-.0055.0136-.0069L2.2225,3.13c.0217-.01.0437-.02.066-.0289a.9641.9641,0,0,1,.2145-.0567l-.0076-.0207A.8673.8673,0,0,0,2.2842,3.0755Z" fill="#f8ff09"></path><path d="M2.2632,2.79c-.0545-.0119-.1093-.0246-.1635-.0378a1.1339,1.1339,0,0,0,.1061.3458q.0365-.018.0745-.0326a.8748.8748,0,0,1,.2115-.0519.6764.6764,0,0,1-.0334-.184C2.3933,2.817,2.3278,2.8037,2.2632,2.79Z" fill="#056506"></path><path d="M2.5071,3.0553a.9472.9472,0,0,0-.2145.0563q-.033.013-.0648.0284l-.0106.0052-.0137.007-.01.0054q-.0318.017-.0622.0363l-.01.0064-.0144.01q.0157.0285.0327.0561l.0142-.01.01-.0065c.02-.0131.0408-.0254.0619-.0368l.01-.0056L2.2493,3.2,2.26,3.1951q.0336-.0162.0684-.03a.8752.8752,0,0,1,.2058-.0513c-.0068-.0131-.0132-.0265-.0191-.04Z" fill="#f8ff09"></path><path d="M2.11,3.1531q.03-.02.0618-.0374a1.1765,1.1765,0,0,1-.1206-.5081c-.0243.0116-.0482.024-.0718.037A1.2462,1.2462,0,0,0,2.11,3.1531Z" fill="#f8ff09"></path><path d="M2.2357,2.3874q.0327-.0094.0659-.0174c-.0308-.02-.061-.0417-.09-.0642-.0236-.0185-.0469-.0379-.0693-.058A1.1394,1.1394,0,0,0,2.1,2.4349,1.3906,1.3906,0,0,1,2.2357,2.3874Z" fill="#056506"></path><path d="M2.6357,3.454c-.0653-.01-.131-.0226-.196-.0367a1.1341,1.1341,0,0,0,.7059.3147V3.5137a.7987.7987,0,0,1-.1269-.0223A3.3778,3.3778,0,0,1,2.6357,3.454Z" fill="#056506"></path><path d="M2.2368,2.2831A.8963.8963,0,0,1,2.1553,2.21l-.0091.0264c.0233.021.0476.0414.0723.0607.0315.0245.0644.0479.098.07l.033-.0072A.8881.8881,0,0,1,2.2368,2.2831Z" fill="#f8ff09"></path><path d="M3.2608,1.71V1.3136L3.227,1.3131H3.2233l-.0417.0008V1.71h.0792Z" fill="#f8ff09"></path><path d="M2.2388,2.3981a1.3806,1.3806,0,0,0-.1407.05l-.0119.0051L2.0694,2.46l-.0119.0052c-.0258.0117-.0512.0241-.0763.0374L1.97,2.5088l-.0186.01L1.94,2.5255l-.0112.0064-.0008.0262.0109-.0065L1.95,2.5449l.0183-.01L1.98,2.5281q.0373-.02.0756-.0384l.0117-.0054.0167-.0075.0118-.0051A1.3249,1.3249,0,0,1,2.2381,2.42a1.3446,1.3446,0,0,1,.22-.0466v-.02A1.3888,1.3888,0,0,0,2.2388,2.3981Z" fill="#f8ff09"></path><path d="M3.2233,3.5171H3.2194l-.0378-.0009v.358l.0417.0008H3.227l.0338,0V3.5161l-.0146.0006Z" fill="#f8ff09"></path><path d="M2.27,2.1016c-.02-.0067-.04-.0129-.06-.0186L2.198,2.08l-.0152-.0039-.0117-.003q-.036-.0089-.0725-.0156l-.0121-.0021-.0176-.003-.0018,0-.0192.018-.0024.0022.0013,0,.0124.0014.0178.0021.0122.0017q.0369.0054.0732.0133l.0119.0027.0152.0037L2.2011,2.1c.0194.0051.0386.0106.0576.0169a1.0058,1.0058,0,0,1,.199.09V2.1824A1.2493,1.2493,0,0,0,2.27,2.1016Z" fill="#f8ff09"></path><path d="M3.1567,3.7327v.1615h.0138V3.5156l-.0138-.001Z" fill="#f8ff09"></path><path d="M2.2553,2.1275q-.0293-.0094-.059-.0172c-.0134.0287-.0258.058-.0369.088a.8949.8949,0,0,0,.2069.1579c.03-.0057.0608-.01.0914-.0142V2.22A.9992.9992,0,0,0,2.2553,2.1275Z" fill="#f8ff09"></path><path d="M2.3111,1.9176l-.0042-.0012L2.299,1.9142,2.283,1.91l-.0124-.0029a.6554.6554,0,0,0-.0789-.013L2.1783,1.893l-.02-.0013a1.2689,1.2689,0,0,0-.0847.15l.0176.0029.0121.0023q.0364.0067.0726.0157l.0117.003.0152.004.0116.0032q.03.0084.0588.0181a1.262,1.262,0,0,1,.1842.0789V1.9805A.6691.6691,0,0,0,2.3111,1.9176Z" fill="#f8ff09"></path><path d="M2.7328,3.3521a1.2663,1.2663,0,0,1-.412-.0685q.03.0389.0622.0751c.0692.0154.1395.0294.2092.0417.0955.0167.1926.0307.2894.0416a.786.786,0,0,1-.1479-.09Z" fill="#f8ff09"></path><path d="M4.4746,2.6557c-.0233-.0138-.0472-.0267-.0714-.0389a1.1794,1.1794,0,0,1-.1023.46c.0174.02.0343.041.05.0622A1.2434,1.2434,0,0,0,4.4746,2.6557Z" fill="#f8ff09"></path><path d="M2.2413,2.43a1.3393,1.3393,0,0,0-.1473.0541L2.0824,2.49l-.0167.0076-.0117.0055c-.0253.012-.05.0249-.075.0385l-.0113.0064-.0183.0106-.0006.036,0,.0168.0178-.01.011-.0059c.0241-.0126.0485-.0246.0733-.0358l.0113-.005.0163-.0071L2.09,2.5425a1.3776,1.3776,0,0,1,.1457-.0516,1.3918,1.3918,0,0,1,.222-.0454V2.3842A1.35,1.35,0,0,0,2.2413,2.43Z" fill="#f8ff09"></path><path d="M4.0918,1.7948a.83.83,0,0,1,.1115.0354l.0184.0076a1.2474,1.2474,0,0,0-.9249-.4936v.073a1.1664,1.1664,0,0,1,.7621.3432Z" fill="#f8ff09"></path><path d="M4.3329,2.0126q-.0521-.0217-.1057-.04a1.167,1.167,0,0,1,.1683.4841c.026.0118.0516.0244.0767.038A1.2435,1.2435,0,0,0,4.3329,2.0126Z" fill="#f8ff09"></path><path d="M2.59,3.4113c-.0647-.0113-.13-.0242-.1942-.0383l.0286.03c.07.0157.1418.0293.2127.04a3.3609,3.3609,0,0,0,.336.0351c-.02-.0063-.0388-.0134-.0578-.0212C2.8069,3.4455,2.6976,3.43,2.59,3.4113Z" fill="#f8ff09"></path><path d="M3.85,3.2759a.3819.3819,0,0,0,.054.0229l0,.0012.0385-.0064c-.02-.0073-.0386-.0156-.0572-.0246a.6594.6594,0,0,1-.0614-.0344l-.014.0169A.3884.3884,0,0,0,3.85,3.2759Z" fill="#f8ff09"></path><path d="M3.1816,3.8893v.0161h-.036V3.8836a1.2781,1.2781,0,0,1-.83-.3758,1.3025,1.3025,0,0,1-.1617-.1971l-.0171.0118-.0045.0032L2.1063,3.29l.0043-.0033L2.13,3.2728c-.0115-.0185-.0224-.0372-.0329-.0562l-.008.0056-.0045.0032L2.0583,3.19l.0043-.0033.0129-.01a1.2877,1.2877,0,0,1-.1357-.51l-.0152.0092-.0087.0054.0016-.0529L1.92,2.6273l.0178-.01,0-.0229,0-.0293-.0135.0081-.0087.0054.0016-.0529L1.92,2.5239l.02-.0117a1.2881,1.2881,0,0,1,.1018-.4291l-.01-.001L2.02,2.081l.04-.0376a1.2768,1.2768,0,0,1,.0849-.1524l-.0186,0H2.1109l.0481-.04h.0021l.01.0006a1.3021,1.3021,0,0,1,.144-.1712,1.2782,1.2782,0,0,1,.83-.3759V1.286h.036v.016h.0417V0H0V5.1882H3.2233V3.8893Z" fill="#056506"></path><path d="M3.8894,3.259a.6374.6374,0,0,0,.0741.03,1.4059,1.4059,0,0,0,.1593-.0412L4.0917,3.22a1.3332,1.3332,0,0,0-.1766-.133.6981.6981,0,0,1-.0849.1392A.6485.6485,0,0,0,3.8894,3.259Z" fill="#f8ff09"></path><path d="M3.2233,0V1.302h.0375V1.286h.036v.0179a1.2786,1.2786,0,0,1,.8418.3766,1.2972,1.2972,0,0,1,.16.1948l.0331.0192.0026.0017v.0354c.0115.0191.0224.0386.0328.0583l.012.0053.0033.0015V2.02a1.2868,1.2868,0,0,1,.1315.4988l.0174.01.0033.0021-.01.0489-.0069-.0045L4.516,2.5739l0,.02,0,.0327.0156.0092.0033.002-.01.0489-.0069-.0044L4.5134,2.68a1.2842,1.2842,0,0,1-.1347.4966l.0065.009.0016.0023L4.37,3.236l-.0063-.0086-.0071-.01a1.2966,1.2966,0,0,1-.0861.1352l.0035.0046L4.276,3.36l-.0155.0422-.0061-.0079-.0075-.01a1.3217,1.3217,0,0,1-.1083.123,1.2784,1.2784,0,0,1-.8418.3765v.0211h-.036V3.8893H3.2233V5.1882H7.9818V0Z" fill="#fa0b12"></path><path d="M3.7479,3.3145c.0325-.0012.0651-.0035.0972-.007l.0376-.0045A.3889.3889,0,0,1,3.8018,3.26.7112.7112,0,0,1,3.7479,3.3145Z" fill="#fa0b12"></path><path d="M1.9822,2.49q.0378-.02.0767-.0371a1.1717,1.1717,0,0,1,.0988-.3512q-.0363-.008-.0732-.0131A1.2457,1.2457,0,0,0,1.9822,2.49Z" fill="#f8ff09"></path><path d="M3.71,3.3472a1.258,1.258,0,0,0,.4321-.0806l-.01-.01a1.4075,1.4075,0,0,1-.2856.0615c-.0368.004-.0742.0064-.1113.0074l-.0223.0187Z" fill="#f8ff09"></path><path d="M4.2765,2.55q.045.0162.0886.0361l.0112.0051.016.0076.011.0054q.0366.018.0718.0386L4.486,2.65l.0174.0106.0107.0067.0032.002.005-.0253-.007-.0041L4.5045,2.633l-.0176-.01-.011-.0061q-.0357-.02-.0726-.0369l-.0112-.0051L4.376,2.5675l-.0112-.0048Q4.3279,2.547,4.29,2.5336a1.2419,1.2419,0,0,0-.3123-.066v.0158A1.2127,1.2127,0,0,1,4.2765,2.55Z" fill="#f8ff09"></path><path d="M4.1181,1.701a1.2781,1.2781,0,0,1,.1257.1466l.0324.0157a1.2778,1.2778,0,0,0-.9794-.5483v.018A1.25,1.25,0,0,1,4.1181,1.701Z" fill="#f8ff09"></path><polygon points="3.272 1.332 3.272 1.343 3.272 1.416 3.272 1.427 3.272 1.443 3.272 1.454 3.272 1.71 3.286 1.71 3.286 1.455 3.286 1.444 3.286 1.428 3.286 1.417 3.286 1.344 3.286 1.332 3.286 1.315 3.286 1.303 3.286 1.297 3.272 1.297 3.272 1.303 3.272 1.314 3.272 1.332" fill="#f8ff09"></polygon><path d="M4.2937,2.5231c.0238.0084.0473.0176.0706.0274l.0113.0048.0163.0072.0112.0051c.0247.0114.049.0235.0729.0365l.0111.0062.0177.01,0-.0261,0-.0273-.0182-.0112-.0114-.0068c-.0244-.0144-.0494-.0279-.0748-.0406l-.0116-.0057L4.372,2.4946,4.36,2.4892q-.0432-.0195-.0876-.0356a1.2078,1.2078,0,0,0-.295-.0662v.069A1.2509,1.2509,0,0,1,4.2937,2.5231Z" fill="#f8ff09"></path><path d="M4.1358,1.908l.0184.0051.024.0069.0182.0056.0066.0021c.0347.011.0692.0233.1032.0367l.018.0072.0254.0106q-.0169-.0312-.0356-.0613l-.0317-.0178L4.2607,1.892q-.03-.015-.0614-.0274c-.0219-.0087-.0442-.0164-.0667-.0231l-.02-.0058L4.0861,1.829l-.02-.0044a.8221.8221,0,0,0-.0887-.0138v.0631A1.6163,1.6163,0,0,1,4.1358,1.908Z" fill="#f8ff09"></path><path d="M4.1589,1.94l.0179.0052L4.2,1.9522l.003.0009.0149.0048q.054.0177.1069.0394l.0173.0071.0249.0108L4.3581,1.998l-.0254-.0109L4.3151,1.98c-.0357-.0144-.072-.0276-.1085-.0394L4.2,1.9383l-.0112-.0035-.0237-.0071-.0183-.0053a1.5944,1.5944,0,0,0-.1686-.0372v.0141A1.6053,1.6053,0,0,1,4.1589,1.94Z" fill="#f8ff09"></path><path d="M4.2937,2.4159c.02.0072.0409.015.061.0233A1.1346,1.1346,0,0,0,4.2481,2.09l-.27.0654,0-.0008v.1942A1.2553,1.2553,0,0,1,4.2937,2.4159Z" fill="#fa0b12"></path><path d="M4.2765,2.4431c.028.01.0555.0213.0827.0334l.0117.0053.0167.0078.0117.0057c.0256.0126.0508.026.0754.04l.0114.0067.0184.0111.0113.0071.0015.001.005-.0253-.0076-.0045-.0114-.0067-.0186-.0106-.0116-.0064c-.0249-.0137-.05-.0264-.0761-.0383l-.0119-.0054L4.3683,2.457l-.0119-.005c-.0219-.0091-.044-.0177-.0663-.0256a1.2419,1.2419,0,0,0-.3123-.066v.0158A1.2218,1.2218,0,0,1,4.2765,2.4431Z" fill="#f8ff09"></path><path d="M4.2314,2.0579c-.0107-.02-.022-.04-.0338-.0591l-.22.0531,0-.0007v.068Z" fill="#f8ff09"></path><path d="M4.1914,1.9889l-.013-.02-.2.0484,0-.0007v.0241Z" fill="#f8ff09"></path><path d="M4.243,2.08,4.2367,2.068l-.2587.0626,0-.0007v.0145Z" fill="#f8ff09"></path><path d="M4.1719,1.9588l-.003-.0045a1.6017,1.6017,0,0,0-.1911-.0437v.0951Z" fill="#fa0b12"></path><polygon points="3.17 1.455 3.17 1.444 3.17 1.428 3.17 1.416 3.17 1.344 3.17 1.332 3.17 1.314 3.17 1.303 3.17 1.297 3.157 1.297 3.157 1.304 3.157 1.315 3.157 1.333 3.157 1.344 3.157 1.417 3.157 1.428 3.157 1.444 3.157 1.456 3.157 1.71 3.17 1.71 3.17 1.455" fill="#f8ff09"></polygon><path d="M3.2968,1.4555V1.71h.649A1.1321,1.1321,0,0,0,3.2968,1.4555Z" fill="#fa0b12"></path><path d="M3.1456,1.4563a1.1311,1.1311,0,0,0-.6374.254h.6374Z" fill="#056506"></path><path d="M4.0251,1.7816c-.0154-.0152-.0311-.03-.0473-.0441v.0381C3.9936,1.7771,4.0094,1.7791,4.0251,1.7816Z" fill="#fa0b12"></path><path d="M4.0535,1.8106l.02.004L4.1,1.8208l.02.0054a.8188.8188,0,0,1,.0835.0281q.0225.0089.0446.0192l.0217.01.0317.0168.022.0127h0V1.9024l-.0112-.0067L4.29,1.883l-.0323-.0167-.0222-.0105-.0358-.0153a.8193.8193,0,0,0-.094-.0308l-.02-.0051-.0266-.0058-.02-.0037q-.03-.0052-.0607-.0084V1.8C4.0033,1.8022,4.0285,1.8058,4.0535,1.8106Z" fill="#f8ff09"></path><path d="M2.17,2.1038a1.1609,1.1609,0,0,0-.0987.3434L2.0879,2.44a1.1414,1.1414,0,0,1,.0968-.3325Z" fill="#f8ff09"></path><path d="M4.18,2.6738c.0615-.0123.1236-.0259.1846-.04l0-.0164c-.06.0145-.122.028-.1829.04-.0674.0135-.136.0257-.2042.0364V2.71C4.0452,2.6992,4.1131,2.6871,4.18,2.6738Z" fill="#f8ff09"></path><path d="M4.1181,3.4873a1.2492,1.2492,0,0,1-.8213.3679v.018a1.2765,1.2765,0,0,0,.9425-.4979l-.0112-.0138A1.2781,1.2781,0,0,1,4.1181,3.4873Z" fill="#f8ff09"></path><path d="M2.3358,3.4873a1.2867,1.2867,0,0,1-.1579-.1925l-.0143.0093a1.2777,1.2777,0,0,0,.982.5684v-.018A1.25,1.25,0,0,1,2.3358,3.4873Z" fill="#f8ff09"></path><path d="M4.18,2.7526c.06-.0119.12-.0251.1791-.0392.0024-.0227.004-.0455.005-.0686-.06.0144-.1213.0278-.182.04-.0675.0135-.1361.0257-.2042.0364v.0675C4.0452,2.778,4.1131,2.7659,4.18,2.7526Z" fill="#f8ff09"></path><path d="M3.1456,1.4451v-.016a1.1586,1.1586,0,0,0-.68.2812H2.49A1.137,1.137,0,0,1,3.1456,1.4451Z" fill="#f8ff09"></path><path d="M4.3594,3.15l.0115.0155a1.274,1.274,0,0,0,.1318-.4925l-.0173-.0106A1.2562,1.2562,0,0,1,4.3594,3.15Z" fill="#f8ff09"></path><path d="M4.3747,2.0308,4.35,2.02a1.2546,1.2546,0,0,1,.1338.4814l.0186.01a1.2736,1.2736,0,0,0-.1277-.4809Z" fill="#f8ff09"></path><path d="M2.3808,1.7919l.0274-.0061L2.4143,1.78c.0141-.0142.0286-.0279.0434-.0413V1.7176Q2.4177,1.753,2.3808,1.7919Z" fill="#f8ff09"></path><path d="M4.18,2.6461c.0616-.0123.124-.026.1852-.0406V2.5986c-.03-.0139-.0612-.0265-.0924-.0378a1.2032,1.2032,0,0,0-.295-.0662v.1875C4.0452,2.6715,4.1132,2.6594,4.18,2.6461Z" fill="#fa0b12"></path><path d="M3.1816,1.286h-.036v.0186a1.2782,1.2782,0,0,0-.83.3759,1.3021,1.3021,0,0,0-.144.1712l-.01-.0006H2.159l-.0481.04h.0154l.0186,0a1.2768,1.2768,0,0,0-.0849.1524l-.04.0376.0124.0011.01.001a1.2881,1.2881,0,0,0-.1018.4291l-.02.0117-.0027.0015-.0016.0529.0087-.0054.0135-.0081,0,.0293,0,.0229-.0178.01-.0027.0016-.0016.0529.0087-.0054L1.94,2.6672a1.2877,1.2877,0,0,0,.1357.51l-.0129.01L2.0583,3.19l.0258.0358.0045-.0032.008-.0056c.01.019.0214.0377.0329.0562l-.0189.0139L2.1063,3.29l.0258.0357.0045-.0032.0171-.0118a1.3025,1.3025,0,0,0,.1617.1971,1.2781,1.2781,0,0,0,.83.3758v.0218h.036V3.8893h.0792v.0161h.036V3.8843a1.2784,1.2784,0,0,0,.8418-.3765,1.3217,1.3217,0,0,0,.1083-.123l.0075.01.0061.0079L4.276,3.36l-.0019-.0024L4.2706,3.353a1.2966,1.2966,0,0,0,.0861-.1352l.0071.01L4.37,3.236l.0167-.0486-.0016-.0023-.0065-.009A1.2842,1.2842,0,0,0,4.5134,2.68l.0047.003.0069.0044.01-.0489-.0033-.002-.0156-.0092,0-.0327,0-.02.0021.0014L4.525,2.58l.01-.0489-.0033-.0021-.0174-.01A1.2868,1.2868,0,0,0,4.3825,2.02v-.023l-.0033-.0015L4.3672,1.99c-.01-.02-.0213-.0392-.0328-.0583V1.8962l-.0026-.0017-.0331-.0192a1.2972,1.2972,0,0,0-.16-.1948,1.2786,1.2786,0,0,0-.8418-.3766V1.286h-.036v.016H3.1816Zm-.036.03v.018a1.25,1.25,0,0,0-.81.3673,1.29,1.29,0,0,0-.1177.1358L2.19,1.8462A1.2773,1.2773,0,0,1,3.1456,1.3157Zm0,.1022a1.1664,1.1664,0,0,0-.7505.3425L2.36,1.7967l-.0111.0027c-.0373.0092-.0746.02-.1116.0312a1.2477,1.2477,0,0,1,.9079-.4857Zm-1.0911.6664.0178.0022a1.2577,1.2577,0,0,0-.1018.4092l-.0186.01A1.2724,1.2724,0,0,1,2.0545,2.0843Zm.0879.1635c.0224.02.0457.04.0693.058.0289.0225.0591.0441.09.0642q-.0332.008-.0659.0174A1.3906,1.3906,0,0,0,2.1,2.4349,1.1394,1.1394,0,0,1,2.1424,2.2478Zm.1741.1188c-.0336-.0217-.0665-.0451-.098-.07-.0247-.0193-.049-.04-.0723-.0607L2.1553,2.21a.8995.8995,0,0,0,.1942.1495ZM2.0879,2.44l-.0171.0073A1.1609,1.1609,0,0,1,2.17,2.1038l.0152.0036A1.1414,1.1414,0,0,0,2.0879,2.44Zm-.029.0125Q2.02,2.47,1.9822,2.49a1.2457,1.2457,0,0,1,.1023-.4014q.0369.0051.0732.0131A1.1717,1.1717,0,0,0,2.0589,2.4524Zm-.1083.2084.0174-.01A1.2578,1.2578,0,0,0,2.1,3.16l-.0142.01A1.2732,1.2732,0,0,1,1.9506,2.6608Zm.1271-.0657v.0133l.0006.0259,0,.0064c.0009.0213.0023.0426.0043.0637l.0012.0119.0023.021.0016.0118a1.1425,1.1425,0,0,0,.1073.3539l-.0136.007a1.1624,1.1624,0,0,1-.12-.5076Zm.0936.5206q-.0317.0174-.0618.0374a1.2462,1.2462,0,0,1-.1306-.5085c.0236-.013.0475-.0254.0718-.037A1.1765,1.1765,0,0,0,2.1713,3.1157Zm-.0077.1884.0143-.0093a1.2867,1.2867,0,0,0,.1579.1925,1.25,1.25,0,0,0,.81.3672v.018A1.2777,1.2777,0,0,1,2.1636,3.3041Zm.1256-.0436.0117.0161q.03.04.0627.0778l.0126.0142.0275.0292.0106.0108.004.0039a1.14,1.14,0,0,0,.7273.3307v.016A1.1609,1.1609,0,0,1,2.39,3.4061l-.0015-.0015a1.1821,1.1821,0,0,1-.1273-.1572l.014-.0068Zm.1059.1674a1.1669,1.1669,0,0,0,.7505.3425v.073a1.2493,1.2493,0,0,1-.9576-.555c.02-.0127.0415-.0245.0629-.0356A1.19,1.19,0,0,0,2.3951,3.4279Zm.9017.4453v-.018a1.2492,1.2492,0,0,0,.8213-.3679,1.2781,1.2781,0,0,0,.11-.1258l.0112.0138A1.2765,1.2765,0,0,1,3.2968,3.8732Zm0-.1021a1.1669,1.1669,0,0,0,.7621-.3432,1.194,1.194,0,0,0,.1126-.1305q.0253.0267.0489.0548a1.2475,1.2475,0,0,1-.9236.4919Zm0-.0272a1.14,1.14,0,0,0,.7388-.3313L4.038,3.412l0-.0014.002-.002a1.1639,1.1639,0,0,0,.1128-.1311l.0108.0112a1.164,1.164,0,0,1-.8665.4712Zm1.0741-.5787L4.3594,3.15a1.2562,1.2562,0,0,0,.126-.4876l.0173.0106A1.274,1.274,0,0,1,4.3709,3.1652Zm-.0984-.12-.02-.0211a1.4036,1.4036,0,0,0-.2416-.2017c.0571-.0094.1144-.02.1708-.031s.1151-.0241.172-.0376A1.1353,1.1353,0,0,1,4.2725,3.045Zm.0932-.2941.001-.0071a1.1828,1.1828,0,0,0,.01-.14l.0159.0076a1.1619,1.1619,0,0,1-.1.4559l-.0113-.0126A1.1429,1.1429,0,0,0,4.3657,2.7509Zm.0375-.1341c.0242.0122.0481.0251.0714.0389a1.2434,1.2434,0,0,1-.1232.4835c-.0162-.0212-.0331-.042-.05-.0622A1.1794,1.1794,0,0,0,4.4032,2.6168Zm.0993-.1051-.0186-.01A1.2546,1.2546,0,0,0,4.35,2.02l.0246.0109h0A1.2736,1.2736,0,0,1,4.5025,2.5117ZM4.1867,1.96l.0129.004.01.0033a1.1607,1.1607,0,0,1,.1739.4846l-.0169-.0073A1.1431,1.1431,0,0,0,4.1867,1.96Zm.04.0131q.0536.018.1057.04a1.2435,1.2435,0,0,1,.1393.4823c-.0251-.0136-.0507-.0262-.0767-.038A1.167,1.167,0,0,0,4.2272,1.9728Zm.049-.11-.0324-.0157a1.2781,1.2781,0,0,0-.1257-.1466,1.25,1.25,0,0,0-.8213-.368V1.315A1.2778,1.2778,0,0,1,4.2762,1.8633Zm-.9794-.5191a1.2474,1.2474,0,0,1,.9249.4936L4.2033,1.83a.83.83,0,0,0-.1115-.0354L4.0589,1.76a1.1664,1.1664,0,0,0-.7621-.3432Zm-.0249-.0471h.0138V1.71h.0111V1.4555a1.1321,1.1321,0,0,1,.649.2548h.0183a1.1377,1.1377,0,0,0-.6673-.2659V1.4283a1.1614,1.1614,0,0,1,.7748.3619l-.0267-.0053L4.04,1.78c-.02-.02-.0407-.0393-.0619-.0577v.0156c.0162.0142.0319.0289.0473.0441-.0157-.0025-.0315-.0045-.0473-.006v.0111q.0306.0031.0607.0084l.02.0037.0266.0058.02.0051a.8193.8193,0,0,1,.094.0308l.0358.0153.0222.0105L4.29,1.883l.0225.0127.0112.0067v.0111h0l-.022-.0127L4.27,1.884l-.0217-.01q-.022-.01-.0446-.0192A.8188.8188,0,0,0,4.12,1.8262L4.1,1.8208l-.0264-.0062-.02-.004c-.025-.0048-.05-.0084-.0757-.011v.0112a.8221.8221,0,0,1,.0887.0138l.02.0044.0263.0067.02.0058c.0225.0067.0448.0144.0667.0231s.0413.0174.0614.0274l.0216.0111.0317.0178q.0186.03.0356.0613l-.0254-.0106-.018-.0072c-.034-.0134-.0685-.0257-.1032-.0367l-.0066-.0021L4.1782,1.92l-.024-.0069L4.1358,1.908a1.6163,1.6163,0,0,0-.158-.0341v.0113a1.5944,1.5944,0,0,1,.1686.0372l.0183.0053.0237.0071L4.2,1.9383l.007.0022c.0365.0118.0728.025.1085.0394l.0176.0072.0254.0109.0089.0172-.0249-.0108-.0173-.0071q-.0528-.0216-.1069-.0394L4.203,1.9531,4.2,1.9522l-.0232-.0071L4.1589,1.94a1.6053,1.6053,0,0,0-.1811-.0406v.0113a1.6017,1.6017,0,0,1,.1911.0437l.003.0045-.1941.0469v.0107l0,.0007.2-.0484.013.02-.2136.0516v.0107l0,.0007.22-.0531c.0118.0193.0231.0391.0338.0591l-.2536.0613V2.13l0,.0007.2587-.0626L4.243,2.08l-.2652.0642V2.155l0,.0008.27-.0654a1.1346,1.1346,0,0,1,.1066.3488c-.02-.0083-.0405-.0161-.061-.0233a1.2553,1.2553,0,0,0-.3159-.0667V2.36a1.2419,1.2419,0,0,1,.3123.066c.0223.0079.0444.0165.0663.0256l.0119.005.0168.0074L4.397,2.47c.0258.0119.0512.0246.0761.0383l.0116.0064.0186.0106.0114.0067.0076.0045-.005.0253-.0015-.001-.0113-.0071-.0184-.0111-.0114-.0067c-.0246-.0144-.05-.0278-.0754-.04L4.3876,2.49l-.0167-.0078-.0117-.0053c-.0272-.0121-.0547-.0233-.0827-.0334a1.2218,1.2218,0,0,0-.2987-.0669v.0112a1.2078,1.2078,0,0,1,.295.0662q.0444.0161.0876.0356l.0116.0054.0168.0079L4.4,2.5082c.0254.0127.05.0262.0748.0406l.0114.0068.0182.0112,0,.0273,0,.0261-.0177-.01L4.476,2.6041c-.0239-.013-.0482-.0251-.0729-.0365l-.0112-.0051-.0163-.0072-.0113-.0048c-.0233-.01-.0468-.019-.0706-.0274a1.2509,1.2509,0,0,0-.3159-.0667v.0112a1.2419,1.2419,0,0,1,.3123.066q.0378.0133.0747.0291l.0112.0048.0161.0073.0112.0051q.0369.0173.0726.0369l.011.0061.0176.01.0108.0064.007.0041-.005.0253-.0032-.002L4.5034,2.66,4.486,2.65l-.0109-.0064q-.0353-.0206-.0718-.0386l-.011-.0054-.016-.0076-.0112-.0051q-.0435-.02-.0886-.0361a1.2127,1.2127,0,0,0-.2987-.0669v.0112a1.2032,1.2032,0,0,1,.295.0662c.0312.0113.0621.0239.0924.0378v.0069c-.0612.0146-.1236.0283-.1852.0406-.0667.0133-.1347.0254-.2021.036v.0113c.0682-.0107.1368-.0229.2042-.0364.0609-.0121.1224-.0256.1829-.04l0,.0164c-.061.0146-.1231.0282-.1846.04-.0668.0133-.1347.0254-.2021.036v.0113c.0681-.0107.1367-.0229.2042-.0364.0607-.0121.1219-.0255.182-.04-.001.0231-.0026.0459-.005.0686-.0593.0141-.12.0273-.1791.0392-.0668.0133-.1347.0254-.2021.036V2.8h0c.0681-.0107.1367-.0229.2042-.0364.0585-.0117.1175-.0246.1757-.0384l-.002.0167c-.0582.0139-.1173.0268-.1758.0385-.0668.0133-.1348.0254-.2023.036l0,.0114.0178-.0029a1.3933,1.3933,0,0,1,.25.2068l.0229.0245.0086.01.0112.0127.0084.01c.0173.02.034.041.05.0622l.008.0107.0114.0154.0077.0108.0015.002-.008.0231L4.3626,3.207l-.0079-.01-.0114-.0151-.0081-.01q-.0243-.0309-.05-.0605l-.0084-.0095-.0111-.0124L4.2569,3.08q-.0332-.0358-.0684-.0694a1.5265,1.5265,0,0,0-.212-.1682l-.0009.0127a1.5105,1.5105,0,0,1,.2052.1636q.0368.0348.071.0721L4.26,3.1l.011.0123.0085.01c.0171.02.0337.04.05.06l.008.01.0113.015a1.2909,1.2909,0,0,1-.0857.136l-.0111-.0141-.0076-.01c-.0157-.0192-.0319-.0379-.0488-.0561l-.0082-.0089-.0109-.0113-.0083-.0086-.012-.012a1.2331,1.2331,0,0,0-.2249-.1747l-.0042.01a1.2312,1.2312,0,0,1,.2213.1722l.0134.0134.0083.0086.0108.0113.0083.0089c.0167.0182.0329.0369.0484.056l.0077.01.011.0141.0071.0093-.0008.0021L4.257,3.38l-.0032-.004-.0075-.0094-.0112-.0138-.0078-.0092q-.0237-.0282-.0491-.055L4.17,3.28l-.0108-.0112L4.1506,3.26c-.0167-.0167-.0339-.033-.0515-.0487A1.3361,1.3361,0,0,0,3.92,3.0764l-.0045.01a1.3332,1.3332,0,0,1,.1766.133l.0311.0287a1.4059,1.4059,0,0,1-.1593.0412.6374.6374,0,0,1-.0741-.03A.6485.6485,0,0,1,3.83,3.2258l-.007.0088a.6594.6594,0,0,0,.0614.0344c.0186.009.0377.0173.0572.0246L3.9033,3.3l0-.0012a.3819.3819,0,0,1-.054-.0229.3884.3884,0,0,1-.04-.0244L3.8018,3.26a.3889.3889,0,0,0,.0809.0431l-.0376.0045c-.0321.0035-.0647.0058-.0972.007L3.735,3.326c.0371-.001.0745-.0034.1113-.0074a1.4075,1.4075,0,0,0,.2856-.0615l.01.01a1.258,1.258,0,0,1-.4321.0806l-.0144.0112h.0023a1.27,1.27,0,0,0,.4379-.0776q-.0318.0421-.0672.0811l0-.0014c-.0759.0172-.1532.0328-.23.0462-.0984.0173-.1984.0316-.298.0426l-.0368.0152c.1125-.0116.2256-.0273.3367-.0468.0722-.0127.145-.0273.2166-.0433l-.0274.0283c-.0791.0184-.16.0341-.24.0466a3.3194,3.3194,0,0,1-.3469.0357q-.0257.0075-.0518.0134a3.3715,3.3715,0,0,0,.4-.0381c.0745-.0116.1494-.026.2231-.0427a1.1333,1.1333,0,0,1-.7171.3151V3.5133l-.0111.001v.38H3.2719V3.5154l-.0111.0007v.3586l-.0338,0H3.2233l-.0417-.0008v-.358l-.0111-.0007v.3786H3.1567v-.38l-.0111-.0009V3.732A1.1341,1.1341,0,0,1,2.44,3.4173c.065.0141.1307.0265.196.0367a3.3778,3.3778,0,0,0,.383.0374c-.0152-.004-.03-.0084-.0453-.0133a3.3609,3.3609,0,0,1-.336-.0351c-.0709-.0111-.1423-.0247-.2127-.04l-.0286-.03c.0644.0141.1295.027.1942.0383.1073.0189.2166.0342.3253.0456l-.034-.0149c-.0968-.0109-.1939-.0249-.2894-.0416-.07-.0123-.14-.0263-.2092-.0417q-.0327-.0361-.0622-.0751a1.2663,1.2663,0,0,0,.412.0685h.0009L2.72,3.3409a1.2592,1.2592,0,0,1-.41-.0731L2.2962,3.25a1.4,1.4,0,0,0,.2877.0622c.0365.004.0736.0064.1105.0074l-.0127-.0115c-.0323-.0012-.0647-.0035-.0966-.0069a1.5462,1.5462,0,0,1-.2985-.066c.0178-.0083.0358-.0161.054-.0232a.9478.9478,0,0,1,.2164-.0566l-.0061-.01a.9582.9582,0,0,0-.2143.0566c-.0192.0076-.0381.0157-.0568.0245l-.0107.0052-.0139.0068-.01.0054c-.0214.0111-.0423.0229-.0628.0356l-.01.0064-.0145.0093-.01.0066-.013.0089-.013-.018.0136-.01.01-.0069.0141-.01.01-.0066c.02-.0131.0407-.0254.0619-.0367l.01-.0056.0136-.007.0107-.0052q.0326-.0157.0665-.0287A.86.86,0,0,1,2.54,3.1248l-.0055-.0106a.8752.8752,0,0,0-.2058.0513q-.0348.0133-.0684.03L2.2493,3.2l-.0137.007-.01.0056c-.0211.0114-.0418.0237-.0619.0368l-.01.0065-.0142.01q-.0169-.0276-.0327-.0561l.0144-.01.01-.0064q.03-.0194.0622-.0363l.01-.0054.0137-.007L2.2278,3.14q.0318-.0153.0648-.0284a.9472.9472,0,0,1,.2145-.0563L2.503,3.0446a.9641.9641,0,0,0-.2145.0567c-.0223.0088-.0443.0185-.066.0289l-.0107.0052-.0136.0069-.01.0055q-.0318.0169-.0622.0363l-.01.0064-.0143.01-.01.0067L2.0866,3.21l-.013-.018.0071-.0052.01-.007.0142-.01.01-.0067q.03-.02.0618-.0375l.01-.0056L2.2,3.1129l.0106-.0053q.0359-.0177.0734-.0321a.8673.8673,0,0,1,.2112-.0516l-.0036-.0107a.8748.8748,0,0,0-.2115.0519q-.0381.0145-.0745.0326A1.1339,1.1339,0,0,1,2.1,2.7519c.0542.0132.109.0259.1635.0378.0646.014.13.0273.1952.04l-.0005-.0114c-.0641-.0121-.1287-.0251-.1923-.039C2.21,2.7667,2.1535,2.7536,2.098,2.74L2.0957,2.72c.0719.02.1451.0379.2181.0529.0475.01.0958.0185.1439.0262V2.7873C2.41,2.78,2.3628,2.7711,2.316,2.7615c-.0741-.0153-.1486-.0334-.2216-.0539q-.0032-.0318-.0045-.0642c.0574.0141.1157.0276.1733.04.0643.014.13.0272.1945.0394V2.7117c-.0641-.0121-.1286-.0252-.1921-.039-.0586-.0128-.1178-.0265-.1762-.0408l0-.02c.074.0209.15.0393.2248.0548.0475.01.0958.0185.1439.0262V2.6812c-.0473-.0076-.0949-.0162-.1417-.0258C2.24,2.64,2.1636,2.6211,2.0888,2.6V2.59a1.3268,1.3268,0,0,1,.3689-.1024V2.4765a1.3334,1.3334,0,0,0-.3688.1014l-.0111.0049L2.0617,2.59l-.0112.0052c-.0243.0115-.0484.0238-.0721.0368l-.0108.0061-.0176.01-.0108.0064-.0116.0069.0008-.0262.01-.0057.0109-.0062.0178-.01.011-.0059q.0359-.0192.0728-.036l.0112-.0051L2.0782,2.56,2.09,2.5547a1.3711,1.3711,0,0,1,.3682-.098V2.4455a1.3918,1.3918,0,0,0-.222.0454,1.3776,1.3776,0,0,0-.1457.0516l-.0113.0048-.0163.0071-.0113.005c-.0248.0112-.0492.0232-.0733.0358l-.011.0059-.0178.01,0-.0168.0006-.036.0183-.0106.0113-.0064c.0246-.0136.05-.0265.075-.0385l.0117-.0055L2.0824,2.49l.0116-.0052a1.3278,1.3278,0,0,1,.3637-.1V2.373a1.3446,1.3446,0,0,0-.22.0466,1.3249,1.3249,0,0,0-.1428.0521l-.0118.0051-.0167.0075L2.0551,2.49q-.0383.018-.0756.0384l-.0114.0064-.0183.01-.0113.0067-.0109.0065.0008-.0262L1.94,2.5255,1.951,2.519l.0186-.01.0116-.0062c.0251-.0133.05-.0257.0763-.0374L2.0694,2.46l.0168-.0073.0119-.0051a1.3713,1.3713,0,0,1,.36-.0944V2.342c-.0306.0037-.0611.0085-.0914.0142a.8949.8949,0,0,1-.2069-.1579c.0111-.03.0235-.0593.0369-.088q.03.0078.059.0172a.9992.9992,0,0,1,.2024.0923V2.2069a1.0058,1.0058,0,0,0-.199-.09c-.019-.0063-.0382-.0118-.0576-.0169L2.19,2.0972l-.0152-.0037-.0119-.0027q-.0363-.008-.0732-.0133L2.077,2.0758l-.0178-.0021-.0124-.0014-.0013,0L2.0479,2.07l.0192-.018.0018,0,.0176.003.0121.0021q.0365.0067.0725.0156l.0117.003L2.198,2.08,2.21,2.083c.02.0057.0405.0119.06.0186a1.2493,1.2493,0,0,1,.1877.0808V2.17a1.262,1.262,0,0,0-.1842-.0789q-.0291-.01-.0588-.0181L2.2031,2.07l-.0152-.004-.0117-.003q-.0362-.009-.0726-.0157l-.0121-.0023-.0176-.0029a1.2689,1.2689,0,0,1,.0847-.15l.02.0013.0134.0012a.6554.6554,0,0,1,.0789.013L2.283,1.91l.016.0041.0079.0022.0042.0012a.6691.6691,0,0,1,.1466.0629V1.9676a.6761.6761,0,0,0-.14-.0594L2.31,1.9057l-.0038-.0011L2.29,1.9l-.0124-.0029a.6794.6794,0,0,0-.0788-.0136l-.0134-.0014-.02-.0015L2.152,1.88l-.01,0,.0212-.0175h.0014l.0137.0009.02.0017.0134.0015a.7073.7073,0,0,1,.0793.014l.0125.003.0161.0043.0007,0,.0114.0033a.7253.7253,0,0,1,.1267.0515V1.93a.7239.7239,0,0,0-.1192-.0483l-.0121-.0036-.0038-.0012L2.31,1.874l-.0124-.0032L2.257,1.8622q.0309-.01.0624-.0184l.02-.005.0258-.0062.0007,0,.0185-.004c.0244-.0051.0491-.01.0738-.0133V1.8038q-.03.0046-.0608.0106l-.02.0041-.0142.0031-.0116.0027-.02.0048c-.0331.0084-.066.0182-.0983.0292l-.0149-.0021-.0134-.0016-.0039,0,.0055-.0018L2.226,1.846c.04-.0129.0806-.0245.1212-.0346L2.352,1.81l.0152-.0037L2.3941,1.8l.0207-.0045.0429-.0085V1.776l-.0288.0056.0288-.0275V1.7383c-.0148.0134-.0293.0271-.0434.0413l-.0061.0062-.0274.0061q.0368-.0389.0769-.0743V1.71H2.466a1.1586,1.1586,0,0,1,.68-.2812v.016A1.137,1.137,0,0,0,2.49,1.71h.0183a1.1311,1.1311,0,0,1,.6374-.254V1.71h.0111V1.2971h.0138V1.71h.0111V1.314l.0417-.0008H3.227l.0338.0005V1.71h.0111V1.2971Z"></path><path d="M2.4818,1.7325H2.48V2.7994a.674.674,0,0,0,.2159.4915.7719.7719,0,0,0,.45.2l.0111.001.0138.0011.0111.0006c.0139.0006.0278.001.0417.0009l.0221,0,.0154-.0007.0111-.0007.0138-.0011.0111-.001a.77.77,0,0,0,.402-.1636A.675.675,0,0,0,3.9556,2.8V1.7325H2.4818Zm.0333.2793h.01V1.9046h-.01V1.8888h.01v-.06h-.01V1.8023h.022v.0115h.01V1.8023h.026v.0115h.01V1.8023h.0172v-.003h-.01V1.7617H2.613v.017h.01v-.017H2.65v.017h.01v-.017h.021v.0376h-.01v.003H2.689v.0115H2.7V1.8023h.026v.0115H2.736V1.8023h.0209v.0268h-.01v.06h.01v.0158h-.01v.1072h.01v.0161H2.5151Zm0,.5956h.01V2.5h-.01V2.4843h.01v-.06h-.01V2.3979h.022v.0115h.01V2.3979h.026v.0115h.01V2.3979h.0172v-.003h-.01V2.3573H2.613v.017h.01v-.017H2.65v.017h.01v-.017h.021v.0376h-.01v.003H2.689v.0115H2.7V2.3979h.026v.0115H2.736V2.3979h.0209v.0268h-.01v.06h.01V2.5h-.01v.1072h.01v.0161H2.5151ZM2.78,3.289l-.0113-.0114L2.7759,3.27,2.7,3.1946l-.0072.0072-.0112-.0112.0072-.0073-.0421-.0422L2.64,3.1484,2.6208,3.13l.0155-.0156.0081.0082.0075-.0075-.0082-.0081.0184-.0185.0082.0082.0074-.0074L2.67,3.0806l.0122-.0122L2.68,3.0663l-.0072.0072-.0265-.0266.0155-.0155.0119.012.0075-.0075-.012-.012.0184-.0184.012.012L2.7066,3.01l-.012-.012.0148-.0149L2.736,3.01l-.0073.0073.0021.0021.0129-.013.0082.0082.0074-.0074-.0081-.0082L2.77,2.98l.0082.0081.0074-.0074L2.777,2.9729l.0148-.0148.0189.0189-.0073.0073.0421.0422.0073-.0073L2.864,3.03l-.0073.0073.0757.0758L2.94,3.1063l.0113.0113Zm.91-1.2772H3.7V1.9046H3.69V1.8888H3.7v-.06H3.69V1.8023h.022v.0115h.0105V1.8023h.026v.0115h.01V1.8023h.0172v-.003h-.01V1.7617h.022v.017h.01v-.017h.026v.017h.01v-.017h.0209v.0376h-.01v.003h.0182v.0115h.01V1.8023H3.9v.0115h.01V1.8023h.021v.0268h-.01v.06h.01v.0158h-.01v.1072h.01v.0161H3.69Zm0,.5956H3.7V2.5H3.69V2.4843H3.7v-.06H3.69V2.3979h.022v.0115h.0105V2.3979h.026v.0115h.01V2.3979h.0172v-.003h-.01V2.3573h.022v.017h.01v-.017h.026v.017h.01v-.017h.0209v.0376h-.01v.003h.0182v.0115h.01V2.3979H3.9v.0115h.01V2.3979h.021v.0268h-.01v.06h.01V2.5h-.01v.1072h.01v.0161H3.69ZM3.6922,3l-.0081.0082.0074.0074L3.7,3.007l.0122.0122.0021-.0021L3.7067,3.01l.0265-.0266.0155.0156-.0119.012.0074.0074.012-.012.0183.0185-.0119.0119.0074.0075.012-.012.0148.0148L3.77,3.0735,3.763,3.0663l-.0021.0021.0129.0129L3.7657,3.09l.0074.0074.0081-.0081L3.8,3.1072l-.0081.0081.0074.0075.0082-.0082.0148.0149-.0189.0189-.0073-.0072-.0421.0421.0073.0073L3.75,3.2018l-.0073-.0072L3.6668,3.27l.0072.0072-.0113.0114-.171-.1714.0113-.0113.0073.0072.0756-.0758L3.5787,3.03,3.59,3.0192l.0072.0073.0421-.0422L3.632,2.977l.0189-.0189.0155.0155-.0082.0082.0075.0074.0081-.0081ZM3.667,2.7333a.4613.4613,0,0,1-.1565.349.4477.4477,0,0,1-.2759.11l-.0113,0H3.2187A.4511.4511,0,0,1,2.9,3.0582a.4644.4644,0,0,1-.1316-.3251V2.0345H3.667Zm-.43-.9716v.017h.01v-.017h.0209v.0376h-.01v.003h.0183v.0115h.01V1.8023h.026v.0115h.01V1.8023h.0209v.0268h-.01v.06h.01v.0158h-.01v.1072h.01v.0161H3.1024V2.0118h.01V1.9046h-.01V1.8888h.01v-.06h-.01V1.8023h.0219v.0115h.01V1.8023h.026v.0115h.01V1.8023h.0173v-.003h-.01V1.7617H3.2v.017h.01v-.017h.026Z" fill="#fa0b12"></path><rect x="3.8453" y="1.8291" width="0.0065" height="0.0597" fill="#fa0b12"></rect><rect x="2.6707" y="2.4247" width="0.0066" height="0.0596" fill="#fa0b12"></rect><rect x="3.7693" y="2.4247" width="0.0065" height="0.0596" fill="#fa0b12"></rect><rect x="3.8453" y="2.4247" width="0.0065" height="0.0596" fill="#fa0b12"></rect><rect x="2.7161" y="3.0809" width="0.0065" height="0.0596" transform="translate(-1.4031 2.834) rotate(-45)" fill="#fa0b12"></rect><rect x="2.7698" y="3.0271" width="0.0065" height="0.0596" transform="translate(-1.3493 2.8562) rotate(-45)" fill="#fa0b12"></rect><rect x="2.5948" y="1.8291" width="0.0065" height="0.0597" fill="#fa0b12"></rect><rect x="3.182" y="1.8291" width="0.0066" height="0.0597" fill="#fa0b12"></rect><rect x="3.7693" y="1.8291" width="0.0065" height="0.0597" fill="#fa0b12"></rect><rect x="2.5948" y="2.4247" width="0.0065" height="0.0596" fill="#fa0b12"></rect><rect x="3.258" y="1.8291" width="0.0065" height="0.0597" fill="#fa0b12"></rect><rect x="3.6397" y="3.0536" width="0.0596" height="0.0065" transform="translate(-1.0863 3.4958) rotate(-45.068)" fill="#fa0b12"></rect><rect x="3.6934" y="3.1074" width="0.0596" height="0.0065" transform="translate(-1.1091 3.5438) rotate(-45)" fill="#fa0b12"></rect><rect x="2.6707" y="1.8291" width="0.0066" height="0.0597" fill="#fa0b12"></rect><path d="M3.2608,1.71H2.4577V2.7994l0,.0184.0005.0114a.6764.6764,0,0,0,.0334.184l.0036.0107.0076.0207.0041.0107.0079.0187c.0059.0137.0123.0271.0191.04l.0055.0106.0113.02.0061.01a.7028.7028,0,0,0,.1237.1518l.001.0009.0127.0115.0251.0213.0142.0112a.786.786,0,0,0,.1479.09l.034.0149c.019.0078.0382.0149.0578.0212.0149.0049.03.0093.0453.0133a.7987.7987,0,0,0,.1269.0223l.0111.0009.0138.001.0111.0007.0378.0009h.0039l.0229,0,.0146-.0006.0111-.0007.0138-.0011.0111-.001A.7962.7962,0,0,0,3.39,3.4984q.0261-.0059.0518-.0134c.0206-.006.041-.0129.061-.02L3.54,3.4493a.7753.7753,0,0,0,.1551-.0909L3.71,3.3472l.0032-.0025L3.735,3.326l.0129-.0115A.7112.7112,0,0,0,3.8018,3.26l.0074-.0084.014-.0169.007-.0088a.6981.6981,0,0,0,.0849-.1392l.0045-.01.0076-.0179.0042-.01a.6886.6886,0,0,0,.0442-.1935l.0009-.0127.0007-.0142,0-.0114,0-.0164h0V1.71h-.717ZM3.9556,2.8a.675.675,0,0,1-.2568.5276.77.77,0,0,1-.402.1636l-.0111.001-.0138.0011-.0111.0007-.0154.0007-.0221,0c-.0139,0-.0278,0-.0417-.0009l-.0111-.0006-.0138-.0011-.0111-.001a.7719.7719,0,0,1-.45-.2A.674.674,0,0,1,2.48,2.7994V1.7325H3.9556Z" fill="#fff"></path><path d="M2.78,2.0457v.6874A.453.453,0,0,0,2.908,3.05a.4394.4394,0,0,0,.3153.1314l.0109,0a.4361.4361,0,0,0,.269-.1076.45.45,0,0,0,.1527-.3406V2.0457H2.78Zm.27.5864a.0993.0993,0,0,1-.0337.075.0953.0953,0,0,1-.0593.0238.0963.0963,0,0,1-.0719-.0289.1.1,0,0,1-.0284-.07V2.4811H3.05Zm.27.3391a.099.099,0,0,1-.0337.075.0956.0956,0,0,1-.0593.0238H3.2233a.0967.0967,0,0,1-.0683-.0289.0994.0994,0,0,1-.0283-.07V2.82H3.32Zm0-.3391a.099.099,0,0,1-.0337.075.0951.0951,0,0,1-.0593.0238H3.2233A.0967.0967,0,0,1,3.155,2.702a.0994.0994,0,0,1-.0283-.07V2.4811H3.32Zm.0767-.151H3.59v.151a.0992.0992,0,0,1-.0336.075.095.095,0,0,1-.1313-.0051.0994.0994,0,0,1-.0283-.07ZM3.32,2.142v.151a.0993.0993,0,0,1-.0337.0751.0955.0955,0,0,1-.0593.0237H3.2233a.0967.0967,0,0,1-.0683-.0289.099.099,0,0,1-.0283-.07V2.142H3.32Z" fill="#fff"></path><path d="M2.7685,2.0345v.6986A.4644.4644,0,0,0,2.9,3.0582a.4511.4511,0,0,0,.3186.1347h.0046l.0113,0a.4477.4477,0,0,0,.2759-.11.4613.4613,0,0,0,.1565-.349V2.0345H2.7685Zm.8874.6988a.45.45,0,0,1-.1527.3406.4361.4361,0,0,1-.269.1076l-.0109,0A.4394.4394,0,0,1,2.908,3.05.453.453,0,0,1,2.78,2.7331V2.0457h.8763Z"></path><path d="M2.5869,1.9748a.0491.0491,0,1,1,.0982,0v.037H2.743V1.9046H2.529v.1072h.0579Z" fill="#f8ff09"></path><polygon points="2.676 2.016 2.596 2.016 2.587 2.016 2.519 2.016 2.519 2.024 2.753 2.024 2.753 2.016 2.685 2.016 2.676 2.016" fill="#f8ff09"></polygon><path d="M2.7569,2.0118h-.01V1.9046h.01V1.8888h-.01v-.06h.01V1.8023H2.736v.0115H2.7255V1.8023H2.7v.0115h-.01V1.8023H2.6707v-.003h.01V1.7617H2.66v.017H2.65v-.017h-.026v.017h-.01v-.017H2.5911v.0376h.01v.003H2.5841v.0115h-.01V1.8023h-.026v.0115h-.01V1.8023h-.022v.0268h.01v.06h-.01v.0158h.01v.1072h-.01v.0161h.2418Zm-.0037.0124H2.5188V2.0156h.2344Zm-.2344-.1317h.2344v.0084H2.5188Zm.01-.0634V1.8275h.0621v.0613H2.529Zm-.01-.0231h.0146v.0115h.0179V1.806H2.57v.0115h.0179V1.806h.0135v.0194H2.5188Zm.0862-.0037V1.7978h.062v.091H2.605V1.8023Zm-.01-.0369h.0145v.017h.0179v-.017h.0186v.017h.0179v-.017h.0136v.03H2.5948Zm.1084.0521V1.806h.0186v.0115H2.74V1.806h.0135v.0194H2.6707V1.806h.0146v.0115Zm.0417.01H2.743v.0613H2.681V1.8275h.0639Zm-.1436.0016v.06H2.5948v-.06Zm.076.06H2.6707v-.06h.0066Zm-.1483.0158h.214v.1072H2.6851v-.037a.0491.0491,0,1,0-.0982,0v.037H2.529Zm.07.0713a.0367.0367,0,1,1,.0734,0v.0359H2.5993Zm.0367-.04a.0406.0406,0,0,0-.04.04v.0359h-.005v-.037a.0454.0454,0,1,1,.0908,0v.037h-.005V1.9759A.0405.0405,0,0,0,2.636,1.9354Z"></path><path d="M2.6814,2.0118v-.037a.0454.0454,0,1,0-.0908,0v.037h.005V1.9759a.04.04,0,1,1,.0808,0v.0359Z" fill="#f8ff09"></path><polygon points="2.677 1.765 2.664 1.765 2.664 1.782 2.646 1.782 2.646 1.765 2.627 1.765 2.627 1.782 2.609 1.782 2.609 1.765 2.595 1.765 2.595 1.796 2.677 1.796 2.677 1.765" fill="#f8ff09"></polygon><path d="M2.667,1.8888v-.091H2.605v.091Zm-.0195-.0273h-.023V1.8287a.0115.0115,0,0,1,.023,0Z" fill="#f8ff09"></path><path d="M2.636,1.8209a.0078.0078,0,0,0-.0078.0078v.0291h.0156V1.8287A.0078.0078,0,0,0,2.636,1.8209Z" fill="#f8ff09"></path><path d="M2.636,1.8172a.0116.0116,0,0,0-.0115.0115v.0328h.023V1.8287A.0115.0115,0,0,0,2.636,1.8172Zm.0078.0406H2.6282V1.8287a.0078.0078,0,1,1,.0156,0Z"></path><path d="M2.6727,1.9759a.0367.0367,0,1,0-.0734,0v.0359h.0734Z" fill="#f8ff09"></path><polygon points="2.671 1.806 2.671 1.825 2.753 1.825 2.753 1.806 2.74 1.806 2.74 1.818 2.722 1.818 2.722 1.806 2.703 1.806 2.703 1.818 2.685 1.818 2.685 1.806 2.671 1.806" fill="#f8ff09"></polygon><path d="M2.6791,1.8275H2.681v.0613h.062V1.8275H2.6791Zm.0444.0439h-.023v-.02a.0115.0115,0,0,1,.023,0Z" fill="#f8ff09"></path><path d="M2.712,1.8438a.0078.0078,0,0,0-.0078.0078v.0161H2.72V1.8516A.0078.0078,0,0,0,2.712,1.8438Z" fill="#f8ff09"></path><path d="M2.712,1.84a.0115.0115,0,0,0-.0115.0115v.02h.023v-.02A.0115.0115,0,0,0,2.712,1.84Zm.0078.0276H2.7042V1.8516a.0078.0078,0,0,1,.0156,0Z"></path><polygon points="2.601 1.806 2.588 1.806 2.588 1.818 2.57 1.818 2.57 1.806 2.551 1.806 2.551 1.818 2.533 1.818 2.533 1.806 2.519 1.806 2.519 1.825 2.601 1.825 2.601 1.806" fill="#f8ff09"></polygon><path d="M2.5911,1.8291V1.8275H2.529v.0613h.0621Zm-.02.0423H2.5486v-.02a.0115.0115,0,1,1,.0229,0Z" fill="#f8ff09"></path><path d="M2.56,1.8438a.0078.0078,0,0,0-.0078.0078v.0161h.0155V1.8516A.0077.0077,0,0,0,2.56,1.8438Z" fill="#f8ff09"></path><path d="M2.56,1.84a.0114.0114,0,0,0-.0115.0115v.02h.0229v-.02A.0114.0114,0,0,0,2.56,1.84Zm.0077.0276H2.5523V1.8516A.0078.0078,0,0,1,2.56,1.8438a.0077.0077,0,0,1,.0077.0078Z"></path><polygon points="2.747 1.901 2.753 1.901 2.753 1.892 2.747 1.892 2.677 1.892 2.671 1.892 2.601 1.892 2.595 1.892 2.525 1.892 2.519 1.892 2.519 1.901 2.525 1.901 2.747 1.901" fill="#f8ff09"></polygon><path d="M3.1163,1.9046v.1072h.0579v-.037a.0491.0491,0,1,1,.0982,0v.037H3.33V1.9046h-.214Z" fill="#f8ff09"></path><polygon points="3.264 2.016 3.223 2.016 3.183 2.016 3.174 2.016 3.106 2.016 3.106 2.024 3.223 2.024 3.34 2.024 3.34 2.016 3.272 2.016 3.264 2.016" fill="#f8ff09"></polygon><path d="M3.2233,1.9293a.0455.0455,0,0,0-.0454.0455v.037h.005V1.9759a.04.04,0,1,1,.0808,0v.0359h.005v-.037A.0455.0455,0,0,0,3.2233,1.9293Z" fill="#f8ff09"></path><polygon points="3.233 1.765 3.223 1.765 3.214 1.765 3.214 1.782 3.197 1.782 3.197 1.765 3.182 1.765 3.182 1.796 3.223 1.796 3.264 1.796 3.264 1.765 3.251 1.765 3.251 1.782 3.233 1.782 3.233 1.765" fill="#f8ff09"></polygon><path d="M3.2108,1.7617v.017H3.2v-.017h-.022v.0376h.01v.003H3.1713v.0115h-.01V1.8023h-.026v.0115h-.01V1.8023H3.1024v.0268h.01v.06h-.01v.0158h.01v.1072h-.01v.0161h.2418V2.0118h-.01V1.9046h.01V1.8888h-.01v-.06h.01V1.8023H3.3233v.0115h-.01V1.8023h-.026v.0115h-.01V1.8023H3.258v-.003h.01V1.7617H3.2473v.017h-.01v-.017h-.026Zm.04.0037h.0135v.03H3.182v-.03h.0146v.017h.0179v-.017h.0186v.017H3.251Zm.0052.0324H3.2543v.091h-.062v-.091h.0639Zm.0343.02V1.806h.0186v.0115H3.327V1.806h.0135v.0194H3.258V1.806h.0146v.0115Zm.0416.01H3.33v.0613H3.2682V1.8275h.0639Zm.0084.0734H3.1061V1.8925h.2344Zm0,.1233H3.1061V2.0156h.2344Zm-.0718-.0124h-.005V1.9759a.04.04,0,1,0-.0808,0v.0359h-.005v-.037a.0454.0454,0,1,1,.0908,0Zm-.0821-.0359a.0367.0367,0,1,1,.0734,0v.0359H3.1866Zm.1437.0359H3.2724v-.037a.0491.0491,0,1,0-.0982,0v.037H3.1163V1.9046H3.33Zm-.214-.1827V1.8275h.062v.0613h-.062Zm-.01-.0231h.0145v.0115h.0179V1.806h.0186v.0115H3.175V1.806h.0136v.0194H3.1061Zm.1584.0828H3.258v-.06h.0065Zm-.0759-.06v.06H3.182v-.06Z"></path><path d="M3.19,1.7978h.0019v.091h.062v-.091H3.19Zm.0444.0637h-.023V1.8287a.0115.0115,0,0,1,.023,0Z" fill="#f8ff09"></path><path d="M3.2233,1.8209a.0078.0078,0,0,0-.0078.0078v.0291h.0156V1.8287A.0078.0078,0,0,0,3.2233,1.8209Z" fill="#f8ff09"></path><path d="M3.2233,1.8172a.0116.0116,0,0,0-.0115.0115v.0328h.023V1.8287A.0116.0116,0,0,0,3.2233,1.8172Zm.0078.0406H3.2155V1.8287a.0078.0078,0,1,1,.0156,0Z"></path><path d="M3.26,2.0118V1.9759a.0367.0367,0,1,0-.0734,0v.0359H3.26Z" fill="#f8ff09"></path><polygon points="3.258 1.806 3.258 1.825 3.34 1.825 3.34 1.806 3.327 1.806 3.327 1.818 3.309 1.818 3.309 1.806 3.29 1.806 3.29 1.818 3.273 1.818 3.273 1.806 3.258 1.806" fill="#f8ff09"></polygon><path d="M3.2664,1.8275h.0018v.0613H3.33V1.8275H3.2664Zm.0443.0439H3.2878v-.02a.0115.0115,0,1,1,.0229,0Z" fill="#f8ff09"></path><path d="M3.2993,1.8438a.0078.0078,0,0,0-.0078.0078v.0161H3.307V1.8516A.0078.0078,0,0,0,3.2993,1.8438Z" fill="#f8ff09"></path><path d="M3.2993,1.84a.0114.0114,0,0,0-.0115.0115v.02h.0229v-.02A.0114.0114,0,0,0,3.2993,1.84Zm.0077.0276H3.2915V1.8516a.0078.0078,0,1,1,.0155,0Z"></path><polygon points="3.189 1.806 3.175 1.806 3.175 1.818 3.157 1.818 3.157 1.806 3.138 1.806 3.138 1.818 3.121 1.818 3.121 1.806 3.106 1.806 3.106 1.825 3.189 1.825 3.189 1.806" fill="#f8ff09"></polygon><path d="M3.1783,1.8291V1.8275h-.062v.0613h.062Zm-.02.0423h-.023v-.02a.0115.0115,0,0,1,.023,0Z" fill="#f8ff09"></path><path d="M3.1473,1.8438a.0078.0078,0,0,0-.0078.0078v.0161h.0156V1.8516A.0078.0078,0,0,0,3.1473,1.8438Z" fill="#f8ff09"></path><path d="M3.1473,1.84a.0115.0115,0,0,0-.0115.0115v.02h.023v-.02A.0114.0114,0,0,0,3.1473,1.84Zm.0078.0276H3.14V1.8516a.0078.0078,0,0,1,.0156,0Z"></path><polygon points="3.264 1.892 3.258 1.892 3.223 1.892 3.189 1.892 3.182 1.892 3.113 1.892 3.106 1.892 3.106 1.901 3.113 1.901 3.223 1.901 3.334 1.901 3.34 1.901 3.34 1.892 3.334 1.892 3.264 1.892" fill="#f8ff09"></polygon><polygon points="3.851 2.016 3.77 2.016 3.761 2.016 3.693 2.016 3.693 2.024 3.928 2.024 3.928 2.016 3.86 2.016 3.851 2.016" fill="#f8ff09"></polygon><path d="M3.7615,1.9748a.0491.0491,0,1,1,.0981,0v.037h.0579V1.9046H3.7036v.1072h.0579Z" fill="#f8ff09"></path><path d="M3.9315,2.0118h-.01V1.9046h.01V1.8888h-.01v-.06h.01V1.8023h-.021v.0115H3.9V1.8023H3.874v.0115h-.01V1.8023H3.8453v-.003h.01V1.7617H3.8346v.017h-.01v-.017h-.026v.017h-.01v-.017h-.022v.0376h.01v.003H3.7586v.0115h-.01V1.8023h-.026v.0115H3.7116V1.8023H3.69v.0268H3.7v.06H3.69v.0158H3.7v.1072H3.69v.0161h.2419Zm-.0037.0124H3.6933V2.0156h.2345Zm-.2345-.1317h.2345v.0084H3.6933Zm.01-.0634V1.8275h.062v.0613h-.062Zm-.01-.0231h.0146v.0115h.0179V1.806h.0186v.0115h.0179V1.806h.0135v.0194H3.6933ZM3.78,1.8023V1.7978h.0621v.091H3.78V1.8023Zm-.01-.0369h.0146v.017h.0179v-.017H3.82v.017h.0179v-.017h.0135v.03H3.7693Zm.1084.0521V1.806h.0186v.0115h.0179V1.806h.0136v.0194H3.8453V1.806H3.86v.0115Zm.0417.01H3.9175v.0613h-.062V1.8275h.0639Zm-.1436.0016v.06H3.7693v-.06Zm.076.06H3.8453v-.06h.0065Zm-.1482.0158h.2139v.1072H3.86v-.037a.0491.0491,0,1,0-.0981,0v.037H3.7036Zm.07.0713a.0367.0367,0,1,1,.0733,0v.0359H3.7739Zm.0366-.04a.04.04,0,0,0-.04.04v.0359h-.005v-.037a.0454.0454,0,1,1,.0907,0v.037h-.005V1.9759A.0405.0405,0,0,0,3.8105,1.9354Z"></path><path d="M3.8559,2.0118v-.037a.0454.0454,0,1,0-.0907,0v.037H3.77V1.9759a.04.04,0,1,1,.0807,0v.0359Z" fill="#f8ff09"></path><polygon points="3.852 1.765 3.838 1.765 3.838 1.782 3.82 1.782 3.82 1.765 3.802 1.765 3.802 1.782 3.784 1.782 3.784 1.765 3.769 1.765 3.769 1.796 3.852 1.796 3.852 1.765" fill="#f8ff09"></polygon><path d="M3.8416,1.8888v-.091H3.78v.091Zm-.02-.0273H3.7991V1.8287a.0115.0115,0,1,1,.0229,0Z" fill="#f8ff09"></path><path d="M3.8105,1.8209a.0078.0078,0,0,0-.0077.0078v.0291h.0155V1.8287A.0078.0078,0,0,0,3.8105,1.8209Z" fill="#f8ff09"></path><path d="M3.8105,1.8172a.0115.0115,0,0,0-.0114.0115v.0328H3.822V1.8287A.0115.0115,0,0,0,3.8105,1.8172Zm.0078.0406H3.8028V1.8287a.0078.0078,0,1,1,.0155,0Z"></path><path d="M3.8472,1.9759a.0367.0367,0,1,0-.0733,0v.0359h.0733Z" fill="#f8ff09"></path><polygon points="3.845 1.806 3.845 1.825 3.928 1.825 3.928 1.806 3.914 1.806 3.914 1.818 3.896 1.818 3.896 1.806 3.878 1.806 3.878 1.818 3.86 1.818 3.86 1.806 3.845 1.806" fill="#f8ff09"></polygon><path d="M3.8536,1.8275h.0019v.0613h.062V1.8275H3.8536Zm.0444.0439H3.875v-.02a.0115.0115,0,1,1,.023,0Z" fill="#f8ff09"></path><path d="M3.8865,1.8438a.0078.0078,0,0,0-.0078.0078v.0161h.0156V1.8516A.0078.0078,0,0,0,3.8865,1.8438Z" fill="#f8ff09"></path><path d="M3.8865,1.84a.0115.0115,0,0,0-.0115.0115v.02h.023v-.02A.0115.0115,0,0,0,3.8865,1.84Zm.0078.0276H3.8787V1.8516a.0078.0078,0,0,1,.0156,0Z"></path><polygon points="3.776 1.806 3.762 1.806 3.762 1.818 3.744 1.818 3.744 1.806 3.726 1.806 3.726 1.818 3.708 1.818 3.708 1.806 3.693 1.806 3.693 1.825 3.776 1.825 3.776 1.806" fill="#f8ff09"></polygon><path d="M3.7656,1.8291V1.8275h-.062v.0613h.062Zm-.0195.0423h-.023v-.02a.0115.0115,0,0,1,.023,0Z" fill="#f8ff09"></path><path d="M3.7346,1.8438a.0078.0078,0,0,0-.0078.0078v.0161h.0156V1.8516A.0078.0078,0,0,0,3.7346,1.8438Z" fill="#f8ff09"></path><path d="M3.7346,1.84a.0115.0115,0,0,0-.0115.0115v.02h.023v-.02A.0115.0115,0,0,0,3.7346,1.84Zm.0078.0276H3.7268V1.8516a.0078.0078,0,0,1,.0156,0Z"></path><polygon points="3.921 1.901 3.928 1.901 3.928 1.892 3.921 1.892 3.852 1.892 3.845 1.892 3.776 1.892 3.769 1.892 3.7 1.892 3.693 1.892 3.693 1.901 3.7 1.901 3.921 1.901" fill="#f8ff09"></polygon><path d="M3.7615,2.57a.0491.0491,0,1,1,.0981,0v.0371h.0579V2.5H3.7036v.1072h.0579Z" fill="#f8ff09"></path><polygon points="3.851 2.611 3.77 2.611 3.761 2.611 3.693 2.611 3.693 2.62 3.928 2.62 3.928 2.611 3.86 2.611 3.851 2.611" fill="#f8ff09"></polygon><path d="M3.9315,2.6074h-.01V2.5h.01V2.4843h-.01v-.06h.01V2.3979h-.021v.0115H3.9V2.3979H3.874v.0115h-.01V2.3979H3.8453v-.003h.01V2.3573H3.8346v.017h-.01v-.017h-.026v.017h-.01v-.017h-.022v.0376h.01v.003H3.7586v.0115h-.01V2.3979h-.026v.0115H3.7116V2.3979H3.69v.0268H3.7v.06H3.69V2.5H3.7v.1072H3.69v.0161h.2419ZM3.9278,2.62H3.6933V2.6111h.2345Zm-.2345-.1317h.2345v.0084H3.6933Zm0-.0865h.0146v.0115h.0179V2.4016h.0186v.0115h.0179V2.4016h.0135V2.421H3.6933ZM3.78,2.3979V2.3934h.0621v.0909H3.78V2.3979Zm-.01-.0369h.0146v.017h.0179V2.361H3.82v.017h.0179V2.361h.0135v.03H3.7693Zm.1084.0521V2.4016h.0186v.0115h.0179V2.4016h.0136V2.421H3.8453V2.4016H3.86v.0115Zm.04.0116v.06h-.062V2.423h.062Zm-.1417.06H3.7693v-.06h.0065Zm.076,0H3.8453v-.06h.0065Zm-.1482-.06V2.423h.062v.0613h-.062Zm0,.0755h.2139v.1072H3.86V2.57a.0491.0491,0,1,0-.0981,0v.0371H3.7036Zm.07.0713a.0367.0367,0,1,1,.0733,0v.0359H3.7739Zm.0366-.04a.04.04,0,0,0-.04.04v.0359h-.005V2.57a.0454.0454,0,1,1,.0907,0v.0371h-.005V2.5715A.0405.0405,0,0,0,3.8105,2.531Z"></path><path d="M3.8559,2.6074V2.57a.0454.0454,0,1,0-.0907,0v.0371H3.77V2.5715a.04.04,0,1,1,.0807,0v.0359Z" fill="#f8ff09"></path><polygon points="3.852 2.361 3.838 2.361 3.838 2.378 3.82 2.378 3.82 2.361 3.802 2.361 3.802 2.378 3.784 2.378 3.784 2.361 3.769 2.361 3.769 2.391 3.852 2.391 3.852 2.361" fill="#f8ff09"></polygon><path d="M3.8416,2.4843V2.3934H3.78v.0909Zm-.02-.0272H3.7991V2.4243a.0115.0115,0,1,1,.0229,0Z" fill="#f8ff09"></path><path d="M3.8105,2.4165a.0078.0078,0,0,0-.0077.0078v.0291h.0155V2.4243A.0078.0078,0,0,0,3.8105,2.4165Z" fill="#f8ff09"></path><path d="M3.8105,2.4128a.0115.0115,0,0,0-.0114.0115v.0328H3.822V2.4243A.0115.0115,0,0,0,3.8105,2.4128Zm.0078.0406H3.8028V2.4243a.0078.0078,0,1,1,.0155,0Z"></path><path d="M3.8472,2.5715a.0367.0367,0,1,0-.0733,0v.0359h.0733Z" fill="#f8ff09"></path><polygon points="3.845 2.402 3.845 2.421 3.928 2.421 3.928 2.402 3.914 2.402 3.914 2.413 3.896 2.413 3.896 2.402 3.878 2.402 3.878 2.413 3.86 2.413 3.86 2.402 3.845 2.402" fill="#f8ff09"></polygon><path d="M3.8555,2.4247v.06h.062V2.423h-.062Zm.0425.0423H3.875v-.02a.0115.0115,0,1,1,.023,0Z" fill="#f8ff09"></path><path d="M3.8865,2.4394a.0078.0078,0,0,0-.0078.0078v.0161h.0156V2.4472A.0078.0078,0,0,0,3.8865,2.4394Z" fill="#f8ff09"></path><path d="M3.8865,2.4356a.0116.0116,0,0,0-.0115.0116v.02h.023v-.02A.0116.0116,0,0,0,3.8865,2.4356Zm.0078.0277H3.8787V2.4472a.0078.0078,0,1,1,.0156,0Z"></path><polygon points="3.776 2.402 3.762 2.402 3.762 2.413 3.744 2.413 3.744 2.402 3.726 2.402 3.726 2.413 3.708 2.413 3.708 2.402 3.693 2.402 3.693 2.421 3.776 2.421 3.776 2.402" fill="#f8ff09"></polygon><path d="M3.7656,2.4247V2.423h-.062v.0613h.062Zm-.0195.0423h-.023v-.02a.0115.0115,0,1,1,.023,0Z" fill="#f8ff09"></path><path d="M3.7346,2.4394a.0078.0078,0,0,0-.0078.0078v.0161h.0156V2.4472A.0078.0078,0,0,0,3.7346,2.4394Z" fill="#f8ff09"></path><path d="M3.7346,2.4356a.0116.0116,0,0,0-.0115.0116v.02h.023v-.02A.0116.0116,0,0,0,3.7346,2.4356Zm.0078.0277H3.7268V2.4472a.0078.0078,0,0,1,.0156,0Z"></path><polygon points="3.921 2.497 3.928 2.497 3.928 2.488 3.921 2.488 3.852 2.488 3.845 2.488 3.776 2.488 3.769 2.488 3.7 2.488 3.693 2.488 3.693 2.497 3.7 2.497 3.921 2.497" fill="#f8ff09"></polygon><polygon points="2.676 2.611 2.596 2.611 2.587 2.611 2.519 2.611 2.519 2.62 2.753 2.62 2.753 2.611 2.685 2.611 2.676 2.611" fill="#f8ff09"></polygon><path d="M2.5869,2.57a.0491.0491,0,1,1,.0982,0v.0371H2.743V2.5H2.529v.1072h.0579Z" fill="#f8ff09"></path><path d="M2.7569,2.6074h-.01V2.5h.01V2.4843h-.01v-.06h.01V2.3979H2.736v.0115H2.7255V2.3979H2.7v.0115h-.01V2.3979H2.6707v-.003h.01V2.3573H2.66v.017H2.65v-.017h-.026v.017h-.01v-.017H2.5911v.0376h.01v.003H2.5841v.0115h-.01V2.3979h-.026v.0115h-.01V2.3979h-.022v.0268h.01v.06h-.01V2.5h.01v.1072h-.01v.0161h.2418ZM2.7532,2.62H2.5188V2.6111h.2344Zm-.2344-.1317h.2344v.0084H2.5188Zm0-.0865h.0146v.0115h.0179V2.4016H2.57v.0115h.0179V2.4016h.0135V2.421H2.5188Zm.0862-.0037V2.3934h.062v.0909H2.605V2.3979Zm-.01-.0369h.0145v.017h.0179V2.361h.0186v.017h.0179V2.361h.0136v.03H2.5948Zm.1084.0521V2.4016h.0186v.0115H2.74V2.4016h.0135V2.421H2.6707V2.4016h.0146v.0115Zm.04.0116v.06H2.681V2.423h.062Zm-.1417.06H2.5948v-.06h.0065Zm.076,0H2.6707v-.06h.0066Zm-.1483-.06V2.423h.0621v.0613H2.529Zm0,.0755h.214v.1072H2.6851V2.57a.0491.0491,0,1,0-.0982,0v.0371H2.529Zm.07.0713a.0367.0367,0,1,1,.0734,0v.0359H2.5993Zm.0367-.04a.0406.0406,0,0,0-.04.04v.0359h-.005V2.57a.0454.0454,0,0,1,.0908,0v.0371h-.005V2.5715A.0405.0405,0,0,0,2.636,2.531Z"></path><path d="M2.6814,2.6074V2.57a.0454.0454,0,0,0-.0908,0v.0371h.005V2.5715a.04.04,0,1,1,.0808,0v.0359Z" fill="#f8ff09"></path><polygon points="2.677 2.361 2.664 2.361 2.664 2.378 2.646 2.378 2.646 2.361 2.627 2.361 2.627 2.378 2.609 2.378 2.609 2.361 2.595 2.361 2.595 2.391 2.677 2.391 2.677 2.361" fill="#f8ff09"></polygon><path d="M2.667,2.4843V2.3934H2.605v.0909Zm-.0195-.0272h-.023V2.4243a.0115.0115,0,1,1,.023,0Z" fill="#f8ff09"></path><path d="M2.636,2.4165a.0078.0078,0,0,0-.0078.0078v.0291h.0156V2.4243A.0078.0078,0,0,0,2.636,2.4165Z" fill="#f8ff09"></path><path d="M2.636,2.4128a.0116.0116,0,0,0-.0115.0115v.0328h.023V2.4243A.0115.0115,0,0,0,2.636,2.4128Zm.0078.0406H2.6282V2.4243a.0078.0078,0,1,1,.0156,0Z"></path><path d="M2.6727,2.5715a.0367.0367,0,1,0-.0734,0v.0359h.0734Z" fill="#f8ff09"></path><polygon points="2.671 2.402 2.671 2.421 2.753 2.421 2.753 2.402 2.74 2.402 2.74 2.413 2.722 2.413 2.722 2.402 2.703 2.402 2.703 2.413 2.685 2.413 2.685 2.402 2.671 2.402" fill="#f8ff09"></polygon><path d="M2.681,2.4247v.06h.062V2.423H2.681Zm.0425.0423h-.023v-.02a.0115.0115,0,1,1,.023,0Z" fill="#f8ff09"></path><path d="M2.712,2.4394a.0078.0078,0,0,0-.0078.0078v.0161H2.72V2.4472A.0078.0078,0,0,0,2.712,2.4394Z" fill="#f8ff09"></path><path d="M2.712,2.4356a.0116.0116,0,0,0-.0115.0116v.02h.023v-.02A.0116.0116,0,0,0,2.712,2.4356Zm.0078.0277H2.7042V2.4472a.0078.0078,0,0,1,.0156,0Z"></path><polygon points="2.601 2.402 2.588 2.402 2.588 2.413 2.57 2.413 2.57 2.402 2.551 2.402 2.551 2.413 2.533 2.413 2.533 2.402 2.519 2.402 2.519 2.421 2.601 2.421 2.601 2.402" fill="#f8ff09"></polygon><path d="M2.5911,2.4247V2.423H2.529v.0613h.0621Zm-.02.0423H2.5486v-.02a.0115.0115,0,1,1,.0229,0Z" fill="#f8ff09"></path><path d="M2.56,2.4394a.0078.0078,0,0,0-.0078.0078v.0161h.0155V2.4472A.0077.0077,0,0,0,2.56,2.4394Z" fill="#f8ff09"></path><path d="M2.56,2.4356a.0115.0115,0,0,0-.0115.0116v.02h.0229v-.02A.0115.0115,0,0,0,2.56,2.4356Zm.0077.0277H2.5523V2.4472A.0078.0078,0,0,1,2.56,2.4394a.0077.0077,0,0,1,.0077.0078Z"></path><polygon points="2.747 2.497 2.753 2.497 2.753 2.488 2.747 2.488 2.677 2.488 2.671 2.488 2.601 2.488 2.595 2.488 2.525 2.488 2.519 2.488 2.519 2.497 2.525 2.497 2.747 2.497" fill="#f8ff09"></polygon><polygon points="2.94 3.112 2.891 3.16 2.891 3.16 2.885 3.166 2.885 3.166 2.828 3.223 2.828 3.223 2.774 3.278 2.78 3.284 2.946 3.118 2.94 3.112" fill="#f8ff09"></polygon><path d="M2.8194,3.2267l-.0262-.0262a.0492.0492,0,0,1,.0695-.07l.0261.0263.041-.0411L2.8541,3.04l-.0756.0758-.0757.0758.0757.0759Z" fill="#f8ff09"></path><path d="M2.9324,3.1135l-.0757-.0758L2.864,3.03l-.0112-.0112-.0073.0073-.0421-.0422.0073-.0073-.0189-.0189-.0148.0148.0081.0082-.0074.0074L2.77,2.98l-.0183.0184.0081.0082-.0074.0074-.0082-.0082-.0129.013-.0021-.0021L2.736,3.01l-.0266-.0266-.0148.0149.012.012-.0074.0074-.012-.012-.0184.0184.012.012-.0075.0075-.0119-.012-.0155.0155.0265.0266L2.68,3.0663l.0021.0021L2.67,3.0806l.0082.0082L2.67,3.0962,2.6621,3.088l-.0184.0185.0082.0081-.0075.0075-.0081-.0082L2.6208,3.13l.0189.0189.0072-.0073.0421.0422-.0072.0073.0112.0112L2.7,3.1946l.0757.0758-.0073.0072L2.78,3.289l.171-.1714L2.94,3.1063Zm-.1585.1641.0543-.0544h0l.0571-.0572h0L2.8914,3.16h0L2.94,3.1115l.0061.0061L2.78,3.2837Zm.0046-.1615L2.8541,3.04l.0757.0758-.041.0411-.0261-.0263a.0492.0492,0,0,0-.0695.07l.0262.0262-.0409.0411-.0757-.0759Zm-.0855.0805-.006-.006.0046-.0046.0491-.0492.0046-.0047.0491-.0492.0047-.0046.0537-.0538.0059.0059-.0046.0047-.0783.0784Zm-.0446-.0592.0452-.0453h0l-.0014.0013.0012.0012.0421.0422-.0439.0439L2.65,3.1385ZM2.626,3.13l.01-.01.0081.0082.0127-.0127-.0082-.0081.0132-.0132.0082.0081.0126-.0126-.0081-.0082.01-.01h0l.0137.0137h0L2.64,3.1432Zm.0552-.0669L2.68,3.0639h0l.0451-.0453.0011.0011.0021.0021h0l.0116.0116.0494.05-.0439.044-.0421-.0422h0l-.0189-.0189h0l-.0021-.0021Zm-.02-.026.0119.012.0127-.0127-.012-.012.0132-.0131.012.0119L2.7118,3.01,2.7,2.9981l.01-.01.0213.0213-.0583.0585-.0213-.0214Zm.072-.0148.01-.01.0082.0081.0126-.0126-.0081-.0082L2.77,2.9856l.0082.0082L2.79,2.9811l-.0081-.0082.01-.01.0136.0137-.0583.0585L2.7417,3.03l-.0083-.0083Zm.0674-.0349.0421.0422-.0438.044-.0422-.0422L2.7558,3.03l-.0013.0013h0l.0465-.0466h0L2.8,2.9857Zm-.1048.105.0046-.0046.0421.0422-.0046.0046Zm.0046-.0072L2.6858,3.07Zm.0537-.0512.0421.0422L2.7918,3.08,2.75,3.0381Zm.1319.1263-.0035.0035h0l-.0254-.0254a.04.04,0,0,0-.0571,0,.0406.0406,0,0,0,0,.0572l.0254.0255-.0036.0035-.0261-.0262A.0454.0454,0,1,1,2.86,3.1336l.0262.0262ZM2.88,3.166l-.0519.052h0l-.0254-.0254a.0367.0367,0,0,1,.026-.0627.0364.0364,0,0,1,.0259.0107L2.88,3.166ZM2.8888,3.16l-.0048.0048Z"></path><path d="M2.8279,3.12a.0455.0455,0,0,0-.032.0776l.0261.0262.0036-.0035L2.8,3.1951a.04.04,0,0,1,.0286-.069.04.04,0,0,1,.0285.0118l.0254.0254h0L2.8862,3.16h0L2.86,3.1336A.0449.0449,0,0,0,2.8279,3.12Z" fill="#f8ff09"></path><line x1="2.8888" y1="3.1598" x2="2.884" y2="3.1646" fill="none" stroke="#000" stroke-linecap="round" stroke-linejoin="round" stroke-width="0"></line><polygon points="2.731 3.01 2.709 2.989 2.7 2.998 2.712 3.01 2.699 3.023 2.687 3.011 2.674 3.024 2.686 3.036 2.673 3.049 2.661 3.037 2.651 3.047 2.672 3.068 2.731 3.01" fill="#f8ff09"></polygon><path d="M2.6843,3.0658l.0189.0189h0l.0421.0422.0439-.044-.0494-.05-.0116-.0116h0L2.7261,3.02,2.725,3.0186,2.68,3.0639h0l.0013-.0013.001.0011.0021.0021Zm.0487-.0115.0231.0232L2.74,3.0938l-.0231-.0232-.0034-.0082.0034-.0081A.0114.0114,0,0,1,2.733,3.0543Z" fill="#f8ff09"></path><polygon points="2.73 3.057 2.725 3.055 2.719 3.057 2.717 3.062 2.719 3.068 2.74 3.088 2.751 3.078 2.73 3.057" fill="#f8ff09"></polygon><path d="M2.7168,3.0543l-.0034.0081.0034.0082.0231.0232.0162-.0163L2.733,3.0543A.0114.0114,0,0,0,2.7168,3.0543Zm.0026.0137-.0023-.0056.0023-.0055.0055-.0022.0055.0022.0205.0206-.011.011Z"></path><path d="M2.8547,3.1405a.0368.0368,0,0,0-.0519,0,.0369.0369,0,0,0,0,.052l.0254.0254h0L2.88,3.166h0Z" fill="#f8ff09"></path><polygon points="2.747 3.035 2.805 2.977 2.792 2.963 2.782 2.973 2.79 2.981 2.778 2.994 2.769 2.986 2.756 2.999 2.764 3.007 2.752 3.02 2.744 3.012 2.733 3.022 2.733 3.022 2.742 3.03 2.747 3.035" fill="#f8ff09"></polygon><path d="M2.801,2.9844l-.0465.0466h0L2.7558,3.03l.0011.0012.0422.0422.0438-.044-.0421-.0422L2.8,2.9857l.0013-.0013Zm.0019.0322.0139.014-.0162.0163-.014-.014a.0115.0115,0,0,1,.0163-.0163Z" fill="#f8ff09"></path><path d="M2.7947,3.017l-.0055.0023V3.03l.0114.0114.011-.0111L2.8,3.0193Z" fill="#f8ff09"></path><path d="M2.7866,3.0166a.0115.0115,0,0,0,0,.0163l.014.014.0162-.0163-.0139-.014A.0115.0115,0,0,0,2.7866,3.0166Zm.014.0251L2.7892,3.03v-.011l.0055-.0023L2.8,3.0193l.0114.0113Z"></path><polygon points="2.698 3.085 2.684 3.071 2.684 3.071 2.675 3.081 2.683 3.089 2.67 3.101 2.662 3.093 2.649 3.106 2.657 3.115 2.644 3.127 2.636 3.119 2.626 3.13 2.64 3.143 2.698 3.085 2.698 3.085" fill="#f8ff09"></polygon><line x1="2.6858" y1="3.0699" x2="2.7006" y2="3.0847" fill="none" stroke="#000" stroke-linecap="round" stroke-linejoin="round" stroke-width="0"></line><path d="M2.7355,3.1368l-.0421-.0422-.0012-.0012.0014-.0013h0l-.0452.0453.0011.0011.0421.0422Zm-.06-.0044.0034-.0081a.0118.0118,0,0,1,.0162,0l.014.014-.0162.0163-.014-.014Z" fill="#f8ff09"></path><polygon points="2.682 3.138 2.693 3.149 2.704 3.138 2.693 3.127 2.687 3.125 2.682 3.127 2.679 3.132 2.682 3.138" fill="#f8ff09"></polygon><path d="M2.7094,3.1383l-.014-.014a.0118.0118,0,0,0-.0162,0l-.0034.0081.0034.0082.014.014Zm-.0221-.0137.0055.0023.0114.0114-.011.0111L2.6818,3.138,2.68,3.1324l.0023-.0055Z"></path><polygon points="2.859 3.03 2.853 3.025 2.799 3.078 2.794 3.083 2.745 3.132 2.741 3.137 2.692 3.186 2.687 3.191 2.693 3.197 2.776 3.114 2.854 3.035 2.859 3.03" fill="#f8ff09"></polygon><path d="M3.5538,3.1572,3.58,3.1309a.0491.0491,0,0,1,.0694.07l-.0262.0262.041.0411L3.74,3.1919,3.5885,3.04l-.0756.0758Z" fill="#f8ff09"></path><polygon points="3.614 3.223 3.614 3.223 3.557 3.166 3.551 3.16 3.551 3.16 3.503 3.112 3.497 3.118 3.663 3.284 3.669 3.278 3.621 3.229 3.614 3.223" fill="#f8ff09"></polygon><path d="M3.56,3.1633l.0253-.0254a.04.04,0,0,1,.0286-.0118.04.04,0,0,1,.0285.069l-.0253.0255.0035.0035.0262-.0262a.0454.0454,0,1,0-.0642-.0643L3.5564,3.16h0l.0036.0035Z" fill="#f8ff09"></path><polygon points="3.77 3.068 3.791 3.047 3.782 3.037 3.77 3.049 3.757 3.037 3.769 3.025 3.756 3.012 3.744 3.024 3.731 3.011 3.743 2.999 3.733 2.989 3.712 3.01 3.77 3.068" fill="#f8ff09"></polygon><path d="M3.7131,3.0231l-.06.06.0439.044.0421-.0422h0l.0189-.0189h0L3.76,3.0637l.0011-.0011.0013.0013h0l-.0452-.0453L3.7165,3.02l-.0021.0021Zm.0128.0312.0033.0081-.0033.0082-.0232.0232-.0162-.0163L3.71,3.0543A.0115.0115,0,0,1,3.7259,3.0543Z" fill="#f8ff09"></path><path d="M3.6917,3.0775l.011.011.02-.02.0023-.0056-.0023-.0055h-.011Z" fill="#f8ff09"></path><path d="M3.6865,3.0775l.0162.0163.0232-.0232.0033-.0082-.0033-.0081a.0115.0115,0,0,0-.0163,0Zm.0367-.0206.0023.0055-.0023.0056-.02.02-.011-.011.0205-.0206Z"></path><path d="M3.6145,3.2179h0L3.64,3.1925A.0367.0367,0,0,0,3.6139,3.13a.0368.0368,0,0,0-.026.0107l-.0253.0255h0l.0519.052Z" fill="#f8ff09"></path><polygon points="3.758 3.071 3.745 3.085 3.745 3.085 3.803 3.143 3.817 3.13 3.807 3.12 3.799 3.128 3.786 3.115 3.794 3.107 3.781 3.094 3.773 3.102 3.76 3.09 3.769 3.081 3.758 3.071 3.758 3.071" fill="#f8ff09"></polygon><line x1="3.7583" y1="3.0684" x2="3.742" y2="3.0847" fill="none" stroke="#000" stroke-linecap="round" stroke-linejoin="round" stroke-width="0"></line><path d="M3.7493,3.0946l-.0422.0422.0439.0439.0421-.0422.0012-.0011L3.75,3.0934Zm.0141.046-.0139.014-.0163-.0163.014-.014a.0118.0118,0,0,1,.0162,0l.0034.0081Z" fill="#f8ff09"></path><polygon points="3.761 3.127 3.75 3.127 3.738 3.138 3.749 3.149 3.761 3.138 3.763 3.132 3.761 3.127" fill="#f8ff09"></polygon><path d="M3.7472,3.1243l-.014.014.0163.0163.0139-.014.0034-.0082-.0034-.0081A.0118.0118,0,0,0,3.7472,3.1243Zm.0023.0251-.011-.0111L3.75,3.1269h.011l.0023.0055-.0023.0056Z"></path><polygon points="3.666 2.995 3.653 2.982 3.661 2.974 3.651 2.963 3.637 2.977 3.695 3.035 3.708 3.023 3.709 3.022 3.7 3.012 3.691 3.02 3.679 3.008 3.687 2.999 3.674 2.986 3.666 2.995" fill="#f8ff09"></polygon><path d="M3.6582,2.9818l.0082-.0082-.0155-.0155L3.632,2.977l.0072.0073-.0421.0422L3.59,3.0192,3.5787,3.03l.0072.0073L3.51,3.1135,3.503,3.1063l-.0113.0113.171.1714.0113-.0114L3.6668,3.27l.0756-.0758.0073.0072.0112-.0112-.0073-.0073.0421-.0421.0073.0072L3.8219,3.13l-.0148-.0149-.0082.0082-.0074-.0075L3.8,3.1072l-.0184-.0184-.0081.0081L3.7657,3.09l.0081-.0082-.0129-.0129.0021-.0021.0072.0072.0266-.0266L3.782,3.0321l-.012.012-.0074-.0075.0119-.0119-.0183-.0185-.012.012-.0074-.0074.0119-.012-.0155-.0156L3.7067,3.01l.0072.0073-.0021.0021L3.7,3.007l-.0081.0081-.0074-.0074L3.6922,3l-.0184-.0184-.0081.0081Zm.0206.0259.0127.0127L3.7,3.0122l.01.01-.0015.0015-.0122.0122L3.6372,2.977l.0137-.0137.01.01-.0082.0082.0127.0127.0081-.0082L3.687,3Zm.0647-.0089-.012.012.0127.0127.012-.012.0131.0132-.0119.0119.0126.0127.012-.012.01.01L3.77,3.0683,3.7119,3.01l.0213-.0213Zm-.0259.02.0452.0453h0l-.0013-.0013L3.76,3.0637l-.0021.0021h0l-.0189.0189h0l-.0421.0422-.0439-.044.06-.06.0013-.0013L3.7165,3.02Zm.0429.0709.0126.0127.0081-.0082.0132.0132-.0081.0081.0126.0127L3.8071,3.12l.01.01-.0136.0137-.0584-.0585h0l.0137-.0137h0l.01.01Zm.0326.049-.0421.0422-.0439-.0439.0422-.0422L3.75,3.0934l.0439.044ZM3.75,3.1966l-.1612-.1615L3.5839,3.03l.006-.0059.0046.0046.0491.0492.0046.0046.0491.0492.0046.0047.0491.0492.0046.0046Zm-.01-.0047-.0756.0759-.041-.0411.0262-.0262a.0491.0491,0,0,0-.0694-.07l-.0262.0263-.0409-.0411L3.5885,3.04Zm-.0771.0918-.1658-.1661.0061-.0061.0482.0483h0l.0062.0062.0571.0572h0l.0061.0062.0482.0482ZM3.5564,3.16l.0262-.0262a.0454.0454,0,1,1,.0642.0643l-.0262.0262-.0035-.0035.0253-.0255a.04.04,0,0,0-.0285-.069.04.04,0,0,0-.0286.0118L3.56,3.1633h0L3.5564,3.16Zm.0062.0062.0253-.0255a.0368.0368,0,0,1,.026-.0107.0367.0367,0,0,1,.0259.0627l-.0253.0254h0l-.0519-.052Zm.18.0259-.0769-.0771ZM3.6973,3.13l-.0232-.0233Zm.0072.0046L3.7,3.13l.0421-.0422.0046.0046Zm-.0116-.096L3.6508,3.08l-.0046-.0046.0421-.0422Zm-.05-.0524.0451.0453h0L3.6868,3.03l-.0011.0012-.0421.0422L3.6,3.0291l.0421-.0422Zm.0006.09L3.632,3.064Zm.0984.009.0163-.0163Z"></path><path d="M3.6436,3.0731l.0421-.0422L3.6868,3.03l.0013.0013h0L3.643,2.9857l-.0012.0012L3.6,3.0291Zm.0124-.0565a.0115.0115,0,0,1,0,.0163l-.014.014-.0162-.0163.014-.014A.0114.0114,0,0,1,3.656,3.0166Z" fill="#f8ff09"></path><polygon points="3.631 3.031 3.642 3.042 3.653 3.03 3.653 3.019 3.642 3.019 3.631 3.031" fill="#f8ff09"></polygon><path d="M3.642,3.0469l.014-.014a.0115.0115,0,0,0,0-.0163.0114.0114,0,0,0-.0162,0l-.014.014Zm.0114-.0276V3.03l-.0114.0114-.011-.0111.0114-.0113Z"></path><polygon points="3.702 3.137 3.697 3.132 3.648 3.083 3.644 3.078 3.594 3.029 3.59 3.025 3.584 3.03 3.588 3.035 3.75 3.197 3.756 3.191 3.751 3.186 3.702 3.137" fill="#f8ff09"></polygon><line x1="3.6655" y1="3.1148" x2="3.7424" y2="3.1919" fill="none" stroke="#000" stroke-linecap="round" stroke-linejoin="round" stroke-width="0"></line><line x1="3.6973" y1="3.1295" x2="3.6741" y2="3.1062" fill="none" stroke="#000" stroke-linecap="round" stroke-linejoin="round" stroke-width="0"></line><line x1="3.6436" y1="3.0757" x2="3.632" y2="3.064" fill="none" stroke="#000" stroke-linecap="round" stroke-linejoin="round" stroke-width="0"></line><path d="M3.1267,2.142v.1509a.099.099,0,0,0,.0283.07.0967.0967,0,0,0,.0683.0289h.0036a.0955.0955,0,0,0,.0593-.0237A.0993.0993,0,0,0,3.32,2.293V2.142H3.1267Zm.0448.1832a.0214.0214,0,1,1,.0213-.0214A.0213.0213,0,0,1,3.1715,2.3252Zm0-.1038A.0213.0213,0,1,1,3.1928,2.2.0212.0212,0,0,1,3.1715,2.2214Zm.1036-.0426A.0213.0213,0,1,1,3.2538,2.2.0212.0212,0,0,1,3.2751,2.1788Zm0,.1037a.0214.0214,0,1,1-.0213.0213A.0213.0213,0,0,1,3.2751,2.2825ZM3.2445,2.252a.0213.0213,0,1,1-.0212-.0213A.0213.0213,0,0,1,3.2445,2.252Z" fill="#039"></path><path d="M3.202,2.252a.0213.0213,0,1,0,.0213-.0213A.0213.0213,0,0,0,3.202,2.252Z" fill="#fff"></path><path d="M3.2751,2.3252a.0214.0214,0,1,0-.0213-.0214A.0213.0213,0,0,0,3.2751,2.3252Z" fill="#fff"></path><path d="M3.1715,2.2825a.0214.0214,0,1,0,.0213.0213A.0213.0213,0,0,0,3.1715,2.2825Z" fill="#fff"></path><path d="M3.2751,2.2214A.0213.0213,0,1,0,3.2538,2.2.0212.0212,0,0,0,3.2751,2.2214Z" fill="#fff"></path><path d="M3.1715,2.1788A.0213.0213,0,1,0,3.1928,2.2.0212.0212,0,0,0,3.1715,2.1788Z" fill="#fff"></path><path d="M3.1267,2.4811V2.632a.0994.0994,0,0,0,.0283.07.0967.0967,0,0,0,.0683.0289h.0036a.0951.0951,0,0,0,.0593-.0238.099.099,0,0,0,.0337-.075v-.151H3.1267Zm.0448.1831a.0213.0213,0,1,1,.0213-.0213A.0212.0212,0,0,1,3.1715,2.6642Zm0-.1037a.0213.0213,0,1,1,.0213-.0213A.0213.0213,0,0,1,3.1715,2.5605Zm.1036-.0426a.0213.0213,0,1,1-.0213.0213A.0212.0212,0,0,1,3.2751,2.5179Zm0,.1037a.0213.0213,0,1,1-.0213.0213A.0213.0213,0,0,1,3.2751,2.6216Zm-.0306-.03A.0213.0213,0,1,1,3.2233,2.57.0213.0213,0,0,1,3.2445,2.5911Z" fill="#039"></path><path d="M3.202,2.5911A.0213.0213,0,1,0,3.2233,2.57.0213.0213,0,0,0,3.202,2.5911Z" fill="#fff"></path><path d="M3.2751,2.6642a.0213.0213,0,1,0-.0213-.0213A.0212.0212,0,0,0,3.2751,2.6642Z" fill="#fff"></path><path d="M3.1715,2.6216a.0213.0213,0,1,0,.0213.0213A.0213.0213,0,0,0,3.1715,2.6216Z" fill="#fff"></path><path d="M3.2751,2.5605a.0213.0213,0,1,0-.0213-.0213A.0213.0213,0,0,0,3.2751,2.5605Z" fill="#fff"></path><path d="M3.1715,2.5179a.0213.0213,0,1,0,.0213.0213A.0212.0212,0,0,0,3.1715,2.5179Z" fill="#fff"></path><path d="M2.8567,2.632a.1.1,0,0,0,.0284.07.0963.0963,0,0,0,.0719.0289.0953.0953,0,0,0,.0593-.0238.0993.0993,0,0,0,.0337-.075v-.151H2.8567Zm.1484-.1141a.0213.0213,0,1,1-.0212.0213A.0213.0213,0,0,1,3.0051,2.5179Zm0,.1037a.0213.0213,0,1,1-.0212.0213A.0213.0213,0,0,1,3.0051,2.6216ZM2.9534,2.57a.0214.0214,0,1,1-.0213.0214A.0213.0213,0,0,1,2.9534,2.57Zm-.0518-.0518a.0213.0213,0,1,1-.0213.0213A.0213.0213,0,0,1,2.9016,2.5179Zm0,.1037a.0213.0213,0,1,1-.0213.0213A.0214.0214,0,0,1,2.9016,2.6216Z" fill="#039"></path><path d="M2.9534,2.6124a.0214.0214,0,1,0-.0213-.0213A.0213.0213,0,0,0,2.9534,2.6124Z" fill="#fff"></path><path d="M3.0051,2.6642a.0213.0213,0,1,0-.0212-.0213A.0213.0213,0,0,0,3.0051,2.6642Z" fill="#fff"></path><path d="M2.9016,2.6642A.0213.0213,0,1,0,2.88,2.6429.0213.0213,0,0,0,2.9016,2.6642Z" fill="#fff"></path><path d="M3.0051,2.5605a.0213.0213,0,1,0-.0212-.0213A.0213.0213,0,0,0,3.0051,2.5605Z" fill="#fff"></path><path d="M2.9016,2.5605A.0213.0213,0,1,0,2.88,2.5392.0214.0214,0,0,0,2.9016,2.5605Z" fill="#fff"></path><path d="M3.4968,2.7309a.0956.0956,0,0,0,.0594-.0238.0992.0992,0,0,0,.0336-.075v-.151H3.3966V2.632a.0994.0994,0,0,0,.0283.07A.0965.0965,0,0,0,3.4968,2.7309Zm.0482-.213a.0213.0213,0,1,1-.0213.0213A.0212.0212,0,0,1,3.545,2.5179Zm0,.1037a.0213.0213,0,1,1-.0213.0213A.0213.0213,0,0,1,3.545,2.6216ZM3.4932,2.57a.0214.0214,0,1,1-.0213.0214A.0213.0213,0,0,1,3.4932,2.57Zm-.0518-.0518a.0213.0213,0,1,1-.0212.0213A.0213.0213,0,0,1,3.4414,2.5179Zm0,.1037a.0213.0213,0,1,1-.0212.0213A.0213.0213,0,0,1,3.4414,2.6216Z" fill="#039"></path><path d="M3.4932,2.6124a.0214.0214,0,1,0-.0213-.0213A.0213.0213,0,0,0,3.4932,2.6124Z" fill="#fff"></path><path d="M3.545,2.6642a.0213.0213,0,1,0-.0213-.0213A.0212.0212,0,0,0,3.545,2.6642Z" fill="#fff"></path><path d="M3.4414,2.6642A.0213.0213,0,1,0,3.42,2.6429.0213.0213,0,0,0,3.4414,2.6642Z" fill="#fff"></path><path d="M3.545,2.5605a.0213.0213,0,1,0-.0213-.0213A.0213.0213,0,0,0,3.545,2.5605Z" fill="#fff"></path><path d="M3.4414,2.5605A.0213.0213,0,1,0,3.42,2.5392.0213.0213,0,0,0,3.4414,2.5605Z" fill="#fff"></path><path d="M3.1267,2.82v.1509a.0994.0994,0,0,0,.0283.07.0967.0967,0,0,0,.0683.0289h.0036a.0956.0956,0,0,0,.0593-.0238.099.099,0,0,0,.0337-.075V2.82H3.1267Zm.0448.1831a.0213.0213,0,1,1,.0213-.0213A.0212.0212,0,0,1,3.1715,3.0033Zm0-.1037a.0214.0214,0,1,1,.0213-.0213A.0213.0213,0,0,1,3.1715,2.9Zm.1036-.0427a.0214.0214,0,1,1-.0213.0214A.0213.0213,0,0,1,3.2751,2.8569Zm0,.1038a.0213.0213,0,1,1-.0213.0213A.0213.0213,0,0,1,3.2751,2.9607ZM3.2445,2.93a.0213.0213,0,1,1-.0212-.0213A.0212.0212,0,0,1,3.2445,2.93Z" fill="#039"></path><path d="M3.202,2.93a.0213.0213,0,1,0,.0213-.0213A.0213.0213,0,0,0,3.202,2.93Z" fill="#fff"></path><path d="M3.2751,3.0033a.0213.0213,0,1,0-.0213-.0213A.0212.0212,0,0,0,3.2751,3.0033Z" fill="#fff"></path><path d="M3.1715,2.9607a.0213.0213,0,1,0,.0213.0213A.0213.0213,0,0,0,3.1715,2.9607Z" fill="#fff"></path><path d="M3.2751,2.9a.0214.0214,0,1,0-.0213-.0213A.0213.0213,0,0,0,3.2751,2.9Z" fill="#fff"></path><path d="M3.1715,2.8569a.0214.0214,0,1,0,.0213.0214A.0213.0213,0,0,0,3.1715,2.8569Z" fill="#fff"></path></svg> 